<svg version="1.0" xmlns="http://www.w3.org/2000/svg" width="1448" height="1706.667" viewBox="0 0 1086 1280"><g fill="#d2ab74"><path d="M615 1c-9.6 1.3-21.8 5.6-27.2 9.5-8.5 6.2-13.1 16.9-19.3 45.4-4 17.9-6.7 26.4-10.8 33.3-6.2 10.7-18.3 18.7-34.2 22.6-6.1 1.5-12.8 2.1-27.5 2.5-23.7.6-29 1.9-47 11.4-21.5 11.2-23.8 13.5-24.7 24.3-.6 6.7.5 8.8 5.8 11 4.7 2 3.4 2.7-4.8 2.6l-7.8-.1-1.4 3.2c-1.9 4.3-5.7 5.7-13.2 4.9-7.4-.7-7.9-1-7.9-4.5 0-3.2-3.1-6.9-6.3-7.5-1.2-.3-5.8-.7-10.2-.9-5.2-.3-10.8-1.4-16-3.2-12.2-4.3-34.1-15-35.4-17.3-2-3.8-1.3-14.1 1.6-22.2 2.4-6.9 2.5-7.8 1.2-10.5-.8-1.6-3.4-4.1-5.9-5.5-4.1-2.3-5.5-2.5-15.9-2.4l-11.3.2-7.3-7.4c-5.8-6-7.7-7.4-10.2-7.4-4 0-8.3 4.8-8.4 9.3-.3 7.6.6 10.3 4.8 14.8l2.4 2.7-3.1 5.6c-4 7-3.7 9.7 2.2 22.2l4.3 8.9-.1 24c0 21.7-1.5 41-4 51.1-.7 2.9-2.8 2.5-10.6-1.9-3.6-2-7.1-3.7-7.6-3.7s-1.2-2.3-1.4-5.1c-.6-5.9-1.7-6.9-7.5-6.9-3 0-5 .7-7 2.4-2.4 2.1-2.8 3.1-2.7 7.3l.2 4.8-1.3-3.1c-2.1-4.9-3.8-5.7-10.5-5.2l-6 .4v-3.7c0-6.9-5.8-10.8-16.3-10.9-5.3 0-9.4 2-15.4 7.4l-5.2 4.7-2.7-4.1c-1.5-2.2-5.4-11.1-8.6-19.8-7.2-19.1-9.6-23.4-14.5-25.8-4.4-2.1-19.1-3.2-21.9-1.6-1.3.7-2.6.6-4.7-.4-1.7-1-4.9-1.4-8.5-1.2l-5.7.3.1 5.8.1 5.9-7.1-.8c-3.9-.4-10.4-.7-14.5-.7-7.1.1-7.5-.1-10.8-3.3l-3.4-3.4H64.2c-12.2.1-22.7.6-27.4 1.4-10.4 1.9-18.4 5.6-20.6 9.7-.9 1.7-3.1 5.2-4.8 7.8-4.3 6.4-4.8 9.3-2.4 12.4 2.7 3.4 9 4.8 24.2 5.4 13.1.6 15.6 1.2 14.3 3.3-.6 1-4 1.2-14.6.7-13.6-.6-17.2 0-12.9 2.3 1.5.8 2 2.1 2 5.4 0 4.5 1 5.6 5.2 5.6 3.8 0 8.6 3.1 9.7 6.2 1.5 4.2 1.6 4.1-2.6 3.4-7.9-1.2-30.4-2.7-32.2-2.1-1.7.5-1.9 1.3-1.4 6.3.6 7.1 3.2 9.8 10 10.7 10.9 1.5 12 2.1 14.9 8.2 2.3 4.7 2.9 7.4 3.2 15l.4 9.3h7.5c8.7 0 10.7-.8 13.1-5.6l1.8-3.6 5.2 5.9c4.4 5.1 5.1 6.6 5.4 10.8.3 5.3.5 5.5 8.8 8.5 3 1.1 9.1 4.1 13.5 6.7 4.4 2.5 10.7 6 14 7.7 4.9 2.5 5.9 3.5 5.7 5.3-.4 2.4 3.2 5.5 5.4 4.6.9-.3 1.4.8 1.6 4.3.2 3.8.8 5.1 3.1 6.8 2.6 1.9 4 2.1 17.4 1.9 8.1-.2 14.3 0 14 .4-.4.3-4.2 1.8-8.4 3.2l-7.8 2.6-.3 4c-.5 6.6 1 7.6 12.4 8.6 5.4.5 12.1 1.4 14.9 2l4.9 1.2-4.1 3.6c-2.2 2-4.6 4.6-5.2 5.8-1.4 2.8-1.4 12.5 0 15.7 1.1 2.3 7.1 5.6 10.2 5.6 2 0 13.7 5.9 13.7 6.9 0 .5-2.1 1.3-4.7 1.7-5 .7-8.3 2.7-8.3 5.1 0 .8.9 3.1 2 5.3 2.2 4.2 6 6 13.3 6 3.2 0 3.7.3 3.7 2.3 0 1.3-.7 4.6-1.5 7.3-1.3 4.5-2 5.2-7.2 7.9-4.6 2.4-6.2 3.9-8.2 7.8-2.9 5.7-2.8 5.9 5.9 18.8 5.3 7.9 8.1 14.6 10.9 25.5 1.6 6.3 6.6 12.9 14.7 19.5 6.5 5.3 7.4 6.4 7.4 9.3 0 4.1 2.3 6.2 7.8 7.1 6 1 17.6 7 19.7 10.2 1.7 2.5 1.6 2.8-.9 9-3.1 7.5-3.3 12.1-.7 17.1 2.1 4.1 8.9 10.9 16.3 16.1 2.7 1.9 4.7 3.5 4.5 3.7-.1.1-4.2-.9-9.2-2.2-11.2-3-11.6-3-15 .2-2.7 2.5-2.8 2.5-4.6.7-.9-1-3.1-5.8-4.9-10.7-1.7-5-3.6-9.6-4.2-10.3-.6-.7-2.7-1.3-4.8-1.3-10.3 0-13.2 17.1-4.9 28.4 2.7 3.7 2.8 4.4 2.3 10.6-.9 9.4 1.6 13.8 17.4 30.4 12.4 13 16.5 18.9 17.8 25.4.6 2.8.4 3.2-1.4 3.2-3.1 0-8.9-7.3-16.6-20.8-6.5-11.5-8.6-13.9-10.7-12.7-.4.3-2.2 5.2-3.9 10.8-1.8 5.6-6.7 21-11 34.2-13.2 40.7-15.4 48.3-14 50 .7.8 2.1 1.5 3.2 1.5 3 0 5.8 1.9 5.8 3.9 0 1.6-1 1.9-6 2.3-3.3.2-6.5.9-7 1.4-.6.6-4.1 9.6-7.9 20-15.4 42.8-32 78.8-46.6 101.5-5 7.7-8.6 11.3-17.7 17.5-8.2 5.6-10.2 8.4-10.2 14.6 0 5.9 1.7 7.9 8.6 10.1 6.7 2.1 11.2 4.9 13.4 8.2 1.7 2.6 1.6 2.8-2.4 10.6-5.5 10.5-4.5 13.4 5.6 16.4 9.8 2.9 11 3.6 18.5 10.3 8.4 7.5 10.9 8.8 19.7 9.8 8.6.9 9.9 1.7 10.6 6.5.4 2.3 1.7 5.3 2.9 6.8 1.3 1.4 2.8 4.6 3.4 6.9.7 2.4 2.1 4.8 3.4 5.6 1.3.8 7.8 1.8 16.4 2.4l14.3 1 4.5 4.5c3.7 3.7 4.5 5.2 4.5 8.1 0 5.3 2.8 7.6 9.3 7.6 2.8 0 8.2.3 11.8.6 6 .6 6.6.9 7.6 3.5 1.4 3.6 5.6 5.4 20.3 8.5 6.3 1.3 13.8 2.9 16.7 3.6 4.7 1.1 5.4 1 7.4-.8 1.9-1.7 2.1-2.6 1.6-9.2-.4-5.8-.3-7.4.9-7.9.7-.3 4.4 1.7 8.1 4.5 8.5 6.2 11.6 7.8 17.3 8.7 7.7 1.1 8 1.3 8 5 0 4.4 2.4 6 11.5 7.5 3.9.6 7.6 1.5 8.3 1.9.7.4 1.5 2.5 1.9 4.7 1.1 7.3 4.6 9.6 15.8 10.4l7.9.5 1.8 7.9c1.9 8.3 3.5 10.8 13.8 22 10.4 11.3 20.2 13.7 26.1 6.4 2.9-3.7 12.1-1.9 13.5 2.6 1.4 4.8 5.8 7.7 14.9 10 5.4 1.5 5.8 1.4 14.8-1.6 17.9-5.9 30.8-7.2 38.2-3.7 2.5 1.2 5.1 1.9 5.8 1.6 2.2-.8 2.7-8 2.7-37.6l.1-27.6 3.8-5.5c4.8-7 16.5-17.2 26.9-23.3 18.2-10.8 46.9-20.7 59.8-20.7 4.1 0 7.4.4 7.4 1 0 .5 1.5 1.3 3.3 1.8 2.7.7 3.4 1.4 4.3 5.1 1.4 6 4.3 8.1 11.1 8.1 6.9 0 17.9 2.5 22 5 2.1 1.2 3.3 3 3.8 5.2.8 3.9 4.9 8.6 9 10.3 1.7.7 7.4 1.8 12.8 2.5 11.8 1.4 12.6 1 12.8-6.4l.1-5.1 1 4.5c1.7 8.6 2.2 9.5 6.2 11.4 3.6 1.8 4.6 1.8 13.8.6 5.4-.7 10.2-1 10.5-.6.3.3 0 3.2-.7 6.4-1.6 7.6-.8 9.6 4 11.6 2.1.8 9 4.7 15.2 8.6 20.1 12.6 28.4 15.8 52.2 20 7.8 1.3 26.1 1.3 32.8-.1 7.3-1.5 14.4-5.5 15.6-8.8.6-1.4 1.3-4.5 1.5-6.9.7-5.7 4.9-11.7 10.1-14.1 2.2-1 7.3-3.3 11.3-5.1 3.9-1.8 8.6-4.7 10.4-6.6 3.1-3.2 3.6-3.4 10.4-3.4 4.2 0 7.8-.5 8.7-1.2.9-.7 2.4-4 3.3-7.3.9-3.3 2.2-6.3 2.8-6.7.6-.4 4-.4 7.4-.1 5.2.5 6.7.3 8.3-1.2 1.1-1 2-2.6 2-3.6 0-2.1 2.9-3.9 6.3-3.9 1.4 0 3.5-.9 4.8-1.9 2.2-1.8 2.4-2.6 2.2-9.4-.2-7.5-.2-7.6 3.3-10.6 1.9-1.7 5.7-4.2 8.3-5.6 8.2-4.1 10.9-9.7 8.1-16.9-1.5-4-5-5.5-17.3-7.6-12.3-2.1-19-4.6-35.2-13.3-12.4-6.6-13.5-8-13.5-17.2 0-5.9.7-9.3 3.5-17.1 1.9-5.3 3.5-11.1 3.5-13 0-3.1.2-3.3 4.3-3.9 2.4-.4 4.9-1 5.5-1.4 1.5-.9 2.4-27.1 1-28.8-.6-.8-3.6-1.3-7.7-1.3-10.4 0-10.6-.2-14.1-9.1-4-10.5-5.4-17.2-4.1-19.7.9-1.7 2.5-2 14.8-2.4 16-.5 21.9-2.4 27.7-8.9 5.4-5.9 6.2-10 4.1-21.1-1.9-10.3-3.6-13.8-6.5-13.8-2.3 0-3.5-3.9-4.4-14.5-.7-7.1-2.7-10.5-6.2-10.5-2.2 0-4.6-4.6-4.2-8.1.3-3.2.5-3.3 6.3-4.4 10.5-1.9 13.5-5.5 14.3-17.1.6-9.3-.1-12-3.8-13.9-1.7-.9-3-2.4-3-3.3 0-1-1.6-4.1-3.5-6.8s-3.5-6.1-3.5-7.6 1.4-6.2 3-10.4c4.2-10.3 4.7-15 2.1-19.1-2.8-4.5-7.1-5.3-21.1-4.4-10.1.7-12.5 1.2-19.9 4.4-9.8 4.3-12 6.1-16.7 13.8-3.9 6.4-7 8.2-13.5 7.7l-4.4-.3 6.6-3.3c10.2-5 10.4-5.3 10.4-19.6 0-9.7.4-12.8 1.8-15.8 2.4-4.8 12.2-15.5 15-16.4 1.2-.3 6.1-2.4 10.9-4.6 10.1-4.7 10.8-5.8 10.8-17.5 0-9.3-.1-9.2 19.5-20.8 16.9-10.2 25.1-16.3 31.3-23.6 4.7-5.7 5.5-10.5 2.6-16-1.8-3.6-1.5-6.8.8-8.3 1.4-.8 2.8.1 8.2 5.2 6.5 6.3 7.8 6.8 15.1 6.3 4.3-.3 12.4-4.3 17-8.4l4-3.5.5-11.4c.5-11.6.8-12.7 5.3-17.2 1.6-1.5 1.8-2.7 1.2-7.6-.7-5.7-.7-5.7 2.8-7.7 3.8-2.3 4.7-4.8 4.8-14.2.1-11.2 1.3-16.2 4.7-19.2 4.1-3.6 4.4-4.3 10.7-22.8 9.1-26.5 8-24.9 26.2-38.6 12.1-9.1 16.6-14.8 18.3-23.2 1.4-6.7.3-11.7-3.3-15.1-3.1-2.9-22.2-10.1-32-12-7.2-1.4-8.2-1.9-11-5.5-6.8-8.4-10.2-11.9-12.9-13.3-2.9-1.5-3.9-1.3-7.1 1.4-1.2 1.1-3.5 1.5-7.5 1.3-10.4-.3-10.7-.5-12.7-7.2-1-3.2-2.4-6.4-3.1-7-1.3-1.1-5.9-1.5-14.1-1.1-4.7.2-5.3.5-5.9 2.7-.3 1.4-1 2.5-1.4 2.5-1 0-3.5-8.3-5.9-19.7-1.1-5-2.9-10.9-4-13.1-2.1-4.2-6.9-7.2-11.6-7.2-3 0-6.1-1.4-9.2-4.3-1.9-1.7-2.9-1.9-7-1.2-5.2.9-19.4.9-23 0-1.6-.4-2.5-1.7-3.3-4.8-.6-2.3-1.4-4.9-1.9-5.7-1.2-2.2-6.1-2.3-17.2-.5-5.5.9-10.6 1.5-11.3 1.2-.7-.3-1.6-2.8-2-5.6-.4-2.8-.9-5.8-1.3-6.7-.3-.9-5.4-5.6-11.2-10.6-5.8-5-13.7-12-17.5-15.6-6.7-6.3-6.9-6.6-6.7-11.1.1-2.5 1.7-11.2 3.7-19.4 4.1-17.4 4.2-22.7.3-24.1-5.6-1.9-7.5-.6-23.7 16.6-6.1 6.4-10.3 8.3-16.9 7.4-6.5-.9-15.2-5.3-16.4-8.3-.7-1.8-.1-5.8 2.1-15.3 3.5-14.7 3.6-16.9 1.3-21.7-2.2-4.8-6.5-6.4-19.5-7.3-12.3-.8-16.4-2.6-15.4-6.4 1.1-4.5.9-15.6-.4-17.1-1.7-2.1-7.5-3.5-14.2-3.5-10.9 0-10.6.5-11-17.5l-.3-15.7-2.8-2.4c-4.1-3.5-12-5.5-24.4-6.1-15.5-.8-14.9.2-14.5-21.8.2-13-.1-17.5-1-18.2C657.7 1.2 628.6-.9 615 1zm33.5 4c3 .4-.9.5-9.5.2-28.8-1-47.8 4.7-54.7 16.6-4.9 8.2-14.5 43.6-13 47.6.3.8 3.8 3.1 7.7 5.1 3.8 1.9 7 3.7 7 4 0 .4-15-6.4-16.3-7.5-.7-.6 4.8-26.7 7.9-37 3.9-12.9 9.1-19.7 18.9-24.1 5.2-2.3 8.2-3.2 19-5.3 3.6-.7 27.9-.4 33 .4zm9.8 2.2c1.4 1.1 1.5 2.4.9 8.8l-.7 7.5-.5-7.8c-.4-5.2-1.1-8.1-2.1-8.8-.7-.5-.9-.9-.3-.9.5 0 1.8.6 2.7 1.2zm32.2 42.4c10.7 2.7 10.5 2.5 10.3 17.2l-.2 12.7-.6-13-.5-12.9-5.7-1.8c-3.1-.9-9.4-2.1-14-2.6l-8.3-.9 6.5-.2c3.6 0 9.3.6 12.5 1.5zM580 80.1c7.8 4 9.8 5.5 14 10.5 2 2.4 1.8 2.3-1.5-.7-5.4-4.8-8.8-7-16.7-10.7l-6.8-3.1-1.5 2.7c-1.7 3.1-1.9 2.5-.5-1.3 1.2-3.2 2.1-3 13 2.6zm-297.1 8.5c1.8 1.4 3.7 3.6 4.3 4.8.9 1.6.2 1.3-2.6-1.2-4-3.5-7-4.1-8-1.6-1.4 3.6-.5 9.2 2 13 2.4 3.6 2.5 3.7.4 1.9-2.6-2.3-5-7.4-5-10.7 0-2.6 3.5-8.8 4.9-8.8.5 0 2.3 1.2 4 2.6zm323.9 7.3c1.2.6 5 1.8 8.4 2.6l6.3 1.4-5.4-.6c-8.9-.9-12.1-2.5-17-8.4l-4.6-5.4 5.1 4.6c2.7 2.6 6 5.2 7.2 5.8zM725.4 91c2.1.8 2.6 1.6 2.5 4.2-.1 1.8-.5 4.4-1 5.8-.6 1.9-.7 1.6-.3-1.5.7-5.8-1-7.6-8.2-8.5l-5.9-.7 5.2-.2c2.8 0 6.3.3 7.7.9zm-172.6 11.7-3.7 3.8 3.9 2.8c2.1 1.5 5.3 4.6 7.1 7 2.7 3.4 1.9 2.9-4.2-2.8-4-3.8-7.6-7.1-7.9-7.3-.5-.4 7-7.2 8-7.2.2 0-1.2 1.7-3.2 3.7zm-256.3-.9c-.3.3-1.1 0-1.8-.7-.9-1-.8-1.1.6-.5 1 .3 1.5.9 1.2 1.2zm26.2 1.5c3.7 1.9 5.1 5.7 3.5 9-.9 1.9-1 1.7-.9-1.7.2-3.4-.2-4.2-3-5.8-1.9-1.2-6.5-2.3-11.5-2.8l-8.3-.9 8.5.3c5.6.2 9.6.8 11.7 1.9zm303.6 1.9c1.9 1 2.2 3.5.7 5.8-.8 1.1-.9.8-.4-1.1.7-3.2-.1-3.8-7.5-5.5l-5.6-1.3 5.5.6c3 .3 6.3.9 7.3 1.5zm-73.8 9.9c9.2 8.8 10.2 11.3 8.8 23.1l-1 8.3.1-10.1c.1-9.5 0-10.2-2.8-14.3-1.6-2.3-5.2-6.1-7.9-8.3l-4.9-4.1-5 1.6c-2.8.9-4.7 1.3-4.4 1 .7-.8 7.8-4.1 8.8-4.2.5-.1 4.2 3.1 8.3 7zm78.5-.5c0 1.4-.4 2.3-.9 2-.5-.3-.7-1.5-.4-2.6.7-2.8 1.3-2.5 1.3.6zm100 0c0 .2-.9 0-2-.6s-2-1.3-2-1.6c0-.2.9 0 2 .6s2 1.3 2 1.6zm-452.6 4.5c-1.8 4.5-1.1 8.5 2.8 16.2 1.1 2.2 1.8 4.1 1.5 4.3-.8.8-6.7-13.3-6.7-16 0-2.5 2.5-8.6 3.5-8.6.3 0-.2 1.8-1.1 4.1zm482.3 1.4c2.7 3.1 3 8.4.9 16-1.3 4.9-1.3 4.9-.8-4.5.6-11.3.3-11.7-9.1-13.7l-6.2-1.3 6.5.4c5.5.4 6.8.9 8.7 3.1zm-272.4-.9c-12.5 1-17.6 1.9-23 3.9-8.6 3.3-28 13.7-31.7 17.1-5.1 4.8-6.2 11.9-2.3 15.4l2.2 2.2-2.7-1.2c-3.1-1.4-3.7-3.9-2.5-9.7 1.1-5.9 4.4-8.7 18.8-16.5 19.5-10.6 26.7-12.6 45.9-12.6h11.5l-16.2 1.4zm150.5-.9c-1 .2-2.6.2-3.5 0-1-.3-.2-.5 1.7-.5s2.7.2 1.8.5zm-3.1 3.9c-.3.3-1.2.4-1.9.1-.8-.3-.5-.6.6-.6 1.1-.1 1.7.2 1.3.5zm8.6 1.6c2.3 1.2 4 3.1 5.8 6.3.6 1.1-.6.3-2.7-1.7-2.2-2-5-4.1-6.4-4.7-1.9-.7-2-1-.7-1 1-.1 2.8.4 4 1.1zm19.5 7.9 5.7.7-6.4-.2c-6.3-.1-6.4-.2-9.9-4.6l-3.6-4.5 4.2 4c3.6 3.4 5.1 4.1 10 4.6zm-342.1-.9c-.2 1.3-.4.3-.4-2.2s.2-3.5.4-2.3c.2 1.3.2 3.3 0 4.5zm353.3.8c1.1.8.7.9-1.5.4-3.7-.8-4.5-1.4-1.9-1.4 1 0 2.6.5 3.4 1zm1 5.9c.5 1.1 1 2.6.9 3.3 0 .7-.5.3-1.1-.9-.8-1.6-2.3-2.4-5.7-2.8-7-1-7.2-1.3-.9-1.4 4.7-.1 5.9.3 6.8 1.8zm9.4 4.8c1.7-.3 4.2-.8 5.6-1.1 2-.5 1.9-.4-.5.8-7.3 3.4-9.2 2.9-10-2.4l-.5-3.5 1.2 3.3c1 3 1.5 3.3 4.2 2.9zm17.5 3.5c1.5 4.1.4 5.1-1.1 1-1.4-3.7-1.6-3.7-6.5-1.7-2 .8-3.8 1.3-4.1 1.1-.6-.7 5.9-3.4 8.5-3.5 1.5-.1 2.4.8 3.2 3.1zm11.3.1c6.6.2 6.7 1.7.2 1.7-5.3 0-8.4-1.4-8.4-3.7 0-1.5.1-1.5 1.3.1.9 1.3 2.8 1.8 6.9 1.9zm-373.6 4.5c-.5.4-10.6-4.6-10.6-5.3 0-.3 2.5.7 5.5 2.2 3 1.5 5.3 2.9 5.1 3.1zm477.6-1.6c-.2 2-1.2 6.9-2.2 11-2 7.4-2 6.9.2-5.9.6-4 .9-7.5.6-7.9-1-1-5 1.7-11.3 7.5-4.8 4.6-5.3 4.9-2.6 1.6 5.6-6.8 10.4-10.5 13.1-10.3 2.2.3 2.5.7 2.2 4zm-254.1 12.3c-.6 13.7-.7 14.5-1.5 8.8-.7-5.7-.5-10 1-20.6 1-6.7 1.1-3.6.5 11.8zm-4.4-11.3c-.3.7-.5.2-.5-1.2s.2-1.9.5-1.3c.2.7.2 1.9 0 2.5zm182.5 2.3c3.5 3 8.1 6.4 10.3 7.5 2.2 1.1 3.5 2 2.8 2-2.8 0-6.8-2.3-11.7-7-2.8-2.7-6.5-5.6-8.1-6.4-1.9-1-2.4-1.6-1.3-1.6.9 0 4.5 2.5 8 5.5zm-14.7-1.5c-1.6.4-5 .7-7.5.7h-4.5l4.5-.7c2.5-.4 5.9-.7 7.5-.7l3-.1-3 .8zm12.2 5.6c4 3.9 4.6 4.7 1.8 2.5-7.5-5.8-10-8.1-8.8-8.1.7 0 3.8 2.5 7 5.6zM348.5 154c.3.6-.1.7-.9.4-1.8-.7-2.1-1.4-.7-1.4.6 0 1.3.4 1.6 1zm-218 5.1c1.5.7.9.8-2.2.4-2.7-.3-4.3-.1-4.3.5s-.5.8-1 .5c-3.3-2 3.5-3.3 7.5-1.4zm22.4 1c8.9 1.9 10.4 4 18.7 25.9 2.3 6.3 4.1 11.6 4 11.8-.2.1-2.7-5.6-5.6-12.7-8.7-21.8-10.9-24.1-23.4-24.1-4.3 0-5.7-.3-4.6-1 2-1.3 4.8-1.2 10.9.1zm607.6 2.7c-.8.8-2.5-1-2.5-2.6 0-1.3.2-1.3 1.4.4.8 1 1.3 2.1 1.1 2.2zm-676.4 1.9 2.4 2.6-2.5-1.6c-4.6-3.2-47.1-1.8-55.7 1.8-2.1.9-5.3 3-7 4.7-3.6 3.5-4.6 2.6-1.3-1 5.9-6.3 19.1-8.8 48.1-9.1 13.5-.1 13.6-.1 16 2.6zm306.7 1.6c.8 1.6 1.1 3.1.8 3.4-.3.3-1-.6-1.5-2-.7-1.7-2.1-2.9-3.8-3.3-4.7-1-5-1.3-.8-1.1 3.3.2 4.2.7 5.3 3zm403.2.2c-1.3 1.4-3.3 2.5-4.4 2.5-1.6 0-1.2-.6 1.9-2.5 5.1-3.1 5.4-3.1 2.5 0zm-366.1 1.1c.2.2-.9.4-2.5.4s-3.9.7-5.1 1.5c-2 1.4-2.1 1.4-1-.9 1-2.1 1.7-2.3 4.7-1.9 1.9.3 3.7.7 3.9.9zm13.5 6.9c5.6 11.6 7.1 33.3 2.5 38.7-1.9 2.3-1.9 2.3-.3-1.7 2.4-5.9 1.5-24.9-1.5-32.7-2.7-7.1-5.6-10.8-8.4-10.9-2.1 0-2.1-.1-.2-.9 2.7-1 4.6.7 7.9 7.5zm317.3-7.9c-.3.3-1.2.4-1.9.1-.8-.3-.5-.6.6-.6 1.1-.1 1.7.2 1.3.5zm4.8 3.6c-.4 1.8-1.1 4-1.6 4.8-.6 1-.7.4-.2-1.5.4-1.7.7-3.8.7-4.8 0-.9.4-1.7.9-1.7s.5 1.5.2 3.2zm8.5-2.2c1.2.8.9 1-1.2 1-1.6 0-2.8-.5-2.8-1 0-1.3 2-1.3 4 0zm-667.7 1.7c-1.3.2-3.3.2-4.5 0-1.3-.2-.3-.4 2.2-.4s3.5.2 2.3.4zM558 200.5c-.7 3.3-2 7.6-3 9.6-2.2 4.2-9 11.4-14 14.8-2.3 1.6-.8-.4 4.1-5.5 4.3-4.3 8.4-9.3 9.3-11 2.2-4.5 3.6-14.2 3.8-27.4l.2-11.5.4 12.5c.2 6.9-.2 15.2-.8 18.5zm207.1-17.6c-1.1 4.6-2.3 8.6-2.7 9-.3.3-.4-.3-.1-1.4.3-1.1.8-3.8 1.2-6 .9-5.5 2.8-12 3.2-10.8.2.5-.5 4.7-1.6 9.2zm-316.2-.4v2l-.9-2c-.5-1.1-.9-2.9-.9-4v-2l.9 2c.5 1.1.9 2.9.9 4zm-434.9.4c-2.9 5.8-.9 6.8 17 8.1l10.5.8-12-.2c-17.1-.4-20.7-2.5-16.5-9.4 2.7-4.5 3.5-4 1 .7zm745.5 3.3c-1.5 7.5-2.7 9.9-5.8 11.5l-3.2 1.6 3.1-2.9c2.1-1.9 3.5-4.6 4.3-8.2 1.4-5.6 2.7-7.3 1.6-2zm54.5 8.5c1.5 1.7 1 1.4-1.3-.7-3.4-3.2-3.6-3.8-3-7.5l.7-4 .6 4.7c.4 2.9 1.5 5.8 3 7.5zm-364.3-5.5c-.3.7-.5.2-.5-1.2s.2-1.9.5-1.3c.2.7.2 1.9 0 2.5zm-403.4 3.5c-.7.2-2.1.2-3 0-1-.3-.4-.5 1.2-.5 1.7 0 2.4.2 1.8.5zm5.5 3.8c-.3.3-.9-.2-1.2-1.2-.6-1.4-.5-1.5.5-.6.7.7 1 1.5.7 1.8zm783 16.4c2.8 2.4 5.2 4.7 5.2 5.1 0 1-24.6 35.9-37.3 52.8L792 285.1V322l5.2 8.3c2.8 4.5 5.8 9.3 6.6 10.7 3.4 5.9-2.1-1.8-7.4-10.2L791 322v-37.2l10.9-14.7c5.9-8 16.7-22.9 24-33l13.1-18.4-10.8-10.6c-6-5.8-8.2-8.1-4.8-5.1 3.4 3.1 8.5 7.5 11.4 9.9zM182.3 209c1.1 1.3 1 1.3-.6.1-1.8-1.4-5.7-8.2-5.7-9.8 0-.4 1.2 1.2 2.6 3.7 1.4 2.5 3.1 5.2 3.7 6zm33.7-7.7c1.7.9 2.6 2.2 2.7 4.2l.2 3-1-2.6c-1.2-3.2-4.7-4.9-10.3-4.9-4.5 0-9 2.4-15 7.9-1.6 1.4-2.5 2-2.1 1.2 1.1-1.8 7.1-7.2 9.9-8.8 2.8-1.6 12.4-1.6 15.6 0zm537.9 1.9c-4.6 4.3-8.8 11.5-11.1 19.2-1.7 5.8-1.8 5.9-1.3 1.6.7-6.6 7.2-18.9 11.4-21.7 4.8-3.2 5.1-2.9 1 .9zm-725.7.9c-3 1.2-2.4 3 1.5 4.3 1.8.6 3.5 1.5 4 2s0 .6-1.2.1c-1.1-.4-3.2-1-4.7-1.3-2.3-.3-2.8-.9-2.8-3.3 0-2.5.4-2.9 2.8-2.8 2.7 0 2.7 0 .4 1zM47 204c-.8.5-4.4.9-8 .8l-6.5-.2 7-.6c3.9-.4 7.5-.7 8-.8.6-.1.3.3-.5.8zm236.7 5.2c-.2 1.3-.4.5-.4-1.7-.1-2.2.1-3.2.4-2.3.2 1 .2 2.8 0 4zm167-1c-.3.8-.6.5-.6-.6-.1-1.1.2-1.7.5-1.3.3.3.4 1.2.1 1.9zm109.3 1.5c-1.1 1.7-1.1 1.7-.6 0 .3-1 .6-2.4.7-3 0-.9.2-.9.5 0 .3.7 0 2-.6 3zm-306.2 3.5-.1 5.3-.6-4.5c-.6-4.2-.8-4.5-3.6-4.5-2.9 0-3 .3-4.1 6l-1.2 6-.1-5.6c-.1-6.5 1-7.9 6.1-7.9h3.8l-.2 5.2zm193.9 3c-3.2 4.3-4 7.2-3.2 11.4.4 2.6 1.4 3.8 3.8 4.8l3.2 1.4-3.3.1c-3.8.1-5.2-2.4-5.2-9.4 0-3.5.6-5.2 3-7.8 1.7-1.9 3.1-4.3 3.1-5.3.1-1.7.2-1.7.6-.2.2 1-.7 3.2-2 5zm110.8-1.5c0 3.2 3.9 5.8 12.9 8.5l6.1 1.8-4.9-.5c-4.5-.5-9.8-2.9-15-6.8-1.5-1.1-1.7-1.7-.7-3.5 1.5-2.8 1.7-2.8 1.6.5zm-324.2-.5c.9.7 1.9 2.9 2.3 4.8l.6 3.5-1.9-3.5c-1.5-3-2.4-3.6-6.3-4-3.6-.5-4-.7-2-1.2 4.2-.9 5.6-.8 7.3.4zm48.2 4.8c-.4 2.8-.9 4.9-1.2 4.7-.2-.3-.1-2.8.3-5.6s.9-5 1.1-4.7c.3.3.2 2.8-.2 5.6zm-240.6 1c0 1-.3.8-.9-.5-1.2-2.7-1.2-4.3 0-2.5.5.8.9 2.2.9 3zm224.2 3.5c4.9 2.9 7.9 5.4 8.3 6.8 1.1 4 .5 4.2-1.4.5-1.5-2.9-3.5-4.4-8.9-7-3.9-1.8-7-3.6-7-4.1-.1-1.3 1.1-.8 9 3.8zm293.5.3c-.2.1-1.7-.5-3.4-1.5-3-1.7-3.1-1.7-5.9.7l-2.8 2.5 2.9-3.2 2.8-3.2 3.3 2.2c1.9 1.2 3.2 2.3 3.1 2.5zm287.1.3c.7 1.3 1.3 4 1.3 5.9 0 1.9.7 4.8 1.5 6.3 1 2.1 1.1 2.7.2 2.5-.6-.3-1.6-2.2-2-4.4-1.8-8.2-2.8-11.4-3.8-11.4-.5 0-4.6 4.9-9 11-8.9 12-11.8 15-4.2 4.2 13.3-18.8 13.5-19 16-14.1zm-109.6 3.6c-1.2 4.4-3.6 8.1-4.6 7.1-.4-.4.2-1.9 1.4-3.3 1.1-1.5 2.4-4.3 2.7-6.4.4-2 .9-3.1 1.1-2.4.2.6-.1 2.9-.6 5zm-298.4-1.5c-.3.7-.5.2-.5-1.2s.2-1.9.5-1.3c.2.7.2 1.9 0 2.5zm-411.8-.6c.2.2-4.4.4-10.2.4-9.8 0-10.7.2-10.7 1.9 0 2.5 1.5 3.6 7.5 5.4 4.8 1.5 4.8 1.6 1 1.1-2.2-.3-5.2-1-6.7-1.6-2.4-.9-2.8-1.6-2.8-5v-4l10.8.7c5.9.4 10.9.9 11.1 1.1zm520.1-.2c0 .2-3.4 3.2-7.5 6.6-4.2 3.5-9.1 8.4-11 11-3.1 4.2-3.3 4.9-2.5 8.6.5 2.1.9 4.8.9 5.9-.1 1.1-.7-.7-1.4-4-1.2-5.5-1.2-6.3.5-9 3.2-5.2 21-21.4 21-19.1zm-306.5 2.4c-.3.3-1.1 0-1.8-.7-.9-1-.8-1.1.6-.5 1 .3 1.5.9 1.2 1.2zM280 231c0 3.5 2.5 10.1 4.3 11.2 2 1.3 6.6.9 9.9-.8 1.6-.9 2.8-1.2 2.5-.7-.4.5-2.4 1.8-4.6 2.8-5.7 2.5-8.8 1.5-11.1-3.8-2.5-5.6-3.6-11.7-2.1-11.7.6 0 1.1 1.4 1.1 3zm309 .7c9.4 2.7 15.2 5.7 19 9.9 2.4 2.6 2.3 2.6-1.7-.4-5.5-4.3-11.6-6.9-22.4-9.6-4.9-1.3-9.2-2.6-9.6-2.9-.9-1 4.8.2 14.7 3zm136.5 1.4c2.2 1 2.9 1.6 1.6 1.3-3.7-1-8.8-3.3-7.1-3.3.8 0 3.3.9 5.5 2zm-9.4 1c5.9 2 5.2 2.7-1.1 1-8.5-2.2-9.5-1.4-9.3 7.5.1 6.8.1 6.8-1.4 4-1.7-3.2-1.3-9.7.7-12.1 1.5-1.8 6.4-1.9 11.1-.4zm-16 3c-.5 1.3-1 1.9-1 1.2-.1-1.5 1-4.5 1.5-4 .3.2 0 1.5-.5 2.8zm179.8 1.6c.6 2 .8 3.9.6 4.2-.3.2-.8-1-1.1-2.7-.6-3.1-.9-3.2-5.8-3.3-4.8-.2-4.9-.2-1.6-.9 6.4-1.4 6.8-1.2 7.9 2.7zM627 245.5c4.1.8 10.9 1.9 15 2.4l7.5.9-8-.4c-11-.7-20.3-2.2-23.4-3.8-1.4-.8-4.4-3.1-6.6-5.1l-4-3.6 6 4c4.5 3.1 7.9 4.5 13.5 5.6zM454.8 239c2.4 2.6 4.2 8.6 4.1 13.6l-.1 3.9-1-4.5c-2.1-10.1-2.9-12-5.6-13.4-1.9-1.1-2.2-1.5-1-1.6 1 0 2.6.9 3.6 2zm411.9-1.4c-.3.3-1.2.4-1.9.1-.8-.3-.5-.6.6-.6 1.1-.1 1.7.2 1.3.5zm-838.6 3.1c1.3 1.6 1.2 1.7-.3.4-1.7-1.3-2.2-2.1-1.4-2.1.2 0 1 .8 1.7 1.7zm282.2 3.2c3 3.6 5.1 11.9 4.3 16.5-.9 4.5-4.1 8.5-8.4 10.3-5 2.1-5 .9 0-1.8 2.8-1.6 5-3.7 6.2-6.3 1.6-3.4 1.7-4.4.7-9.1-.7-3-2.2-6.6-3.3-8-2.1-2.7-4.3-3-10.3-1-1.1.3-.4-.3 1.5-1.4 4.8-2.7 6.4-2.6 9.3.8zm14.5 6c6.4 3.3 16.3 6.1 26.7 7.7 10.8 1.6 13.1 2.4 6.9 2.4-4.8 0-18.9-3.2-26.4-5.8-11-4-14.9-6.2-16.6-9.5l-1.7-3.2 3.7 3.3c2 1.7 5.3 4 7.4 5.1zm192.8 1.8c-4.1 8.3-5.2 8.8-18.5 9-14.3.3-13.3-.5 2-1.5l11.3-.7 3.4-5.8c4.1-6.9 5.1-7.5 1.8-1zm398.1-2.2 2.8 2.5-2.8-1c-1.6-.5-4.5-1-6.5-1-4.8 0-2.8-1.9 3-2.9.4 0 2 1 3.5 2.4zM289 249c-.8.5-2.2.9-3 .9-1 0-.8-.3.5-.9 2.7-1.2 4.3-1.2 2.5 0zm414.5 6c-.3.6-1.6 1.5-2.8 2.1l-2.2 1 2.1-1.8c1.6-1.3 2-2.3 1.4-3.8-1.4-3.4-1-4.2.6-1.2.8 1.5 1.2 3.2.9 3.7zm-238.3 5.8c.9 1 2.6 1.3 6.3.9 3.8-.5 4.6-.4 3.2.4-1.1.6-3.5 1.1-5.4 1.2-4.6.1-7.3-3-7.2-8.2l.1-3.6.9 3.9c.5 2.2 1.5 4.6 2.1 5.4zm-426 4c4.4.3 4.8.1 6.3-2.7 2.1-4.1 2.9-4 1.2.1-1.3 3.2-1.5 3.3-8 3.6l-6.7.3.1-6.8.1-6.8 1.2 6 1.1 6 4.7.3zm284.8-9.6c1.1.6.8.7-.8.3-1.6-.5-2.8-.1-3.7 1.2-1.3 1.7-1.4 1.6-1.5-1 0-2.5.3-2.7 2.3-2.1 1.2.3 2.9 1.1 3.7 1.6zm199.8 9.3c0 1.1-.6-.2-1.4-2.9l-1.5-4.9-3.7 3.4c-3.3 3-3.4 3.1-1.1.4 1.5-1.7 3.3-4.1 4-5.5 1.3-2.5 1.3-2.4 2.5 2.5.7 2.7 1.2 5.9 1.2 7zm134.6-9.9c.9.8 1.5 2.7 1.5 4.2-.2 2.3-.2 2.3-.6.5-.5-2.8-2.5-4.4-6.6-5.3l-3.2-.8 3.7-.1c2.1-.1 4.3.6 5.2 1.5zm273.9 1.5c2.8 2.1 6 10.7 7.1 18.9.5 4.3.5 4.3-.5 1-4-14-5.1-16.8-7.1-18.7-1.3-1.2-3.2-2.3-4.3-2.6-1.9-.4-1.9-.5.1-.6 1.2 0 3.3.8 4.7 2zM59 262.6c3 3.1 5 5.5 4.5 5.3-1.1-.4-11.1-10.9-10.4-10.9.3 0 2.9 2.5 5.9 5.6zm468.7.6c-.3.7-.5.2-.5-1.2s.2-1.9.5-1.3c.2.7.2 1.9 0 2.5zm288.3-2.8c0 .2-.8 1-1.7 1.7-1.6 1.3-1.7 1.2-.4-.4 1.3-1.6 2.1-2.1 2.1-1.3zM667 272c1.3.8 1.3 1-.1 1-2.2 0-2.9-2.1-2.8-7.8l.2-4.7.6 5.3c.4 3 1.3 5.7 2.1 6.2zm30.5-6.4c-6.5 6.8-13.3 17.5-16 25.2-1.9 5.2-2.3 5.8-1.8 2.7.9-6 1.9-8.2 7.9-17.2 5.9-8.9 11.5-15.3 13.3-15.3.6 0-.9 2.1-3.4 4.6zm-319.8-1.3c1.3.7 3.7 3.7 5.6 6.7 1.8 3 3.6 6.1 4 6.7.5.7.6 1.3.4 1.3-.3 0-2.3-2.9-4.6-6.4-2.3-3.5-5-6.7-5.9-7.1-.9-.4-5.3-1.1-9.7-1.5l-8-.7 8-.1c4.7-.1 8.9.4 10.2 1.1zm120.3.7c-9.7 1.2-24.2 1.9-23.5 1.1.9-.9 11.5-1.8 21.5-1.8h8.5l-6.5.7zm191.4 2.5c-1.4 1.9-2.9 3.5-3.1 3.5-.5 0 .7-1.8 3.6-5.3 2.6-3.1 2.3-1.8-.5 1.8zM389.3 272c5.2 7.8 7.7 9.1 12.6 6.6 1.7-.9 3.1-1.4 3.1-1.1 0 .2-1.9 1.4-4.2 2.6l-4.2 2.2-4.1-4.5c-3.6-4-9.2-12.8-8.2-12.8.2 0 2.5 3.1 5 7zm76.9 1.3c.3 15.1-.8 23.3-3.5 25.5-.7.5-2.8 1.3-4.7 1.6-3.5.7-3.5.7.8-1.3 2.6-1.2 4.6-3 5.2-4.6.6-1.5 1-7.7 1-13.8 0-8.8-.4-11.8-1.6-13.6-1.6-2.2-1.6-2.3.5-1.2 1.8 1 2.1 2.2 2.3 7.4zm62.5-6.1c-.3.8-.6.5-.6-.6-.1-1.1.2-1.7.5-1.3.3.3.4 1.2.1 1.9zm-213.2 2.1c-.9 1.4-2.3 2.8-3.2 3.1-.8.4-.2-.9 1.3-2.7 3.3-3.9 4.3-4.1 1.9-.4zm155.5.4c0 2.2-.2 2.5-1 1.3-1.3-2-1.3-4 0-4 .6 0 1 1.2 1 2.7zm56.9 15.8c-.1 1.1-.9-1.8-2-6.5-1-4.7-1.8-9.4-1.8-10.5.1-1.1.9 1.8 2 6.5 1 4.7 1.8 9.4 1.8 10.5zm146.4-11.8c-.7.2-2.1.2-3 0-1-.3-.4-.5 1.2-.5 1.7 0 2.4.2 1.8.5zm-370.4 3.2-2.3 1.8 1.6 8.9c.8 4.9 1.4 9.1 1.2 9.2-.6.7-2.5-7.4-3.1-13-.7-6.8-.1-8.8 2.8-8.8 2.1 0 2.1 0-.2 1.9zm378.5.6c-1.5 2.3-3.4 2.6-3.4.4 0-.6.4-.8.9-.5.5.3 1.4-.1 2.1-.9 2-2.4 2.2-1.7.4 1zM71.1 281c.7 0 1 .2.7.5-1.1 1.2-6.8-1.8-6.8-3.6 0-1.6.3-1.5 2.5.6 1.3 1.4 3 2.5 3.6 2.5zm604.3-1.8c2.7 3.8 1.9 10.9-2.5 24.6-3.5 10.7-9.1 23.2-10.4 23.2-.2 0 1.2-3.3 3-7.3 4.6-9.9 8.2-21 9.7-29.5 1-6.1 1-7.3-.5-9.5-1.1-1.7-2.8-2.7-4.9-3l-3.3-.4 3.7-.1c2.8-.2 4.1.3 5.2 2zm-254.5 3.6c3.3 2.4 3.6 4.8 1.7 10.9l-1.6 4.8.7-4.5c.9-6.5.6-8.3-1.7-10.2-3.7-3-10.1-3.3-15.1-.8-4.7 2.4-4.7 1.9-.2-1.2 3.6-2.3 12.5-1.8 16.2 1zm7 1.6c-.3.3-1.1-.5-1.8-1.7-1.3-2.1-1.2-2.1.5-.5 1 1 1.6 2 1.3 2.2zm369.2 2.8c-.3 2.1-.6 2.6-.9 1.5-.3-1.7.3-4.7 1.1-4.7.2 0 .1 1.5-.2 3.2zm-260.2 14.6c.7 1.3 2.7 3 4.4 3.8l3.2 1.5-3.4-.6c-5.1-.8-7.3-4.9-8.5-16-.6-4.5-.4-4.4 1.2 2 1 3.8 2.4 8 3.1 9.3zm-8.2-11.6c-.3.8-.6.5-.6-.6-.1-1.1.2-1.7.5-1.3.3.3.4 1.2.1 1.9zm424.2 1.6c-.6 1.8-1.5 3.2-2 3.2s-.5-.7 0-1.8c.5-.9 1.2-2.6 1.6-3.6.3-1 .8-1.7 1-1.4.3.3 0 1.9-.6 3.6zm14-2.4c1.2 1.5 3.3 7.6 2.5 7.6-.2 0-1-1.5-1.8-3.4-1.2-2.9-2.2-3.6-5.8-4.4l-4.3-1 4.1-.1c2.5-.1 4.6.5 5.3 1.3zm-862.2 9.2c-.8.8-17.7-8-17.7-9.2 0-.2 4.1 1.6 9.1 4.2 5 2.5 8.9 4.8 8.6 5zm197 6c.5 5.4.3 6.3-1.4 7.2-1.2.7-2.5.7-3.4.1-1.1-.7-.9-.9.9-.9 3.2 0 3.7-2.2 2.3-9.9-2.1-11.4-2.1-11.7-.5-7.1.8 2.5 1.8 7.3 2.1 10.6zm495 9.6c-.1 4.6-.3 1.1-.3-7.7s.2-12.5.3-8.3c.2 4.2.2 11.4 0 16zM426 300c-.7 2.8-1.5 4.9-1.7 4.6-.3-.3 0-2.8.7-5.6s1.5-4.9 1.7-4.6c.3.3 0 2.8-.7 5.6zm577.1 4.7c5.6 6.1 7.9 10.6 7.9 15.6 0 9.1-2.6 10.5-11.7 6.2-7.2-3.3-6.7-3.9.7-.9 7.5 3 8.8 3 9.6-.2 2.1-8.3-7.7-25.1-13.3-23-1.3.5-1.4.4-.3-.9 1.5-1.8 3.3-.9 7.1 3.2zM115 308.8c0 .3-.9-.3-2-1.3-1-.9-2.6-1.5-3.5-1.2-1.1.5-1.5 0-1.5-1.7 0-2.4 0-2.4 3.5.7 1.9 1.7 3.5 3.3 3.5 3.5zm342-3c-3.6 1.8-4.1 3.2-2.6 8.2.6 2.3.6 2.3-.9-.3-2.3-4-1.6-8 1.5-8.8 4.6-1.3 5.5-.9 2 .9zm532.3-1.1c-.7.2-2.1.2-3 0-1-.3-.4-.5 1.2-.5 1.7 0 2.4.2 1.8.5zm-455.5 2.8c-.3.3-.9-.2-1.2-1.2-.6-1.4-.5-1.5.5-.6.7.7 1 1.5.7 1.8zm-92.3 11.2c3.3 2.2 6.8 4.3 7.9 4.7 1.6.6 1.8.2 1.3-2.6-.3-1.8-.8-4.2-1.1-5.3-.4-1.1.3 0 1.5 2.3 2.3 4.8 2 7.2-.9 7.2-2.3 0-13.9-8.1-20.2-14l-4.5-4.2 5 4c2.8 2.1 7.7 5.7 11 7.9zm6.2-9.5c-.3.8-.6.5-.6-.6-.1-1.1.2-1.7.5-1.3.3.3.4 1.2.1 1.9zm-143.1 4.6c-1.5 1.5-1.5 1.5-.4-1 .7-1.5 1.5-2.3 1.7-1.7.2.6-.4 1.8-1.3 2.7zm243-1.4c.7.6 1.5 2.7 1.9 4.6.4 2.6.3 3.1-.4 2-.6-.8-1.1-2.5-1.1-3.8 0-1.2-.6-2.4-1.2-2.6-.7-.2-2.9-.9-4.8-1.4l-3.5-1.1 4 .6c2.2.3 4.5 1 5.1 1.7zm-428 6.2c1.5.4 7.7.4 13.8.2 7.2-.4 9.3-.3 6.1.2-7.2 1.2-18.9 1.2-21.9 0-1.8-.6-2.6-1.7-2.5-3.2v-2.3l.9 2.2c.5 1.2 2.1 2.5 3.6 2.9zm174.9-2c-.6.1-2.2.5-3.6.8-1.7.4-3.8 2.3-5.8 5.3-3.8 5.8-4.1 4.9-.5-1.4 2.8-4.7 5.5-6.4 8.8-5.5 1.1.3 1.6.7 1.1.8zm141.8 4.2c3.1 2.5 5.7 4.7 5.7 4.9 0 .6-8-5.1-11.5-8.2-4.4-3.9-.9-1.8 5.8 3.3zm-156.4 1.9c-3.9 7-5.8 9.3-7.6 9.3-.7 0-1.3-.2-1.3-.4s-.3-1.3-.6-2.3c-.5-1.7-.5-1.7.6 0 1.5 2.4 3 1.2 7.6-6.4 4.6-7.6 5.5-7.7 1.3-.2zM986 320c1.8 1.2.2 1.2-2.5 0-1.3-.6-1.5-.9-.5-.9.8 0 2.2.4 3 .9zm41.3.6c10.2 2.6 24.1 8.5 26.6 11.2 2.1 2.3 2.3 3.2 1.7 8.4-.3 3.2-1.2 7.1-2 8.6-1.9 3.6-10.7 12-18.1 17.1l-6 4.2 5-4.2c2.8-2.4 8-7.3 11.6-10.9 6-5.8 6.8-7.1 7.9-12.2 2-10-.4-12.3-19.9-18.8-5.2-1.7-11.2-3.2-13.4-3.3-3.7-.2-4.1.1-5.4 3.3-.8 2.1-1.1 2.5-.8 1 .2-1.4.5-3.3.5-4.3 0-2.2 4-2.3 12.3-.1zm-44.1 3c6.3 2.2 17.1 7.2 15.7 7.4-.3 0-5-1.8-10.5-4-12.3-5.1-17.7-6-20.4-3.5-2 1.8-2.7 6.9-1.2 9.1.4.7 2.3 1.9 4.2 2.8 3.4 1.5 3.4 1.5.5.9-7.2-1.3-9.2-5.1-5.9-11.4 2.7-5.4 5.5-5.6 17.6-1.3zm-719.9-1.9c-.7.2-1.9.2-2.5 0-.7-.3-.2-.5 1.2-.5s1.9.2 1.3.5zm293.9 5.6c1.3.8 4.2 1.8 6.6 2.2 2.4.4 4.1.9 3.9 1.2-.3.2-3.1 0-6.4-.6-6-1.1-8.3-3-8.2-6.5 0-2 .1-2 .9.1.5 1.2 1.9 2.8 3.2 3.6zm109.2 2.9c-4.3 8.9-4 11.5 1.9 17.7l4.2 4.5-4.5-3.9c-5.7-4.9-6-5.3-6-9.4 0-2.9 6.1-16.1 7.5-16.1.2 0-1.2 3.3-3.1 7.2zm-426.2-2.4c6.4-3.4 7.2-3.1 1.6.5-4.9 3.1-7.9 3.4-10 .9-3.1-3.5-3-4.6.1-1.7l3.2 3 5.1-2.7zm23.7-1.9c1.7 1.1 6.1 10.1 4.9 10.1-.4 0-1.8-2-3-4.5s-3-4.7-3.9-5c-2.6-.8-9.5 1.2-15.8 4.6-7.2 3.8-7.5 3.2-.6-1 7.4-4.5 15.1-6.3 18.4-4.2zm-38.1 1.7c3.5 2.5 2.5 3.4-1.5 1.3-2.1-1-4.8-1.9-6.1-1.9-4.4 0-9 2.9-10.6 6.8-1.3 3.3-1.5 3.4-1.5 1.2-.1-3.6 2.4-6.8 6.2-7.9 5-1.4 11-1.2 13.5.5zm221.1 3.2c0 1.5-.5 3.6-1 4.7-.7 1.5-.8 1-.3-1.9.4-2.8.1-4.3-1.3-5.8-1.8-2.1-1.8-2.1.5-.9 1.5.8 2.2 2 2.1 3.9zm7.3-2.2c-1.2.8-2.6 2.9-3.2 4.7l-1 3.2.5-3.5c.5-3.1 4.2-7.6 5.4-6.4.3.2-.5 1.1-1.7 2zm506.5-.4c-.3.8-.6.5-.6-.6-.1-1.1.2-1.7.5-1.3.3.3.4 1.2.1 1.9zm-822.9 3.5c-5.9 2.4-5.1 3.7 3.6 5.9 4.5 1.2 4.6 1.3 1.1.9-2.2-.3-5.2-.5-6.7-.5-2.4 0-2.8-.4-2.8-2.9 0-2.3.6-3.2 2.8-3.9 4.4-1.7 6.1-1.2 2 .5zm874.2-.2c-.7.8-1.7 1.5-2.3 1.5-.6 0-.2-.7.9-1.5 2.5-1.9 3-1.9 1.4 0zm-446.1 3.1c.9.8-6.5.2-8.4-.6-1.3-.6-.2-.7 3-.3 2.8.3 5.2.7 5.4.9zm247.5 11.7c3.3 4.3 10.3 12.3 15.6 17.6 10.3 10.3 10.8 11.2 12.6 24.3 1.1 8.1-.3 5.3-2.1-4.5l-1.8-9.2-11.7-12c-7.9-8-13.7-15-17.4-21-5.8-9.3-5.2-8.7 4.8 4.8zm-612.3-4.9c-.7 1.6-2.5 3.3-4.6 4.1-3.7 1.6-14.6 1.9-21 .6-3-.7-1.1-.9 8-1 13.8-.1 15.8-.9 17.1-6.8.5-2.7.9-3.2 1.1-1.7.2 1.1-.1 3.3-.6 4.8zm373.7-4.1c2 2.1 5 12.3 3.9 13.3-.3.3-.8-1.2-1.2-3.4-.8-4.9-3.9-10-6.8-11.2-2.1-.8-2.1-.9-.1-.9 1.1-.1 3 .9 4.2 2.2zm-125.7 7.2-.9 4-.1-3.5c0-1.9.2-4.6.6-6 1.2-4.1 1.6.7.4 5.5zm208.6-4.3c-.3.8-.6.5-.6-.6-.1-1.1.2-1.7.5-1.3.3.3.4 1.2.1 1.9zm320.1 1.8c1 0 3.2 7.6 3.2 11.2 0 8.4-1.7 11.9-8.6 18.3-6.1 5.6-6.6 6.4-7.4 11.5l-.8 5.5-.1-5.4-.1-5.4 6.4-5.9c8.9-8.2 11.6-15.9 8.5-24.6-.9-2.8-5.8-6.2-8.7-6.2-.6 0-1.3-.4-1.7-1-.3-.5 1.6-.3 4.2.5s4.9 1.5 5.1 1.5zM168 344c1.3.9 1.3 1 0 1-.8 0-2.2-.5-3-1-1.3-.9-1.3-1 0-1 .8 0 2.2.5 3 1zm419.3 14.8c1.9 1.8 6.6 2.1 16.2 1 4.3-.5 5.3-.4 3.6.3-4.1 1.7-16.5 2.3-19 1-2.8-1.5-4.7-5.9-5.5-12.6-.6-4.7-.5-4.6 1.2 1.8 1 3.7 2.6 7.5 3.5 8.5zM985 348.4c0 2.6-.6 1.8-1.4-1.9-.5-2.2-.4-2.6.4-1.5.5.8 1 2.4 1 3.4zm-542.7 10.9c-3.5 6.5-14.5 17.5-20.5 20.4-4.8 2.4-12.5 2.9-20.3 1.4-2.9-.6-1.2-.8 6.5-.7 9.7.1 10.9-.1 15-2.6 5-2.9 13.2-11.1 17.4-17.4 1.8-2.8 3-6.2 3.4-10l.7-5.9.3 4.8c.2 3.7-.3 5.9-2.5 10zm-270.8-10.2c2.5.7 2.2.8-1.7.5-3.7-.3-5.5.2-8.2 2-4.4 3-5.6 5.2-5.6 10.3 0 5.7.8 7.1 5.4 9.2 2.3 1 3 1.6 1.6 1.3-6.8-1.7-7.5-2.5-7.8-9.5l-.3-6.7 4.3-4.1c4.4-4.2 6.4-4.7 12.3-3zm498 7.4c.3 1.1.1 3.3-.4 5-.9 3-.9 3-1-1.1-.1-2.6-1-5.2-2.6-7.4-1.4-1.9-2.5-3.6-2.5-3.9 0-1.3 6.1 5.6 6.5 7.4zm-474.8-5.9c-.3.3-1.2.4-1.9.1-.8-.3-.5-.6.6-.6 1.1-.1 1.7.2 1.3.5zm790 9.1c-.3 1-.5.4-.5-1.2 0-1.7.2-2.4.5-1.8.2.7.2 2.1 0 3zM836.5 387c2.8 12.5 5.6 29.7 5.4 33.2-.1 1.3-.7-1.5-1.5-6.2-5.2-32.4-6.2-35.6-14.8-44.8-11.3-12.2-11.8-13.5-1.3-3.2l9.7 9.5 2.5 11.5zm-207-27c.3.6-.1.7-.9.4-1.8-.7-2.1-1.4-.7-1.4.6 0 1.3.4 1.6 1zm-2.2 4.1c3 2.3 5.8 10.2 5.6 15.8-.1 2.8-.5 2-1.5-3.3-2.5-12.5-5.2-14.4-18.2-12.6-9.5 1.2-12.2.7-4-.8 9.4-1.7 15.2-1.4 18.1.9zm-183.4 1.1c-1.7 3.1-12.8 14.2-15.9 15.8-2.9 1.5-2.3.8 4.3-4.4 2.7-2.1 6.5-6.1 8.5-8.7 3.9-5.3 5-6.2 3.1-2.7zm228.7 4.6c-1.1 1-1.4-.3-.8-3.3l.7-3 .3 2.8c.2 1.6.1 3.1-.2 3.5zm301.7 6.4c-3.9 4-4.2 4.7-4.6 10.8l-.3 6.5-.2-7.2-.2-7.1 4.2-3.6c5.6-4.9 6.1-4.5 1.1.6zm-295.1 2.7c4.7 3.7 12 20.5 11.7 27-.1 1.4-.9-.6-1.8-4.4-2.3-9.5-5.6-16-10.4-20.7-4.1-4-3.8-5.2.5-1.9zM403 385c3.3.6 2 .7-4.5.3-14.8-.7-17.5 1.7-23.2 21.2-3.8 13.1-4.4 12-.8-1.5 3-10.8 6.4-17.3 10.3-19.4 3-1.7 11.2-1.9 18.2-.6zm228 4.1c-.7 1.6-1.9 2.9-2.7 2.9-1.2 0-1.2-.3.1-1.6.9-.8 1.9-2.7 2.3-4.2.3-1.5.8-2.1 1.1-1.4.2.7-.1 2.6-.8 4.3zm-217.3-2.5c-.3.3-1.2.4-1.9.1-.8-.3-.5-.6.6-.6 1.1-.1 1.7.2 1.3.5zM176 388c-.8.5-2.4 1-3.5 1s-2.7.4-3.5 1c-2.1 1.3 1.1 4.6 5.8 5.8 3 .8 3.2 1 1.2 1.1-4.2.1-6.4-.9-7.7-3.6-1.6-3.3-.3-5 4-5.6 1.8-.2 3.7-.4 4.2-.5.6-.1.3.3-.5.8zm840.1 1.7c-1.2 2-1.4 1.4-.5-1.2.4-.9.9-1.4 1.1-1.1.3.2 0 1.3-.6 2.3zm-50 6.9c.1 7.9-2.4 15.6-10.2 32.2-8.4 18-16.9 27.8-26.2 30.3-4.4 1.2-5.3.7-6.2-3.6l-.6-3 1.5 3.2c1.4 3 1.7 3.1 4.7 2.3 9.1-2.6 16.9-11.8 25.5-29.5 7.1-14.9 9.6-22.5 10.2-31.8.6-9.4 1.2-9.5 1.3-.1zm-123.4-.4c-.3.8-.6.5-.6-.6-.1-1.1.2-1.7.5-1.3.3.3.4 1.2.1 1.9zM625 397.3c-1.3.7-2.7 2.3-3.1 3.7l-.7 2.5-.1-2.6c-.1-3 1.6-4.9 4.4-4.9 1.8 0 1.8.1-.5 1.3zm384.1 12.7c-2.4 6.9-5 12.4-6.6 13.9-2.3 2.4-2.3 2.1.9-3.9 1.9-3.6 4.6-10 6.1-14.3 1.5-4.3 3-7.6 3.2-7.4.2.2-1.4 5.5-3.6 11.7zm-393.3-3.5c-.7.7-3.3 1.6-5.8 1.9-4.8.6-4.7.5 3.8-2 .8-.2 1.7-1.4 2-2.7.5-1.9.7-2 1-.3.2 1-.2 2.4-1 3.1zm82.4 3.1c2.8 2.8 19.9 1.9 38.8-2.1 1.4-.3.7.2-1.5 1-2.2.9-9.8 2.3-17 3.2-18.2 2.3-22.8 1.1-23.9-6.2l-.6-4 1.2 3.2c.7 1.8 2.1 4 3 4.9zm-329.7 5.1c-4.4 16.8-8.1 21.9-16.5 23-3.7.5-19.7-2.4-18.7-3.4.3-.2 2.4.1 4.7.7 2.3.6 7.1 1.1 10.7 1.1 10.8 0 13.2-2.8 18.4-20.7 1.8-6.2 3.5-11.2 3.7-11 .2.2-.8 4.8-2.3 10.3zm-183-4.8c-.4 1.7-1 3.3-1.4 3.6-.5.2-.3-1.3.2-3.5 1.3-4.6 2.2-4.6 1.2-.1zm579.2-1.3c1.5 1.5 2.1 2.2 1.2 1.6-.8-.7-3.1-1.8-5-2.6-2.7-1.2-2.9-1.5-1.2-1.6 1.2 0 3.5 1.2 5 2.6zm80 .6c-.3.7-.5.2-.5-1.2s.2-1.9.5-1.3c.2.7.2 1.9 0 2.5zm121.4 7.4c-2.5 6.3-6.3 14-4.9 9.9 1.7-5 7.2-18.4 7.5-18.1.2.2-1 3.9-2.6 8.2zm-205.3-5.2c1.8.9 3.6 3 4.5 5.4 1.8 4.6 3.7 17.4 3.6 24-.1 2.8-.7-.1-1.5-7.1-1.5-13.5-4-20.2-7.9-21.7-3.8-1.5-14.2-1.2-20.5.5-3 .8-6.2 1.4-7 1.4-.8-.1 2.3-1.2 7-2.5 9.4-2.6 16.8-2.6 21.8 0zm-151.5 1.8c-2.4.5-4.3 1.3-4.3 1.7 0 .4.9 3.4 2 6.6 2.6 7.7 1.9 8.2-.9.7-3.3-9.1-2.9-10.1 3.9-10 3.5 0 3.5 0-.7 1zm86.3 1.6c-.4.3-1.4-.2-2.4-1.2-1.6-1.8-1.6-1.8.6-.6 1.3.6 2.1 1.4 1.8 1.8zm150.1 2.4c-.3.7-.5.2-.5-1.2s.2-1.9.5-1.3c.2.7.2 1.9 0 2.5zm-241.6 9.5c1.2 3.8 2.4 7.4 2.7 8 .3.9-.6 1.3-2.9 1.2-2.4-.1-2.7-.3-1.1-.6 2.7-.5 2.8-1.8.2-8.5-2-5.3-2.4-6.8-1.6-6.8.2 0 1.4 3 2.7 6.7zm242.6-2c-.3 1-.5.2-.5-1.7s.2-2.7.5-1.8c.2 1 .2 2.6 0 3.5zm-673.5-.1c-5.1 4.3-5.4 7.1-1.4 13.5 4 6.2 4.7 7.6 3.5 6.4-1.8-1.8-8.3-11.7-8.3-12.7 0-1.9 3.1-6.7 5.6-8.7 4.5-3.6 5-2.3.6 1.5zm196.9.1c-1.2 2-1.4 1.4-.5-1.2.4-.9.9-1.4 1.1-1.1.3.2 0 1.3-.6 2.3zm474.8 16c.1 1.3-.5 2.3-1.1 2.3-1 0-1.3-2.8-1.4-10.3l-.1-10.2 1.3 8c.7 4.4 1.3 9 1.3 10.2zm17.4-14c-.7.2-2.1.2-3 0-1-.3-.4-.5 1.2-.5 1.7 0 2.4.2 1.8.5zM849.6 437c.5 1.1 1 .7 2-1.5l1.4-3-.6 3.5c-.3 1.9-1.1 4.1-1.7 4.8-1.6 2-2.4-.1-3-7.8-.5-5.8-.5-6 .3-2 .6 2.5 1.3 5.2 1.6 6zm108.5-2.4c-1.6 3.3-3.6 6.8-4.5 7.9-.9 1.1.3-1.7 2.7-6.2 2.3-4.5 4.3-8 4.5-7.8.2.2-1 2.9-2.7 6.1zm-640.8-3.9c-.7.2-1.9.2-2.5 0-.7-.3-.2-.5 1.2-.5s1.9.2 1.3.5zm551.1 1.9c1.9.9 3.9 2.9 4.6 4.3l1.2 2.6-2.9-2.6c-6.8-6.4-14.1-6.6-14.4-.5 0 1.2-.3 1.5-.6.8s-.2-2.4.1-3.7c.5-2.1 1.2-2.5 4.6-2.5 2.2 0 5.5.7 7.4 1.6zM366 433.9c-.7 1.5-.6 2.3.6 3.5 1.8 1.9 1.1 2.1-1.5.4-1.7-1.1-1.8-1.4-.4-3.5 1.8-2.8 2.8-3.1 1.3-.4zm-85-.2c-.8.3-2.2 1.1-3 1.7-1.3 1-1.3.9-.1-.7.7-.9 2.1-1.7 3-1.6 1.3 0 1.4.1.1.6zm10.3 0c-.7.2-1.9.2-2.5 0-.7-.3-.2-.5 1.2-.5s1.9.2 1.3.5zm25.7.8c8.6 1.5 18.8 4.3 16 4.4-.8 0-6.4-1-12.4-2.3-6-1.3-11.5-2.2-12.3-1.9-.7.3-1.3 0-1.3-.6 0-1.4-.2-1.4 10 .4zm565.6 4.2c-.8.8-5.6-1.8-6.5-3.6-1-1.7-.6-1.7 2.9.6 2.2 1.5 3.8 2.8 3.6 3zM303 435.2c0 1-4.6.9-8-.2-1.8-.5-1-.7 2.7-.6 2.9.1 5.3.4 5.3.8zm472.9 14.5c1.7 3.3 3.9 4.5 10.4 5.9l6.2 1.3-6.5-.6c-9.7-.8-12.8-4.5-13.5-16.1l-.5-6.7 1.4 7.2c.8 3.9 1.9 8 2.5 9zm-482.4-11.2 4 1.3-4.5-.4c-2.5-.3-5.5-.7-6.6-1-3.8-.7-4.8 1.8-3 7.8.8 2.9 1.4 5.4 1.2 5.6-.7.6-3.6-9.2-3.6-12 0-2.6.2-2.8 4.3-2.7 2.3 0 6 .7 8.2 1.4zm70.2 2.9s-2.9.2-6.5.2c-5.3.1-5.9 0-2.9-.6 2-.4 4-1 4.3-1.3.5-.5 3.4.5 5.1 1.7zm239.6-.4c-1.8.7-2.3 1.8-2.4 4.7l-.1 3.8-.9-3.5c-1.1-4.7-.5-6 2.8-5.9 2.7 0 2.7.1.6.9zm304.9 5.6c2.5-.5 2.8-.4 1.3.3-4.1 1.9-6.2 1.2-9-3.2l-2.7-4.2 3.5 3.8c3.2 3.4 4 3.8 6.9 3.3zm87.4 1.5c-.9 8.9-1.1 9.4-4.4 10.8l-2.7 1.2 2.3-1.9c1.9-1.5 2.6-3.5 3.5-9.5.6-4.2 1.3-7.7 1.5-7.7.3 0 .1 3.2-.2 7.1zm-623.2 4.4c1 4.2 1.6 7.8 1.4 8.1-.3.2-1.1-2.2-1.8-5.3-1.5-6.9-2.5-9.2-5.4-11.6-2.1-1.8-2-1.8.9-.3 2.7 1.3 3.3 2.3 4.9 9.1zm522.7-9.3c.8.7 2.8 3.1 4.3 5.3l2.7 4-4-4.5c-4-4.4-4.3-4.5-11.3-5.1l-7.3-.6 7.1-.1c4.4-.1 7.6.3 8.5 1zM920 445c.8.5 1.1 1 .5 1-.5 0-1.7-.5-2.5-1s-1-1-.5-1c.6 0 1.7.5 2.5 1zm-323 5.1c0 .9-.9 2.7-2.1 4-1.9 2.3-2 2.3-1 .2.6-1.2 1.1-3.7 1.1-5.5 0-2.5.3-2.9 1-1.8.5.8 1 2.2 1 3.1zm248-2.9c-4.3 1.2-6.4 3-8 6.9-.7 1.6-1.5 2.8-1.7 2.6-.2-.3.4-2.3 1.3-4.6 1.6-4.1 4.6-5.9 9.9-5.9 1.1 0 .4.4-1.5 1zm-465.1 14.1c.6.6 5.5 1.4 10.8 1.7l9.8.7-10.9-.1-11-.1-1.8-7c-.9-3.9-1.7-7.7-1.7-8.5.1-.8.9 1.6 1.9 5.4 1 3.7 2.3 7.3 2.9 7.9zM918 450c0 .5-1.9 1-4.2.9-3.7-.1-3.9-.2-1.8-.9 3.6-1.2 6-1.2 6 0zm-632.4 17.9c2.9 11.2 3.2 22.6.8 27.7-.9 1.9-1.8 3.3-1.9 3.2-.2-.2.4-3.1 1.3-6.5 1.4-5.3 1.4-7.3.4-14.5-.6-4.6-2.3-11.9-3.7-16.3-1.4-4.4-2.4-8.5-2.4-9 .1-2.2 3.3 6.5 5.5 15.4zm634.1-10.7c-.3.7-.5.2-.5-1.2s.2-1.9.5-1.3c.2.7.2 1.9 0 2.5zm-321.3 2c-1.9 5.2-1.4 11 2.1 26.7 1.4 6.2 2.4 11.6 2.1 11.8-.2.2-1.7-4.9-3.2-11.4-3.2-13.3-3.9-26.8-1.5-29.6 2.1-2.6 2.2-2.1.5 2.5zm232.6-2.3c0 2.4-3.3 4.2-6.4 3.5-5.3-1.1-6.5-2.4-1.6-1.8 3.5.5 4.9.2 5.9-1 1.5-1.8 2.1-2 2.1-.7zm105.8 4.2c-1.6 1.1-2.8 2.7-2.8 3.5 0 1.8 9.8 27 13.9 35.6 2 4.2 4.8 8.1 7.4 10.4 3.6 3.1 3.7 3.4 1.2 2.1-5.3-2.7-7.2-5.9-15.4-25.8-10.3-25.1-10-24.1-5.9-26.1 4.4-2.2 4.8-2.1 1.6.3zm-142.3 2c2 1.8 4.1 4.1 4.7 5.3.6 1.1-.8.2-3.1-2.1-2.6-2.7-5.3-4.4-7.3-4.7-1.8-.3-4.4-.7-5.8-.9-1.4-.3-.2-.5 2.7-.6 4.5-.1 5.7.3 8.8 3zm-419.8 1.1c-.3.8-.6.5-.6-.6-.1-1.1.2-1.7.5-1.3.3.3.4 1.2.1 1.9zm433.2 2.7c.5-1.3 1-1.9 1-1.2.2 2.1-1.1 4.3-2.4 4.3-.7 0-2.8-1.9-4.6-4.3l-3.3-4.2 4.2 3.9 4.1 3.9 1-2.4zm12.6-3.8c1.5.7 1.3.8-1.2.3l-3.1-.5-.7 6.8c-.9 9.8-1.3 9.9-1.4.5-.1-7.9 0-8.2 2.2-8.1 1.2 0 3.1.5 4.2 1zm-629.9 14.2c.9 1.2 4.5 4.8 7.8 8.1 3.4 3.2 4.7 4.9 2.9 3.7-9.1-6.1-15.2-14.6-16.7-23.1-.4-2.3.2-1.3 1.8 2.8 1.3 3.5 3.2 7.3 4.2 8.5zm743.4 1.4c3.5 8.7 7 17.4 7.8 19.3.8 1.9 1 3 .4 2.5-.5-.6-2.1-4.2-3.6-8-6.3-16-11.8-27.3-13.9-28.3-2.2-1-2.1-1.1.4-1.1 2.3-.1 3 1 8.9 15.6zm-527-10.3c0 2.6-.6 1.8-1.4-1.9-.5-2.2-.4-2.6.4-1.5.5.8 1 2.4 1 3.4zm579.4 6.5c-1.6 1.5-1.6 1.5-1-.4.4-1.1 1-3.4 1.4-5l.7-3 .3 3.4c.2 2.2-.2 3.9-1.4 5zm-583.7-4.7c-.3.8-.6.5-.6-.6-.1-1.1.2-1.7.5-1.3.3.3.4 1.2.1 1.9zm11.3 18.3c4.1 5.9 3.8 6.8-.5 1.4-3.5-4.4-4.9-7.9-5.9-15.4-.4-2.6.1-1.6 1.4 2.9 1.1 3.7 3.4 8.8 5 11.1zm395.9-7.4c-.6 6.5-1.5 9.7-4.8 16.5-4 8.3-6.7 11.9-3.5 4.6 5.5-12.4 6.8-16.3 7.2-21.5.3-4.4.1-5.7-.9-5.7-1.1 0-1.1-.2.1-1 .8-.5 1.7-1 2-1 .3 0 .3 3.6-.1 8.1zm-406.2-4.9c-.3.8-.6.5-.6-.6-.1-1.1.2-1.7.5-1.3.3.3.4 1.2.1 1.9zm-112 3.5c-.3 1-.5.4-.5-1.2 0-1.7.2-2.4.5-1.8.2.7.2 2.1 0 3zm113 .5c-.3.8-.6.5-.6-.6-.1-1.1.2-1.7.5-1.3.3.3.4 1.2.1 1.9zm7.1 13.2 3.2 4.4v13.3c0 7.3-.3 12.9-.7 12.5-.5-.4-1-6.7-1.3-13.9-.4-11.6-.8-13.6-2.7-16.4-2.1-2.9-2.8-4.3-2-4.3.2 0 1.8 2 3.5 4.4zm569.3 7.7c-1.3 4.3-7 8.9-14.2 11.4-6.4 2.3-6 1.7 1.6-2.1 9.9-4.9 10.8-6.1 11.4-14.1.4-6.7.5-6.7 1.4-2.9.7 2.6.6 5-.2 7.7zm-379.7 15.4c.1 7.3-.3 9.6-1.8 12.2-1.1 1.8-2.6 3.5-3.4 3.8-.8.3-.5-.5.7-2.1 3.7-4.6 4.6-12.1 2.8-22.1-2.7-14.3-2.8-16.3-.6-8.3 1.4 4.8 2.2 10.8 2.3 16.5zm-178.6 4.6c2 .1 4.8.5 6.2.9 2.2.7 2.3.8.4.9-1.2.1-4.2-.2-6.8-.5l-4.6-.7.2-12.1.2-12.1.3 11.7.4 11.8 3.7.1zm-211.4-19.8c2.5 1 1.3 2.1-1.3 1.2-1.2-.3-2.1-1.4-2.1-2.3 0-1 .3-1.3.8-.6.4.6 1.6 1.4 2.6 1.7zm76.6 1.2c-.7 1.9-.6 3.6.5 6.1.8 1.9 1.1 3.2.6 3-2-1.3-3.4-6.7-2.3-9.1 1.5-3.3 2.4-3.2 1.2 0zm512.5 14.9c-11.1 23.3-11.9 25.9-11.1 38.6.4 5.8.8 12.1 1.1 14 .2 1.9-.2.6-1.1-3-2.5-11.1-2.1-21.3 1.1-30 3-8.2 16.5-36.3 17.1-35.7.2.2-3 7.5-7.1 16.1zm-543.5-12c0 .2-1.1.6-2.5.8-1.3.3-2.2.1-1.9-.3.5-.9 4.4-1.3 4.4-.5zm1.4 6.2c.9 2.3.1 2.8-1.4.9-1.9-2.3-4.3-1.8-10.6 2.4-6.4 4.2-9.4 7.7-11.8 13.6-3.5 8.2-1.8 12.4 8.6 22 6.4 5.9 6.7 6.3 2.4 3.4-6.2-4.3-12.2-11.1-13.6-15.4-1-2.9-.7-4.3 1.5-10.2 2.9-7.4 5.9-10.7 14-15.4 5.6-3.2 10-3.7 10.9-1.3zm10.7 4.9c3.1 1.6 11.6 2 13.8.6.9-.6 1.2-2 .9-4-.6-3.9-.3-3.9 1.7-.1 1.4 2.8 1.4 3-.7 4.4-3.5 2.2-9.3 2.9-13.3 1.6-4.5-1.5-9.5-5.6-9.5-7.8.1-1.2.6-.9 2.1 1.1 1.2 1.5 3.4 3.4 5 4.2zm-30.2-3.2 2.6-1.5-2.4 2.1c-2.9 2.7-3.8 2.6-5.2-.2-1.1-2.1-1-2.1.6-.5 1.6 1.5 2 1.5 4.4.1zm698.7 9.2c-.9 3.7-15.6 16.5-26.2 23.1-16 9.8-17.4 10.6-17.4 10.1 0-.3 4.8-3.6 10.8-7.3 13.7-8.6 24.4-16.6 28.3-21.2 2.7-3.3 3-4.2 2.6-8.7l-.5-5 1.5 3.4c.8 1.9 1.2 4.4.9 5.6zm-648-3.7c-1.7 1.6-1.8 1.6-.5-.5.7-1.2 1.5-2 1.8-1.7.3.2-.3 1.2-1.3 2.2zm504.7.7c-.3.9-.8 1.4-1 1.1-.3-.3-.2-.9.2-1.5.9-1.6 1.5-1.3.8.4zM269 522.6c0 .2-.9 0-2-.6s-2-1.3-2-1.6c0-.2.9 0 2 .6s2 1.3 2 1.6zm9.3 1.5c-1.9.6-4 .5-5.5 0-1.8-.8-1.2-1 3.2-.9 5 0 5.2.1 2.3.9zm152.1 2.7c.3.5.8 2.9 1.1 5.3.5 4.4.5 4.4-.6.9-1.4-4.5-2-5.2-6.6-6l-3.8-.8 4.7-.1c2.6 0 4.9.3 5.2.7zm162.1 4.2 2 .9-2-.1c-1.1 0-3.1-.4-4.5-.8l-2.5-.8h2.5c1.4 0 3.4.3 4.5.8zm10.5.4c0 .2-.8 1-1.7 1.7-1.6 1.3-1.7 1.2-.4-.4 1.3-1.6 2.1-2.1 2.1-1.3zm-28.6 3.7-3.1 3.1-3.9-2.1c-2.2-1.1-3.5-2-3.1-2.1.4 0 2 .6 3.6 1.4 2.5 1.4 3 1.3 5.7-.9 4.1-3.4 4.4-3.1.8.6zm212.7.6c-1.2 2-1.4 1.4-.5-1.2.4-.9.9-1.4 1.1-1.1.3.2 0 1.3-.6 2.3zM438.3 544l1.3 8.5 12.5-.1c8.1 0 11.2.2 8.9.7-6.1 1.4-17.4 2-20.3 1.2-2.6-.8-2.9-1.3-3.2-6.3-.1-3-.6-7.5-.9-10-.3-2.5-.4-4.1-.1-3.5.3.5 1.1 4.8 1.8 9.5zm151.2-8.9 4.4 1.1-.6 4.3c-.8 6.2.3 9.3 4 11.5 1.7 1.1 2.6 2 1.9 2-.8 0-2.7-1.3-4.3-2.9-2.5-2.5-2.9-3.7-2.9-8.5 0-3.1-.5-5.8-1.2-6.2-2.5-1.6-9.5-.7-12.9 1.5l-3.4 2.3 3.5-3.1c3.8-3.4 5-3.6 11.5-2zm9.2 5.6-.2 5.8 4-.1c2.2 0 5.4-.3 7-.7 2.8-.7 2.8-.6-.5.9-1.9.9-5.3 1.7-7.5 1.8l-4 .1-.3-4.4c-.3-4.3.4-9.1 1.3-9.1.2 0 .3 2.6.2 5.7zM563 538c5.1 2.6 5.2 3.5.3 1.4-2.1-.9-4.4-1.8-5.2-2.1-1.1-.5-1.3.6-.9 5.6.5 6.7-.5 6.3-1.6-.7-1-6.8.5-7.7 7.4-4.2zm-128.8 12.2c-.3 1.2-1.4 1.8-3.1 1.7h-2.6l2.4-1c2.3-.9 2.3-1.3 1.8-7.7l-.5-6.7 1.2 6c.7 3.3 1 6.8.8 7.7zm118.6-.4c-.3 3.6-.4 3.7-5 4-2.6.2-5.5-.1-6.4-.6-1-.6.4-.7 4-.4l5.6.4.1-6.8c.1-6.2.2-6.5 1-3.6.6 1.9.9 5 .7 7zm-339.9-.6c2.6 7.6 2.1 8.8-.6 1.6-2.4-6.3-4.5-8-7-5.5-2.6 2.5-2.2 12.1.7 17.8 1.7 3.1 1.8 4 .7 3.1-2.8-2.4-5-9.7-4.5-15.1.6-6 2.1-8.1 5.8-8.1 2.6 0 3 .6 4.9 6.2zm408.4-5.5c-.7.2-1.9.2-2.5 0-.7-.3-.2-.5 1.2-.5s1.9.2 1.3.5zm20.7 2.4c-1.4.6-3.7 2.2-5.2 3.6l-2.7 2.6-4.1-2.8c-2.2-1.5-4-3-4-3.2 0-.5 1.5.3 5 2.8 2.5 1.7 2.6 1.6 6.5-1.2 2.1-1.6 4.6-2.9 5.4-2.8.9 0 .5.5-.9 1zm-27 3.5c-5.6 1.7-6.4 1.7-2.5-.1 1.7-.8 3.9-1.4 5-1.4s0 .7-2.5 1.5zm10.5.9c3.9 3.2 2.4 3.2-2.3 0-2-1.4-3-2.5-2.2-2.5.8.1 2.9 1.2 4.5 2.5zm-138.2-.8c-1.3.2-3.3.2-4.5 0-1.3-.2-.3-.4 2.2-.4s3.5.2 2.3.4zm-10.6.9c-.3.3-1.2.4-1.9.1-.8-.3-.5-.6.6-.6 1.1-.1 1.7.2 1.3.5zm167.7 1.2c.3.9.2 3.7-.3 6.2l-.9 4.5-.1-5.3c-.1-2.8-.4-5.2-.9-5.2-.4 0-1.9.8-3.2 1.7l-2.5 1.6 2.4-2.6c2.8-3.1 4.7-3.4 5.5-.9zm-176.1-.1c-.7.2-1.9.2-2.5 0-.7-.3-.2-.5 1.2-.5s1.9.2 1.3.5zm62.4 2.4c-1 .6-3.1 2.9-4.7 5.1-1.7 2.3-3 3.7-3 3.1 0-1.5 7-9.3 8.3-9.3.7 0 .4.5-.6 1.1zm118.2 8.1-.4 9.1 5.2 3.7c7.1 4.9 7.8 5.9 1.8 2.5-9.1-5.2-9.5-5.9-7.9-19.3 1-8.2 1.7-6.1 1.3 4zM494 555.5c2 1 3 2.3 2.9 3.8v2.2l-.9-2.2c-1.6-3.9-4.6-4.6-15.4-4-5.6.4-11.9.9-14.1 1.1-2.3.3-1.4-.1 2-.8 8.6-2 21.9-2 25.5-.1zm62.4-.1c-.3.8-1.3 1.7-2.2 2.1-1.3.5-1.3.2.3-1.5 2.1-2.4 2.6-2.5 1.9-.6zm-124.9.5c2 .5-1.1.9-9 1.3-20 .9-26.4 4.3-26.6 14.3 0 2.2-.4 5.8-.9 8-.7 3.2-.9 2.3-.6-4.6.2-4.7.9-9.6 1.6-10.8 3-5.8 24.6-10.7 35.5-8.2zm112.4 1.7c.2.2-2.1.4-5.2.4-5.2 0-5.7.2-8.7 3.7-4.4 5.5-4.6 7.2-1.1 14.2 1.7 3.3 2.9 6.1 2.7 6.1-.3 0-2.1-2.7-4.1-6-3.6-5.9-3.6-5.9-1.9-9.2 2.8-5.4 5.5-8.9 7.8-9.8 1.9-.7 9.4-.3 10.5.6zm-36.8 3.4c1.2 0 2 .3 1.6.6-.9 1-7.7-.5-7.7-1.7 0-.6.7-.6 1.9.1 1.1.5 3 1 4.2 1zm280.2 21.5c.2 9.5 0 10.4-3.2 17.3-1.9 4-3.6 7.1-3.8 6.9-.2-.2.9-3 2.4-6.3 2.4-5.1 2.7-7.2 2.8-15.9 0-5.5-.3-13.4-.6-17.5l-.7-7.5 1.4 6.5c.8 3.6 1.6 11 1.7 16.5zm-546.8-18.6c8 2.2 6.8 2.7-1.5.7-3.1-.7-6.4-1-7.5-.5-3.1 1.2-3.9 1-2.5-.6 1.6-1.9 3-1.9 11.5.4zm259.9 1c-.2.3-1.2-.3-2.2-1.3-1.6-1.7-1.6-1.8.5-.5 1.2.7 2 1.5 1.7 1.8zm21.8.3c-.9.9-1.5.9-2.4 0-.9-.9-.7-1.2 1.2-1.2s2.1.3 1.2 1.2zm-16.5.4c-.3.3-1.2.4-1.9.1-.8-.3-.5-.6.6-.6 1.1-.1 1.7.2 1.3.5zm13.3 4.2c1.4 1.7 3.3 4.5 4.3 6.4l1.8 3.3-2.3-3c-4.2-5.5-7.9-8.4-12.1-9.4l-4.2-1 5 .3c4.1.3 5.4 1 7.5 3.4zm-306.6 19.1c.9 1.6 4.2 5.8 7.3 9.3 9.9 11 11 12.5 4 5.8-9.6-9.1-14.7-17.1-14.6-22.4l.1-4.1.8 4.2c.5 2.3 1.6 5.5 2.4 7.2zm448.4-2.8c2 3.7 1 16.4-1.7 22-2.6 5.6-5.6 7.5-9.1 5.9-2.4-1-2.3-1 .7-.6 4 .6 6.6-2.3 8.8-9.7 3.2-10.8 1.3-18.2-5.5-21.7-2.1-1.1-4.2-2.5-4.6-3.2-.4-.7 1.7.2 4.7 1.9 3 1.6 6 4.1 6.7 5.4zm220.8-3.5c-.5 1.9-2.4 3.4-8.2 6.1-4.1 2-7.7 3.3-8 3.1-.2-.3 2-1.5 5-2.8 6.3-2.5 10.6-6.3 10.7-9.4 0-1.1.3-1.5.6-.8s.2 2.4-.1 3.8zm-492 18.2c-1.1 2.1-3.3 3.5-8.8 5.6-4 1.6-8.8 3.7-10.7 4.8-2.2 1.2-3 1.4-2.3.5.7-.8 5.3-3.1 10.2-5.2 4.9-2.1 9.5-4.4 10.1-5.1.6-.8 1.4-6.2 1.8-12.1l.6-10.8.3 9.7c.2 7.1-.1 10.5-1.2 12.6zm141.9-11.3c4.3 7.6 7.5 19.2 7.5 27.1 0 7-.9 8.2-10.2 13.4-8.2 4.5-7.2 3.1 1.2-1.9l7-4.2v-8.2c0-10.3-1-13.7-7.1-26.2-5.1-10.4-4.2-10.4 1.6 0zm134.5-2.1c0 2.6-.6 1.8-1.4-1.9-.5-2.2-.4-2.6.4-1.5.5.8 1 2.4 1 3.4zm120.1 18.9c-4 9.2-4.9 13.9-3.2 16.5.4.7 3 2 5.7 2.7l4.9 1.5-4.5-.6c-6.4-.9-7.6-1.8-8.4-6.1-.5-3.2.1-5.4 4.1-14 2.7-5.5 4.9-10 5.1-9.8.2.1-1.5 4.5-3.7 9.8zm-55.3 6.2c-8.1 12-11.6 14.9-15 11.8-1.1-1-2.9-3.2-4.1-4.8-1.8-2.7-1.7-2.7 1.9.7 2.2 2.1 4.7 3.8 5.6 3.8 1.8 0 5.6-4.4 13.2-15.3 7.4-10.6 6.3-7.8-1.6 3.8zm25.7-9c11.6 3.1 20.6 9.8 20.4 15.3l-.1 2.7-1-3c-1.5-4.3-5.2-7.9-11.1-10.8-5.8-2.8-14.4-4.7-18.2-4-2.3.5-6.5 4.5-12.8 12.3l-2.8 3.5 1.8-3.4c1-1.8 3.7-5.5 6.1-8.2 5.5-6.1 8.2-6.8 17.7-4.4zM390.4 607c-1.4 1.4-19.6 9.1-20.2 8.5-.5-.5 2.7-2 14.3-6.8 7.2-3 7.2-3 5.9-1.7zm388.6 1.5c.6-.3.7.1.4.9-.9 2.2-1.7 2-4.5-1.1l-2.4-2.7 2.8 1.7c1.5 1 3.2 1.5 3.7 1.2zm-562.4 4.3c1.1 2 3.5 6.3 5.3 9.4 1.8 3.2 3 5.8 2.8 5.8-.3 0-2.6-3.6-5.1-7.9-2.5-4.4-5-8.2-5.6-8.6-1.2-.7-1.4-2.5-.2-2.5.4 0 1.6 1.7 2.8 3.8zm420.8.1c-1 1-2.1 1.7-2.3 1.5-.6-.6 2-3.4 3.2-3.4.6 0 .2.8-.9 1.9zm23.9.9c-.4 1.5 1.5 2.7 10.4 6.6 5.9 2.7 12.7 5.1 15 5.3 3.8.5 4.5.2 7.8-3.3l3.7-3.9-2.7 4.3c-1.6 2.3-3.8 4.5-4.9 4.8-2.6.6-9.3-1.5-19.6-6.3-10.7-4.9-12.4-6.1-10.9-7.9 1.5-1.9 1.8-1.8 1.2.4zm-17.8 2.3c1.7.8 1.6.9-.9.5l-2.8-.4.6 5.7c.4 3.7.3 4.9-.3 3.6-1.1-2.4-1.4-8.9-.4-9.8.8-.9 1.3-.8 3.8.4zm-8.8 3.6c-.3 1-.5.4-.5-1.2 0-1.7.2-2.4.5-1.8.2.7.2 2.1 0 3zm-257.7 14c2.6 3.4 5.4 5.3 9.9 6.9 2.3.9 2.9 1.3 1.6 1.4-1.2 0-4.1-1-6.5-2.3-3.8-1.9-5.1-3.4-8.6-10.2-2.3-4.4-4.5-9.1-4.8-10.5-.4-1.4.9.8 2.8 4.8s4.4 8.5 5.6 9.9zm466.2-11.5c-.7 2.9-1.9 3.8-9.6 7.7-11 5.5-15.5 6.1-22.4 3.1-6.8-2.9-6.1-3.5 1.1-1 6.5 2.3 9.4 2 18.7-2.2 7.8-3.5 10.7-6 11.6-10.2.4-1.7.9-2.6 1.1-1.9.2.6 0 2.6-.5 4.5zm-179.2-.1c8.5 4.5 8.4 4.5-2.2.4-4.3-1.7-7.8-3.3-7.8-3.8 0-1.4 2.6-.5 10 3.4zm45.1.1c3 4 3.1 4.1.5 1.8-2.6-2.4-5.2-6-4.2-6 .2 0 1.9 1.9 3.7 4.2zm-347.5.6c-2 3.8-14.6 15.5-18.8 17.5-1.8.8-4.6 1.7-6.3 2.1-1.8.3-.6-.6 3.1-2.3 6.2-2.9 18.2-13.2 21.1-18.2 2.2-3.7 2.9-3 .9.9zm339 .7c-3.7 4.7-4.3 4.4-1-.5 1.5-2.2 2.9-3.8 3.2-3.5.3.2-.7 2-2.2 4zm30.4-3.1c0 .2-.8 1-1.7 1.7-1.6 1.3-1.7 1.2-.4-.4 1.3-1.6 2.1-2.1 2.1-1.3zM368.7 628c2.7 6.3 2.3 6.4-1.1.4-2.8-5.1-3-5.4-1.8-5.4.4 0 1.7 2.3 2.9 5zm269.8 8.7c-.5 2.2-3.4 4.2-9 6.3-4.2 1.6-2.8.2 2-2.1 6-2.8 6.7-4.4 5-11-2.1-7.7-1.7-8.5.6-1.4 1.1 3.3 1.7 7 1.4 8.2zm-276.9-6.4c-1.4 1.8-4 4.3-5.8 5.6-2.3 1.7-1.7.7 2.2-3.3 3-3.1 5.6-5.6 5.8-5.6.2 0-.8 1.5-2.2 3.3zM677 628c.8.5 1.1 1 .5 1-.5 0-1.7-.5-2.5-1s-1-1-.5-1c.6 0 1.7.5 2.5 1zm-432 4.3c0 1 2.1 3 5 4.8 6.4 3.9 6.6 5 .3 1.4-6-3.5-5.9-3.3-6.7-7.5-.4-2.5-.3-3.1.4-2 .5.8 1 2.3 1 3.3zm293.6-3.6c-.4.5-3.8 2.6-7.4 4.9-6.4 3.8-6.7 4.3-7.3 8.5-.5 4.2-.6 4.3-1.3 1.6-1.3-4.3.2-6.3 8.4-11.1 7.5-4.5 9-5.2 7.6-3.9zM228 632.1c1.5 2.8.5 2.3-1.5-.7-.9-1.5-1.2-2.3-.6-2 .6.4 1.6 1.6 2.1 2.7zm454-2.1c.8.5 1.1 1 .5 1-.5 0-1.7-.5-2.5-1s-1-1-.5-1c.6 0 1.7.5 2.5 1zm160.4.8c-1.1 1-13.2 6.2-14.2 6.2-.4-.1 2.7-1.8 6.8-3.8 7-3.4 9.7-4.3 7.4-2.4zm59.6.2c2.4 2.4 2.5 6.1.4 12.4-2.3 6.8-2.8 5-.8-2.9l1.7-6.8-2.4-2c-2.2-1.7-3.4-1.9-11.8-1.3-11.6.8-16.8 2-24.8 5.7-5.7 2.7-8.1 4.8-12.6 10.9-1.1 1.5-.9.8.5-1.9 2.8-5.3 6.3-8.1 14.8-11.6 7.9-3.3 12.9-4.2 24.3-4.4 7.5-.1 9 .2 10.7 1.9zm-97 3.2c6 3.1 5.8 3.2-1 .6-2.5-.9-6.7-2.4-9.5-3.2l-5-1.5 5 .6c2.8.3 7.5 1.9 10.5 3.5zm38.5 5.3c-1.2 1.9-9 6.5-11 6.4-.5 0 .8-.9 3-2.1 6.1-3.1 7.5-4.7 7.6-8.7l.1-3.6.8 3c.4 1.8.2 3.8-.5 5zm-322.5-5c-.7.9-1.5 1.3-1.9 1-.3-.3.1-1 .9-1.5 2.1-1.4 2.4-1.2 1 .5zm-316.9 6.2c-1.2 2-1.4 1.4-.5-1.2.4-.9.9-1.4 1.1-1.1.3.2 0 1.3-.6 2.3zm46.8 2.2c8.2 4.8 10.4 7.3 12.5 13.5 1.9 6 1.4 5.6-2.2-1.5-2.1-4.2-4.1-6.3-9-9.7-3.5-2.3-7.3-4.2-8.3-4.2-1.1 0-1.7-.5-1.4-1 .9-1.5 1.3-1.3 8.4 2.9zm147.7-1.4c-2.2 1.7-7.6 2-7.6.6 0-.6 1.7-1.2 3.8-1.4 2-.2 4.2-.4 4.7-.5.6-.1.1.5-.9 1.3zm241.9.5c-.4.6-2.8 2.2-5.5 3.5-2.7 1.4-5.4 3.5-6.1 4.6-1.1 2.1-.8 8.3.6 13.9.4 1.5 0 1.2-1-1-2.1-4.5-3-11.3-1.8-13.5.8-1.4 3.4-2.9 14.1-8.3.2-.1 0 .3-.3.8zm-311.6 3.3c-1.3 1.3-2.6 2.1-2.9 1.9-.5-.4 3.8-4.2 4.8-4.2.3 0-.6 1-1.9 2.3zm72 4.7c-1.2 2.8-2.4 4.9-2.6 4.6-.2-.2.3-2 1.1-4 1.4-3.3 1.4-3.6-.2-3.6-1.3 0-1.2-.5.8-2 3.3-2.5 3.6-1.2.9 5zm-61.4-4.1c-.6.5-2.6 1.4-4.7 2-3 1-3.8 1.9-4.6 4.9-1 3.6-1 3.6-1.1.7-.1-4.2.9-5.4 6-7 5.4-1.7 5.5-1.7 4.4-.6zm180.2 12.8c-.3 6.5-1.1 13.1-1.7 14.8l-1 3 .5-3.4c.3-1.9.8-8.5 1.2-14.7.3-6.3.8-11.4 1.1-11.4.3 0 .2 5.3-.1 11.7zm-325.2 12.9c-3.6 11.5-6.8 21.7-7.1 22.6-.4 1.3 0 1.8 1.3 1.8 1.1 0 2.8.7 3.9 1.4 1.7 1.3 1.5 1.4-1.8.2-2.1-.7-4-1.5-4.3-1.8-.3-.3 2.6-10.4 6.5-22.6 3.8-12.2 7-22.5 7-22.8 0-.4.3-.5.6-.2s-2.4 10-6.1 21.4zM622.3 652c-.3 1.2-.8 1.9-1.1 1.6-.5-.6.5-3.6 1.2-3.6.2 0 .2.9-.1 2zM403 656.1c-1.1 2.4-2 3.9-2 3.2 0-1.5 3.2-8.4 3.7-7.9.2.1-.6 2.3-1.7 4.7zm442.5-2.1c-.3.5-1.2 1-1.8 1-.7 0-.6-.4.3-1 1.9-1.2 2.3-1.2 1.5 0zm-569 14.8c6.5 5.7 10.2 6.2 21 2.8 1.1-.3.2.3-2 1.4-2.2 1.1-5.7 2-7.8 2-7.1 0-15.9-6.5-19.1-14.2-2.5-5.8-1.8-6.9.8-1.3 1.3 2.9 4.3 6.8 7.1 9.3zm49.1-8.2c-.7 2.7-4.4 4.7-10.6 5.7-4 .7-1.4-.8 3.3-1.8 3.7-.8 6.7-3.9 6.8-7.3.1-1.8.3-2.1.6-.9.3 1 .2 3-.1 4.3zm571.6 1c.4 3 .2 3.3-.8 2-.6-1-1-2.6-.7-3.6.7-2.8 1-2.5 1.5 1.6zm-491.9.1c-.7.2-2.1.2-3 0-1-.3-.4-.5 1.2-.5 1.7 0 2.4.2 1.8.5zm221.6 7.5c1.1 3.5 2.3 8.8 2.5 11.8.6 5.9.4 5.6-2.5-6.5-1.1-4.4-2.2-8.8-2.5-9.8-.3-.9-.3-1.7 0-1.7.2 0 1.4 2.8 2.5 6.2zm-215.8-1.5c1.4 3.7.5 10.2-2.2 14.7-3 5.2-3.2 4.4-.4-1.7 4-8.5 2.9-13.7-2.8-13.7-2.4 0-2.8-.3-1.7-1 2.9-1.9 6-1.1 7.1 1.7zm4.6 5c-.2 1.6-.4.5-.4-2.2 0-2.8.2-4 .4-2.8.2 1.3.2 3.5 0 5zm487.8 0c.9 1.9 1.4 3.7 1.1 4-.3.3-1-.7-1.6-2.2-.6-1.5-2-4.2-3.2-5.9-2.2-3.1-2.2-3.1-.1-1.3 1.2 1.1 2.9 3.5 3.8 5.4zm-578.9-4.8c-.3.5-3.8 1.7-7.8 2.7-4 .9-9.9 2.8-13.1 4.1-3.3 1.3-6.1 2.2-6.3 2-.8-.8 10.1-5 18.6-7.2 4.7-1.2 8.6-2.3 8.8-2.4.2 0 .1.3-.2.8zm198.1 5.3c-.3.8-.6.5-.6-.6-.1-1.1.2-1.7.5-1.3.3.3.4 1.2.1 1.9zm-248.6.5c1.3 1.6 1.2 1.7-.3.4-1-.7-1.8-1.5-1.8-1.7 0-.8.8-.3 2.1 1.3zm4.4 3.1c-.3.3-1.1 0-1.8-.7-.9-1-.8-1.1.6-.5 1 .3 1.5.9 1.2 1.2zm243 2.2c-.4 1.7-.9 3-1.1 2.7-.2-.2-.1-1.8.2-3.6.4-1.7.9-3 1.1-2.7.3.2.2 1.9-.2 3.6zm-5.6 3.3c-1.5 3.9-5.5 8.4-9.1 10.3-1.8.9-1-.3 2.7-3.9 3.3-3.4 5.5-6.6 6-8.8.5-1.9 1-2.8 1.3-2.1.2.7-.2 2.7-.9 4.5zm117.8-.1c-.3.8-.6.5-.6-.6-.1-1.1.2-1.7.5-1.3.3.3.4 1.2.1 1.9zm276.3-.7c.6.8 1 1.9.8 2.4-.1.5-1.1-.2-2.1-1.5-1.9-2.6-.8-3.4 1.3-.9zm-499 6.7c-1.1 2.4-2 6-2 8 0 3.1.5 4 2.8 5.2 3.2 1.8 1.4 2.1-2.3.4-2.8-1.3-3.3-4.3-1.3-9.9 1.1-3.3 3.7-7.9 4.4-7.9.2 0-.6 1.9-1.6 4.2zm223.7-.5c-.3 1-.5.4-.5-1.2 0-1.7.2-2.4.5-1.8.2.7.2 2.1 0 3zm-1.9 16.8v3l-.8-3.2c-.4-1.8-1-6.5-1.3-10.5l-.5-7.3 1.3 7.5c.8 4.1 1.4 8.8 1.3 10.5zm-228.1-13.3c-.3.8-.6.5-.6-.6-.1-1.1.2-1.7.5-1.3.3.3.4 1.2.1 1.9zM910 698c-1.7 4.1-4.2 6-8.6 6.6l-3.9.4 4-1.5c5.1-1.9 7.3-4.6 8.2-9.9.7-3.6.8-3.8 1.1-1.2.2 1.5-.2 4.1-.8 5.6zm-274.3-3.3c-.3 1-.5.4-.5-1.2 0-1.7.2-2.4.5-1.8.2.7.2 2.1 0 3zm-232 .5c-.3.8-.6.5-.6-.6-.1-1.1.2-1.7.5-1.3.3.3.4 1.2.1 1.9zm99.1 6.8c-12 11-24.9 27.8-27 35-.3 1-.6.8-1-.7-.9-3.5 21.7-32 30.5-38.4 6.4-4.6 5.6-3.4-2.5 4.1zm-306.1 3.2c-.3.8-.6.5-.6-.6-.1-1.1.2-1.7.5-1.3.3.3.4 1.2.1 1.9zm214.7 1.2c4.1 1.7 5.8 6.8 3.3 9.3-1.4 1.4-1.5 1.1-1-2.6.5-4 .4-4.1-3.1-5.6-2-.8-3.6-1.7-3.6-2 0-.8.8-.6 4.4.9zm227.9 8.3c.9.9 4.7 2.3 8.4 3l6.8 1.3-7-.4c-6-.4-7.2-.8-9.2-3.1-1.7-1.9-2.3-3.8-2.2-6.8l.2-4.2.6 4.3c.4 2.3 1.5 5 2.4 5.9zm-148.9-7.5c-1.2 1.9-15.5 20.2-16.7 21.3-2 1.9 3.7-6.1 10.2-14.2 6.1-7.7 8.3-10.1 6.5-7.1zm-66.3 7.5c1.4.8 1.6 1.2.6.9-1-.3-2.7-.6-3.8-.6-1.5 0-1.9-.7-1.9-3.3.1-3.2.1-3.2 1.4-.8.7 1.3 2.4 3 3.7 3.8zM187.2 711c-5.1.8-5.2.9-9.3 11.8-1.8 4.5-3.4 8.1-3.6 7.9-.4-.5 5-15.6 6.7-18.8.9-1.5 2.1-1.9 5.8-1.8l4.7.2-4.3.7zm703.5 6.2c-.3.8-.6.5-.6-.6-.1-1.1.2-1.7.5-1.3.3.3.4 1.2.1 1.9zm-463.3 3.6c1.6 1 3.5 2.8 4.3 4.2 1.1 1.7 1.1 2 .2.9-3.3-3.8-11.5-7.4-13.7-6-.6.4-1.5 1.8-2.1 3.1l-1 2.5v-2.7c-.2-4.9 5.5-5.8 12.3-2zm-18.8 10.3c-3.6 5.3-4.1 4.9-1.1-.7 1.4-2.6 2.6-5.6 2.6-6.8.2-1.4.3-1.2.6.7s-.4 4.2-2.1 6.8zm258.1-5.5c7.7 5.7 11.6 23.3 7.4 32.8-2.8 6.5-9.1 13.7-15.1 17.6-6 3.8-18.8 8.8-32.1 12.4-9 2.5-9.8 2.5-13.2 1.1-3.4-1.4-7.6-6-6.5-7 .3-.3 1 .6 1.8 1.9 2.1 4 6.2 5.2 13.4 3.7 10.3-2.1 29.3-8.8 34.8-12.4 14.2-9.1 20.5-22.9 16.3-35.8-3.7-11.5-7.2-14.8-16.8-16l-6.2-.8 6.7.3c5 .1 7.5.7 9.5 2.2zm-222.2 4c5.2 2.2 24.8 3.2 27 1.4 1.3-1.1 1.4-1 1 .3-.4.8-2.1 1.7-3.8 2-4.3.6-20.3-.9-24.7-2.4-3.7-1.3-8-4.6-8-6.2 0-.6 1-.1 2.3 1.1 1.2 1.1 4 2.9 6.2 3.8zm456-2.9c.8 2.3.3 2.2-2.3-.3-2.2-2.1-2.2-2.2-.3-1.7 1.1.3 2.2 1.2 2.6 2zm-491.6 12c-3.1 5.2-4.5 6.6-2.4 2.3 1.9-3.7 3.5-6 4.2-6 .3 0-.5 1.7-1.8 3.7zm61.8-1.1c-.3.3-1.2.4-1.9.1-.8-.3-.5-.6.6-.6 1.1-.1 1.7.2 1.3.5zm431 4.1c-.3 1-.5.2-.5-1.7s.2-2.7.5-1.8c.2 1 .2 2.6 0 3.5zm-499.3-.5c-3.1 6.2-6.4 9.8-9 9.8-1.3 0-2.4-.5-2.4-1 0-.6.8-1 1.8-1 1.9 0 5.8-3.7 8.7-8.3 2.4-3.7 2.9-3.4.9.5zm69.1 4.3c-.3 2.6-.9 4.5-1.2 4.2-.2-.3-.1-2.6.2-5.2.4-2.5 1-4.4 1.2-4.1.3.3.2 2.6-.2 5.1zm5.3 26.8c1.9 2.3 9.4 5.7 12.4 5.7 3.4 0 6.9-2.9 11.9-10 2.3-3.3 4.4-6 4.6-6 .9 0-4.5 8.5-8 12.6-3.4 3.9-4.3 4.4-8 4.4-5.4-.1-12.8-3.8-14.5-7.4-1.9-3.8-2.6-12.5-1.6-18.2.8-4.5.9-3.9 1.4 6.2.3 7.1 1 11.7 1.8 12.7zm434.5-14.8c1 4.2 1.7 9.3 1.7 11.4 0 5.2-4.8 11.7-10.4 14.2-5.1 2.2-21.5 4.3-24.7 3.1-1.6-.6.8-1.1 8.1-1.6 5.7-.3 12.2-1.2 14.3-1.8 8-2.4 12.6-10.4 11.2-19.7-.8-5.4-3.1-11.2-4.8-12.3-.8-.5-.5-.8.9-.8 1.8 0 2.3 1.1 3.7 7.5zm-392-4.8c-.7.2-1.9.2-2.5 0-.7-.3-.2-.5 1.2-.5s1.9.2 1.3.5zm-128 2c-2.1.4-3.9 2.2-7 6.9-1.1 1.6-1.1 1.5-.3-.9 2-5.7 2.9-6.7 6.3-6.6 2.3.1 2.6.3 1 .6zm133.4 4.3c2.4 1.9 8.3 8.8 8.3 9.8 0 .2-2.4-2.1-5.4-5.2-8.2-8.5-10.4-7.9-20.4 5l-2.3 2.9 2.3-4.3c1.3-2.4 4-5.9 6.1-7.8 4.3-3.9 6.9-4 11.4-.4zm43 2.4c-3.2 3.3-7.9 6.7-12.4 9-4 2-7.3 3.4-7.3 3.2 0-.3 3.4-2.3 7.5-4.6s8.4-5.3 9.5-6.8c1.7-2.1 6.7-6.2 7.7-6.2.1 0-2.2 2.4-5 5.4zm-188.4.4c-1.1 1.5-2.7 2.8-3.6 3-.9.2-.3-1 1.6-3.1 3.7-4 5-3.9 2 .1zm197.5 1.7c1.7 3.7 1.4 5.5-.4 2.2-1.6-3-3.5-3.5-5.4-1.2-.7.9-1.5 1.3-1.8 1-.9-.8 3-4.5 4.8-4.5.9 0 2.2 1.1 2.8 2.5zM536 765c.6 1.1.8 2 .6 2-.3 0-1-.9-1.6-2-.6-1.1-.8-2-.6-2 .3 0 1 .9 1.6 2zm53.9 15.4c.6.4 1.1 1.3 1.1 1.9 0 .7-.8.3-1.6-.8-2.2-2.9-8.4-15.2-8.4-16.7 0-.7 1.8 2.4 3.9 6.8 2.1 4.5 4.4 8.4 5 8.8zM370.5 766c-2.8 1.2-3.7 1.2-3 0 .3-.6 1.6-1 2.8-.9 2.1 0 2.1.1.2.9zm303.4 1.7c-2.5 3.3-8.4 9.5-9.9 10.3-.9.5 1.1-2 4.5-5.5 6-6.4 7.9-8.1 5.4-4.8zM377 769c-.8.5-2.6.9-4 .9-2.3-.1-2.3-.2.5-.9 4.3-1.1 5.2-1.1 3.5 0zm-7.8 2.2c-.7.7-1.2 3.2-1.3 5.7-.1 4.6-.1 4.6-.9 1.2-.9-3.8.3-8.1 2.2-8.1.9 0 .9.3 0 1.2zm165.1 11-1 7.3-.1-9.5c0-7.4.2-9 1-7.3.8 1.6.8 4.5.1 9.5zm23.7-8.8c0 .2-1.9 1.5-4.3 2.9-6.6 3.9-7.2 5.9-6.9 21.6.3 17.7 1.3 23.1 7.3 38 2.8 6.8 4.8 12.5 4.6 12.7-.2.3-1.3-1.9-2.5-4.8-1.1-2.9-3.9-9.6-6.1-14.8l-4-9.6-.5-17.5c-.6-20.5 0-22.6 7.4-26.5 4.7-2.5 5-2.6 5-2zm-59.5 6.6c-1.6 1.6-3.2 3-3.7 3-.8 0 5.3-5.9 6.1-6 .3 0-.8 1.3-2.4 3zm96.3 1c-.7 1.1-1.7 2-2.2 2-.5 0-.1-.9.9-2s2-2 2.2-2c.2 0-.2.9-.9 2zm-230 7c0 3.2-.1 3.3-.8 1-.4-1.4-.8-4.1-.8-6 0-3.2.1-3.3.8-1 .4 1.4.8 4.1.8 6zm238.2-5.9c.7 1.1.9 2.3.7 2.6-.3.2-.8-.5-1.2-1.6-.8-2.7-1.7-2.6-3.3 0-.7 1.2-1.6 1.8-1.9 1.5-.7-.7 2.6-4.6 3.8-4.6.5 0 1.3.9 1.9 2.1zm-234.3 3.1c-.3.7-.5.2-.5-1.2s.2-1.9.5-1.3c.2.7.2 1.9 0 2.5zM540.5 796l1.3-3.5.1 5.6c.1 3.1.3 7.2.6 9l.5 3.4-1.9-4.1c-2.8-6-4.2-13.9-3.4-18.7.7-3.8.8-3.4 1.2 3.8.3 7.9.3 7.9 1.6 4.5zm-172.9-2.4c-.9.8-1.1.9-.6.2.6-.7 1.1-2.1 1.1-3.3.1-1.8.2-1.8.6-.1.3 1-.2 2.5-1.1 3.2zm468.3-.9 2.2 3.8-2.7-2.9-2.6-3 .5 5.5.6 5.4-1.3-5c-2.1-8.1-.3-10.1 3.3-3.8zm13.7 2.4c2.7-.7 7.3-2.3 10.3-3.7 5.3-2.4 7.3-2.7 4.9-.6-1.7 1.4-12.6 5-17.5 5.8-3.6.5-4.2.3-6-2.2-3.5-5.2-3.6-6-.1-2l3.5 3.9 4.9-1.2zm-220.8-2.8c-4.1 1.3-6.8 2.7-7 3.6-.3 1.4-.5 1.4-1-.1-.6-1.4.4-2.1 5.5-3.7 3.4-1 6.9-1.9 7.7-1.9.8 0-1.5 1-5.2 2.1zM361 792c-1.4.4-3.8.8-5.5.8-2.5.1-2.7-.1-1-.8 1.1-.5 3.6-.8 5.5-.8 3.2 0 3.3.1 1 .8zm251.9 1c4.7 2.3 6.2 5.9 6 14.4l-.2 6.1-.6-7c-.8-8.4-1.6-9.9-6.7-13-4.7-2.9-3.8-3.3 1.5-.5zm252.1 4.7c0 2.4-.1 2.5-1.3.9-1-1.4-1.7-1.5-4-.7-1.6.6-3.4 1.1-4 1-.9 0 5.3-2.7 9.1-3.8.1-.1.2 1.1.2 2.6zm-506.7-.5c-3.5.7-4.4 1.4-4.9 3.6-1.3 6.2-2.2 7.6-1.7 2.7.7-6.5 1.7-7.5 6.7-7.4l4.1.1-4.2 1zM830 808.9c-1.2 2.9-7.3 7.5-11 8.4-1.4.3-5-.3-8-1.3l-5.5-1.8 4.5.6c8.8 1.2 11.5.8 15.5-2.2l3.8-2.9-.6-7.1-.5-7.1 1.5 5.4c1.1 4.1 1.1 6 .3 8zm23.7-9.3c-.3.3-1.2.4-1.9.1-.8-.3-.5-.6.6-.6 1.1-.1 1.7.2 1.3.5zM347 810c-.8 1.5-2 2-4.8 1.9-3.6-.1-3.6-.2-.7-.8 3.3-.7 5.4-3.9 5.7-8.6.1-2.2.3-1.8.5 1.2.2 2.3-.1 5.1-.7 6.3zm192 1.5c0 .5-.5.3-1-.5s-1-2-1-2.5c0-.6.5-.3 1 .5s1 1.9 1 2.5zM138.5 814c-1.4 2.7-2.8 5-3 5-.3 0 .6-2.3 2-5 1.4-2.8 2.8-5 3-5 .3 0-.6 2.2-2 5zM626 834.9c3 6.1 8.6 11.8 12.7 13.2 1.9.6 7.2 1.7 11.6 2.5l8.2 1.3-7.5-.5c-11.2-.7-14.6-1.9-19.5-7-7.9-8-10.3-15.3-9.5-28.4.2-4.5.4-3.7 1.1 4.6.5 7.2 1.4 11.4 2.9 14.3zM832 814c-1.1 2.1-7.8 7-9.5 7-.5 0 1-1.3 3.4-2.9 2.5-1.7 4.8-3.7 5.3-4.5 1.3-2.3 2.1-1.9.8.4zm-291 2.5c0 .5-.5.3-1-.5s-1-2-1-2.5c0-.6.5-.3 1 .5s1 1.9 1 2.5zM293.3 815c14.9 2.2 20.4 3.9 24.5 7.8 2.1 2 2.9 3 1.8 2.1-7.7-6.1-22-9.3-41.6-9.3-16.5-.1-23.8 1.7-30.3 7.5-6.9 6-14.7 23.7-14.7 33.1 0 3.1 2.5 8.6 7.2 15.8 2.8 4.2 2.8 4.3.3 1.5-4.9-5.6-8.5-12.8-8.5-17 0-5.7 2.6-15.7 5.7-22.3 5-10.6 13.1-16.9 24.6-19.2 6-1.1 23-1.1 31 0zm324.4 9.7c-.2 2.1-.4.4-.4-3.7 0-4.1.2-5.8.4-3.8.2 2.1.2 5.5 0 7.5zm-286.6-6.6c-.9 2.2-1 2.2-1 .3-.1-1.1.2-2.4.6-2.7 1.2-1.2 1.4 0 .4 2.4zm9.4-1.4c-1.1.2-3.3 1.9-4.8 3.6l-2.8 3.2 1.1-2.9c1.6-4.4 1.9-4.6 5.3-4.5 2 .1 2.5.3 1.2.6zm-94.5.6c0 .2-1.9 2.1-4.2 4.2-2.3 2.2-3.6 3.1-2.8 2 1.8-2.7 7-7.2 7-6.2zm563.1 2.2c2.5 1.1 2.7 1.4.9 1-9.3-2.1-9.9-2-14.7 2.6-4 3.8-4.3 4-2.4 1.2 5-7.4 8.5-8.4 16.2-4.8zm-481.2 3c1.2-.7 1.5.7.5 1.8-.9.9-5.5-1.7-7.9-4.3-1.8-2-1.5-2 2.2.4 2.3 1.6 4.7 2.5 5.2 2.1zm215.1-1c0 .5-.5.3-1-.5s-1-2-1-2.5c0-.6.5-.3 1 .5s1 1.9 1 2.5zm248.1-.8c-2.1 3.9-10.6 10.4-16.3 12.6-3 1.1-2 0 2.5-2.6 2.3-1.4 6.5-4.6 9.2-7.1 5.7-5.1 5.9-5.3 4.6-2.9zM132.3 825c-1.5 2.8-3.6 6-4.7 7.3l-1.8 2.2 1.4-2.5c.8-1.4 2.7-4.6 4.2-7.3 1.5-2.6 3-4.7 3.3-4.7.2 0-.8 2.3-2.4 5zm412.7 1.5c0 .5-.5.3-1-.5s-1-2-1-2.5c0-.6.5-.3 1 .5s1 1.9 1 2.5zm346.6-1.7c.7.4.8 2.4.4 5.7l-.7 5-.2-5.2-.1-5.2-7.2-.4-7.3-.3 7-.2c3.9-.1 7.5.2 8.1.6zM237 828c-.6 1.1-1.3 2-1.6 2-.2 0 0-.9.6-2s1.3-2 1.6-2c.2 0 0 .9-.6 2zm314 12.4c5.6 13.1 8 21.8 7.9 28.6-.1 3.8-.3 3.2-1.4-3.5-1.3-8.2-4-16.4-9.4-29.4-1.7-4.1-3.1-7.6-3.1-7.9 0-1.4 1.3 1.3 6 12.2zm232-7c0 .3-3.6 2.6-8.1 5.3-4.4 2.6-11.5 7.5-15.8 10.9-6.8 5.3-8 6.8-8.9 10.6-1.4 5.4-.5 9.2 3.3 14.5l2.8 3.8-3.6-3.7c-4.3-4.4-5.2-7.2-4.2-13.4.5-3.6 1.6-5.5 4.9-8.8 4.7-4.8 13.1-10.6 22.6-16 6.9-3.8 7-3.8 7-3.2zm-16 4c0 .2-1.8 1.5-4 3-2.2 1.4-4 2.4-4 2.2 0-.5 7.1-5.6 7.7-5.6.2 0 .3.2.3.4zm123.6 10.8c-.6.4-2.2.7-3.6.7l-2.5-.1 2.8-1c2.2-.8 2.7-1.6 2.8-4.6l.1-3.7.8 4c.5 2.7.4 4.2-.4 4.7zm-263-2.5c1.5 2 2.3 3.3 1.6 2.9-1.3-.8-5.6-6.6-4.9-6.6.3 0 1.7 1.7 3.3 3.7zm130.4-2.3c0 .2-.8 1-1.7 1.7-1.6 1.3-1.7 1.2-.4-.4 1.3-1.6 2.1-2.1 2.1-1.3zm-650.2 8.7c-4.9 4.3-5.8 5.6-5.8 8.5 0 2.8.6 3.8 3.3 5.4 3.4 2.1 2.1 2.8-1.6.9-2.9-1.5-3.7-2.8-3.7-5.9 0-3.4 2.2-6.4 7.9-10.5 6.6-4.9 6.5-4.3-.1 1.6zm771.6 8.9c-.6 2.5-1.7 5.7-2.3 7.2-1.9 5-2 2.9 0-3.5 1-3.4 1.9-7.8 2-9.7.1-3.1.2-3.2.8-1 .4 1.4.2 4.5-.5 7zm-236.7-6.4c-.3.3-1.2.4-1.9.1-.8-.3-.5-.6.6-.6 1.1-.1 1.7.2 1.3.5zm24.6 2.3c4.7 1.1 8.7 4.6 8.7 7.6 0 2.5-3 12.9-3.5 12.3-.2-.2.3-3.2 1.2-6.6 1.3-5.3 1.3-6.4.2-7.9-2.4-2.8-8.1-4.6-19.4-5.9l-11-1.3 10 .5c5.5.2 11.7.8 13.8 1.3zm19.7 3.9c.3.2-1.3.1-3.5-.2-2.2-.4-4.7-1.4-5.5-2.2-1.2-1.2-.5-1.1 3.5.2 2.8.9 5.2 1.9 5.5 2.2zm57.8 8.7.1 2-.9-2c-.5-1.1-.8-3.1-.8-4.5v-2.5l.8 2.5c.4 1.4.8 3.4.8 4.5zm-514-3c-.3.3-.9-.2-1.2-1.2-.6-1.4-.5-1.5.5-.6.7.7 1 1.5.7 1.8zm459.1-.9c3.6.9 9.2 2.9 12.3 4.5 5.3 2.6 30.8 19.6 30.8 20.4 0 .2-6.9-4-15.2-9.4-16.1-10.3-19.9-12.1-31.3-15.1-3.8-1.1-6.1-1.9-5.1-1.9 1.1-.1 4.9.6 8.5 1.5zm-447.8 16.9c5.8 10 3.5 15.3-12.4 28.8-11.8 10-11.8 9.7.1-1.7 6.2-6 12-12.2 12.8-13.9 2.3-4.3 1.3-8.5-4.1-16.9-2.5-4-3.4-6-2-4.3 1.5 1.6 3.9 5.2 5.6 8zm486.4-1c18.6 12.7 19.7 13.1 24.6 7.9 1.7-1.8 2.1-2.9 1.4-3.9-.6-.8-2.5-3.6-4.3-6.2l-3.3-4.8 4 4.5c2.3 2.5 4.4 5.5 4.7 6.8.7 2.7-1.4 5.5-5.7 7.2-2.5 1.1-3.5.9-7.4-1.1-5-2.7-28.5-18.7-28.5-19.5 0-.7.9-.1 14.5 9.1zm-51.7-1.1c-1.2 5.6-1.2 5.8 1.2 7.7 2.7 2 2.1 2.5-1.1.9-2.2-1.2-2.5-5.3-.7-11.1 1.6-5.6 2-4.2.6 2.5zM557 883c-.6 2.3-2.2 5.3-3.5 6.5-2.7 2.8-8.8 4.2-11.8 2.7-1.9-.9-1.4-1.1 3.1-1.1 4.2-.1 5.8-.6 7.7-2.5 2.1-2.1 4.3-7.6 4.6-11.6.1-1.1.2-1.1.6.2.2.9-.1 3.5-.7 5.8zm-435.9 7.9c-1.7 3.3-3.1 6.7-3.1 7.5 0 .8 2.1 2.2 4.7 3.2 2.5 1 4.1 2 3.5 2.2-1.6.5-10.2-3.5-10.2-4.8 0-1.3 7.4-15 7.8-14.5.2.2-1 3-2.7 6.4zm436.9.4c0 .2-1 1.2-2.2 2.3l-2.3 1.9 1.9-2.3c1.8-2.1 2.6-2.7 2.6-1.9zm-33 2.1c0 .2-.8 1-1.7 1.7-1.6 1.3-1.7 1.2-.4-.4 1.3-1.6 2.1-2.1 2.1-1.3zm156.2 1.5c.4.3.9 1.9 1.3 3.6.5 2.6.5 2.8-.5 1-.7-1.1-2.4-3-3.9-4.3l-2.6-2.4 2.5.7c1.4.4 2.8 1 3.2 1.4zm73.5.6c-1.6 1.4-4 2.5-5.5 2.5-2.4-.1-2.3-.2 1.2-1.5 2.1-.7 4.3-1.8 4.9-2.4.6-.6 1.3-1.1 1.7-1.1.3 0-.8 1.2-2.3 2.5zm-222.2 1.2c-4.8.5-6.3 1.6-6.8 5.1-.4 2.6-.4 2.6-.6-.4-.2-4.1 1.5-5.4 6.9-5.2l4.5.1-4 .4zm154.2 1.5c-.3.8-.6.5-.6-.6-.1-1.1.2-1.7.5-1.3.3.3.4 1.2.1 1.9zm1 6c-.3.7-.5.2-.5-1.2s.2-1.9.5-1.3c.2.7.2 1.9 0 2.5zm-5.2 2.7c-.7 1.3-5.9 1.3-9.5 0-1.9-.7-1.5-.8 2.2-.5 2.5.2 5.2 0 5.9-.5 1.6-1 2.3-.4 1.4 1zm-160.8 2.8c-.3 1-.5.4-.5-1.2 0-1.7.2-2.4.5-1.8.2.7.2 2.1 0 3zm373.3.8c0 .3-1.8-.4-4-1.5s-4-2.3-4-2.5c0-.3 1.8.4 4 1.5s4 2.3 4 2.5zM143.5 913c1.4 2.3 10.3 7.5 15 8.7l5 1.3-4.8-.5c-2.6-.2-6-1.1-7.5-2-3.4-1.9-13.5-11-10.5-9.6 1.2.6 2.5 1.6 2.8 2.1zm531-1.9c2.8.8 2.7.8-.8.4-5-.5-6.7.2-6.7 3 0 1.3-.4 2.7-1 3-1.1.7-1.4-3.4-.4-5.9.7-1.7 4-1.9 8.9-.5zM519 912c1.8 1.2-3.9 1.2-8.5 0-2.6-.7-2.4-.8 2-.9 2.8 0 5.7.4 6.5.9zm-292.1 7.9c-4.7 4.4-10.3 10.4-12.4 13.5-2.1 3.1-4 5.4-4.3 5.2-1.2-1.3 8.3-12.9 15.8-19.3 4.6-4 8.7-7.3 8.9-7.3.3 0-3.3 3.6-8 7.9zM905 915c1.9 1.1 3.1 1.9 2.5 1.9-.5 0-2.6-.8-4.5-1.9-1.9-1.1-3-1.9-2.5-1.9.6 0 2.6.8 4.5 1.9zm-397.5 0c1.9.5-1.4.8-9.2.9-12 .1-12.3.2-12.4 2.3-.1 1.8-.2 1.9-.6.5-1-3.7 1.4-4.7 10.6-4.6 4.7.1 10 .5 11.6.9zM661 926.5c-1.1 1.3-11.1 4.8-11.8 4.1-.1-.2 2-1.2 4.9-2.2 5.4-2 6.7-3.8 7.1-9.7.1-2 .3-1.4.5 1.6.3 2.7-.1 5.5-.7 6.2zm251.5-8.5c1.3.6 1.5.9.5.9-.8 0-2.2-.4-3-.9-1.8-1.2-.2-1.2 2.5 0zm-489.8 1.6c-.3.3-1.2.4-1.9.1-.8-.3-.5-.6.6-.6 1.1-.1 1.7.2 1.3.5zm495 0c-.3.3-1.2.4-1.9.1-.8-.3-.5-.6.6-.6 1.1-.1 1.7.2 1.3.5zM429.5 921c1.3.5 1.4.9.5.9-.8 0-2.4-.4-3.5-.9-1.3-.5-1.4-.9-.5-.9.8 0 2.4.4 3.5.9zm504 1.2c5.6 1.4 6.5 2.4 6.5 7.3 0 4.6-1.2 6.1-7 9l-3.5 1.7 4.2-3.6c4.6-4 6.4-8.9 4.1-11.2-.7-.8-5.4-2.3-10.3-3.4-7.1-1.5-7.8-1.8-3.5-1.4 3 .3 7.3 1 9.5 1.6zM400 927.7c-5.7 6.3-5.7 6.3-3.6 2.8 1.6-2.6 6.4-7.4 7.5-7.5.2 0-1.6 2.1-3.9 4.7zm30.7-1.8c6 1.9 16.3 6.7 16.3 7.5 0 .3-3.5-1.1-7.9-3-11-4.7-19.4-6.7-24.9-5.9-3.6.5-5.6 1.7-9.6 5.5-4.4 4.2-5.1 5.4-5.1 8.7 0 4.3 4.2 13.6 8.2 18.4 1.4 1.6 2.3 3.2 2 3.5-.3.3-2.1-1.6-4.1-4.3-3.8-5.2-7.6-14.1-7.6-17.7 0-3.3 3.8-8.4 9-12.4 4.3-3.3 4.7-3.4 11-2.9 3.6.4 9.3 1.5 12.7 2.6zm51.2 2.7c-2.5 3.1-8.3 4.6-17.4 4.8-8.1.1-9.6-.2-14.8-2.8-7.4-3.8-6.8-4.5.9-.9 4.9 2.3 7.1 2.8 13.4 2.7 9.9-.2 15.1-2 17-6.1 1.2-2.6 1.6-2.8 1.8-1.2.2 1.1-.2 2.7-.9 3.5zm-304.3 10.1c-.6.6-3.6-5.2-3.6-6.9.1-.7 1 .4 2.1 2.5 1.1 2.2 1.8 4.1 1.5 4.4zm305.4-5.3c0 .2-.7.7-1.6 1-.8.3-1.2.2-.9-.4.6-1 2.5-1.4 2.5-.6zm168 1.9c-3.3 1.3-7.2 3.9-9.9 6.7l-4.4 4.5 3.3-4.7c2.5-3.6 4.5-5.2 8.4-6.7 2.8-1.1 5.8-2 6.6-2 .8 0-1 1-4 2.2zm-14.2 4.7c-5.3 7.5-6.8 9-14.2 13.4-6.6 4-7.6 4.3-7.6 2.2 0-.9.7-1.2 1.8-.9 2.7.7 13.1-7.4 18.7-14.6 2.6-3.3 5-6.1 5.2-6.1.2 0-1.5 2.7-3.9 6zm-434.2 5.9L200 951l-6.3-.2-6.2-.2 6.1-.3 6.1-.4 2.3-4.9c1.3-2.8 2.5-4.8 2.7-4.6.3.2-.7 2.7-2.1 5.5zm-17.3 3.1c2.1.8 2 .9-.6.9-2.1.1-3-.5-3.7-2.5-1.5-3.9-1.1-5.3.6-2.1.8 1.5 2.5 3.2 3.7 3.7zm413.5-5.3c-1 .2-2.8.2-4 0-1.3-.2-.5-.4 1.7-.4 2.2-.1 3.2.1 2.3.4zm325.2.7c0 .2-.8 1-1.7 1.7-1.6 1.3-1.7 1.2-.4-.4 1.3-1.6 2.1-2.1 2.1-1.3zM613.8 948c.3 0 .3.3 0 .6-.7.6-7.8-2.2-7.8-3.1 0-.3 1.6.2 3.6 1s3.9 1.5 4.2 1.5zm-406.4 3.9c-.2.2-1 .1-1.9-.2-1.2-.5-1.3-1.1-.2-3.4l1.2-2.7.6 3c.3 1.6.4 3.1.3 3.3zm193.2 3.3c.8 1.6 1.3 2.8 1 2.8-.6 0-4.6-6.6-4.6-7.6s1.4.8 3.6 4.8zm-181.5 2.4c1.3 1.4 1.7 2.3.9 1.9-1.3-.5-4.6-4.5-3.7-4.5.2 0 1.4 1.1 2.8 2.6zm700.5 5c-.5 1.7-1.3 2.4-2.9 2.4-1.3 0-4 .9-6 1.9-2.5 1.3-3.4 1.5-2.6.5.6-.8 3-1.9 5.3-2.6 4.8-1.4 5.5-2.2 5.7-6.3.1-2.5.2-2.6.6-.6.3 1.2.2 3.4-.1 4.7zm-296-4.7c-.3.5 1.3 1.1 3.6 1.5 5.9 1 4.2 1.7-2.2.9-4.7-.5-5.1-.8-3.5-2 2.2-1.5 2.8-1.7 2.1-.4zM412 972c-.1 1.9-1 5.1-2.1 7-1.1 1.9-1.7 2.6-1.4 1.5 3.2-10.2 3.3-9.9-2-16.2l-4.8-5.8 5.1 5c4.4 4.1 5.2 5.5 5.2 8.5zm128-9.5c0 .2-1.3 1.1-3 2-3.8 1.9-4 1.1-.2-.9 3.1-1.7 3.2-1.8 3.2-1.1zm-315.2 7.6c-.3 2-.5 1.9-.9-.9-.3-2-.2-2.9.4-2.3.5.5.7 1.9.5 3.2zm308.2-3.7c0 .2-1.8 1.5-4 3-2.2 1.4-4 2.4-4 2.2 0-.5 7.1-5.6 7.7-5.6.2 0 .3.2.3.4zm373.4 6c-.4 1.2-1.7 1.6-4.8 1.4-3.5-.1-3.7-.2-.9-.5 1.7-.2 3.7-1.1 4.4-1.9 1.5-1.8 2.2-1.3 1.3 1zm-667.1.3c-2.4.2-6.2.2-8.5 0-2.4-.2-.5-.4 4.2-.4s6.6.2 4.3.4zm276.4 7.5c-4.6 4.6-9.1 9.4-10.1 10.8-1.4 2.1-1.4 1.9.1-.9 1.6-2.9 16.6-18.1 18-18.1.2 0-3.3 3.7-8 8.2zm143.3-.9c2.3 1.5 5.5 2.2 11.1 2.5l7.9.5.1-2.9c0-1.6.4-3.8.9-4.9.6-1.4.9-.3.9 3.9l.1 5.9-7.2-.7c-4-.4-9.1-1.2-11.2-1.7-4.4-1.2-9.6-5.8-9.6-8.6 0-1.4.5-1.1 1.9 1.1 1.1 1.6 3.4 3.8 5.1 4.9zm-348.5-1.7c1.4.9 5.1 2.7 8.2 4.1 5.3 2.2 5.5 2.4 2.1 1.9-3.4-.4-17.8-8.7-17.8-10.2 0-.3 1.1.1 2.5 1s3.6 2.3 5 3.2zm-19.3 10.1c-.5 1.7-3.7 1.6-9.2-.2l-4.5-1.5 4.9.7c8.7 1.1 8.1 1.6 7.9-6.2l-.1-7 .7 6.5c.4 3.6.5 7.1.3 7.7zM253 977.5c0 2 1.4 2.6 11 5.1 4.7 1.2 7.4 2.3 6 2.3-1.4 0-5.8-1-9.9-2.2-6.5-1.9-7.6-2.6-8.2-5-.4-1.6-.3-2.5.2-2.1.5.3.9 1.1.9 1.9zm437.9 8.8c.8.8 4.1 1.2 9.4 1.1 5.1-.1 7.3.2 5.7.6-4.2 1.3-13.5 1.1-15.4-.3-1.2-.9-1.9-3-2.2-6.3l-.3-4.9.8 4.3c.4 2.3 1.3 4.8 2 5.5zm-279.4.3c-1.9 4.3-3.5 7.1-3.5 6.2 0-1.7 6.1-15 6.7-14.5.1.2-1.3 3.9-3.2 8.3zm473.6-.3c-1.2 3-5 4.4-7.8 2.8-1.5-.9-1.2-1 2-1.1 3.4 0 4-.4 5-3 .7-1.7 1.3-2.7 1.5-2.2.1.5-.2 2.1-.7 3.5zm-545.8 8.8c1.8 0 4.1.5 5.2 1 1.5.7.9.8-2 .4-7.7-1.1-9.5-1.7-9.5-3.2 0-1.2.2-1.2 1.6.1.8.9 3 1.6 4.7 1.7zm64.2 1.6c-.3 2.1-1.6 5.1-2.7 6.8-1.1 1.6-1.7 2.3-1.4 1.5.2-.8 1.3-3.9 2.2-6.8 2.1-6.1 2.9-6.8 1.9-1.5zm461.5-3.3c0 1-6.2 4.8-11.5 7.1-7.2 3.2-7.1 2.3.3-1.4 3.1-1.6 6.6-3.6 7.7-4.5 2-1.5 3.5-2 3.5-1.2zM350.5 998c.3.6-.1.7-.9.4-1.8-.7-2.1-1.4-.7-1.4.6 0 1.3.4 1.6 1zm367.2 3.2c-.3.8-.6.5-.6-.6-.1-1.1.2-1.7.5-1.3.3.3.4 1.2.1 1.9zm1.3 3.3c.7.8.8 1.5.2 1.5-.5 0-1.5-.7-2.2-1.5-.7-.8-.8-1.5-.2-1.5.5 0 1.5.7 2.2 1.5zm-360.3 6c1 .4 4.5 1.1 7.8 1.5l6 .7-6.6.2c-7.6.1-10.5-1.5-11.4-6.4l-.5-3 1.4 3.1c.8 1.7 2.3 3.5 3.3 3.9zm45.9-4c-.4 1.1.1 1.5 1.7 1.5 2 .1 2 .2-.6 1.6-1.6.9-3.1 1.4-3.3 1.1-.6-.6 1.4-5.7 2.2-5.7.3 0 .4.7 0 1.5zM502 1032c0 21.9-.2 26-1.4 26s-1.3-.7-.5-3.2c.5-1.8.9-13.5.9-26 0-12.6.2-22.8.5-22.8s.5 11.7.5 26zm-85-19.6c0 1.2-.5.7-1.9-2.4-1.1-2.4-1.1-2.4.3-.6.9 1.1 1.6 2.4 1.6 3zm321.8 3.5c19.1 11.2 23.8 12.9 50.7 17.9 3.6.7 4.2 1 2 1.1-5.1.1-26.7-4.6-33.3-7.2-5.8-2.4-33.2-18.4-33.2-19.4 0-.5-1.2-1.2 13.8 7.6zm96.8-4.1c-1.7 1.6-1.8 1.6-.5-.5.7-1.2 1.5-2 1.8-1.7.3.2-.3 1.2-1.3 2.2zm-423.2.8c1.1 2.8.6 3.8-.9 1.8-.8-1-1.5-2.2-1.5-2.7 0-1.3 1.8-.7 2.4.9zm-3.4-.1c0 .2-1 .9-2.2 1.5-2.2 1.1-2.2 1-.4-.4 2.1-1.7 2.6-1.9 2.6-1.1zm-26.7 7.5c2.1.8 2 .9-.5.9-1.6.1-2.8-.3-2.8-.8s-.3-1.8-.6-2.8c-.5-1.7-.5-1.7.6 0 .6 1 2.1 2.2 3.3 2.7zm30.7-2c0 1.3-1.1 1.3-3 0-1.2-.8-1.1-1 .8-1 1.2 0 2.2.4 2.2 1zm-14.5 1.4c-4 1.8-9.2 3-8.2 1.9.8-.8 8.3-3.1 10.2-3.1.6 0-.3.5-2 1.2zm10.5 2.6c0 .5-1.5 1-3.2 1-1.8 0-4.4.3-5.8.6-2.2.4-2.1.3.5-1 3.5-1.7 8.5-2 8.5-.6zm422.2 3c-.9 6.1-9.2 9.6-24.5 10.4l-9.2.5 10.4-1.4c16.1-2.2 19.4-3.6 21.8-9.3 1.7-4 2.1-4.1 1.5-.2zm-442.3.4c-1 .8-8.9 1.3-8.9.5 0-.5 2.1-.9 4.7-.9 2.5 0 4.4.2 4.2.4zm5.7 19.3c8.6 8.5 11.2 9.5 16.9 6.5l4-2.2-3.3 3c-4 3.7-5.6 3.7-11.3.2-5.8-3.7-19.9-19.7-19.9-22.6 0-.5 1.4 1.1 3.2 3.5 1.7 2.4 6.4 7.6 10.4 11.6zm45.8 15.4c4.9 2.2 9.3 2.4 16.6.5 7.8-2 7.4-1.2-.7 1.4-6.6 2.2-7.1 2.2-12.4.6-6.3-1.8-10.9-4.9-10.9-7.4 0-1.3.4-1.1 1.6.7.9 1.3 3.5 3.2 5.8 4.2z"/><path d="M158.7 404.8c-4.8 5.3 1.1 12.5 7.3 9.2 4.2-2.3 4.5-7.6.6-10.2-2-1.4-6.3-.8-7.9 1zM1066.7 1072.8c-1 1.1-1.7 3.5-1.7 5.9 0 3.2-.4 4.2-2 4.6-1.9.5-2 1.4-2 12v11.6l-3.2-1c-8-2.2-18.5-.2-20.7 4-1.6 3-3.7 3.8-12.4 5-4.3.6-9.5 2-11.7 3.1-2.2 1.1-5.7 2-7.8 2-2.5 0-4.9.8-6.7 2.1-2.3 1.9-2.6 2.7-2 5.6 1 5.6-.2 8.8-4 10.6-4.7 2.3-6.9 6.8-6 12.6 1.5 10 1.3 10.6-2.3 10.9-4.4.4-4.9 2.2-2.3 8.2 1.1 2.7 2.1 6.5 2.1 8.5 0 5 1.4 7.1 5 7.9 2.5.5 3.1 1 2.8 2.7-.3 2.3-1.4 3.1-6.3 4.5-4.5 1.4-6.2 5.2-4.7 10.3 1.9 6.1 4.6 7.5 12.2 6.1 4.2-.8 6.6-.8 7.3-.1 1.7 1.7-.1 4-4.2 5.1-2.2.6-4.7 2-5.6 3.3-1.5 2.2-2 9.1-.9 12.2.9 2.2 5.7 4.5 9.4 4.5 3.6 0 3.7.6.9 2.9-1.7 1.4-2.2 3.1-2.6 8.7-.2 4.7 0 7.4.9 8.5 2.5 3.1 11.6 7.9 16.8 8.9 6.5 1.2 8 2.4 8 6.2 0 1.6.4 3.7 1 4.7 1.1 2.2 7.9 5.1 11.9 5.1 3.6 0 7.1-4 7.1-7.9 0-1.5 1.2-4.3 2.6-6.2 3.3-4.4 5.4-9.4 5.4-12.8 0-2.5.3-2.7 2.9-2.3 3.4.5 5.7-2.5 4.5-6-.4-1.5.1-2.6 2.2-4.3 2.9-2.3 2.9-2.3 2.6-12.9-.2-8.5 0-10.8 1.2-11.2.8-.3 1.9-2.4 2.5-4.7.7-2.8 2.5-5.7 5.5-8.6 4.4-4.3 7.4-10.1 6.2-12-1-1.6.5-4.1 2.5-4.1 3.9 0 4.3-3.2 4.4-31.6 0-29.6-.1-30.4-5.7-30.4h-2.9l.3-5.8c.3-5 .6-5.7 2.5-6 4.3-.6 4.8-2.5 5.1-21.2.4-17.6.3-17.8-1.9-19.4-3.4-2.3-14-2.2-16.2.2zm10.6 1.8 3.7.7-.2 7.1-.2 7.1-.3-6.6-.4-6.7-3.7-.5c-4.8-.6-6.2.7-6.2 5.4 0 2.1-.3 4-.7 4.2-.5.3-.6-1.8-.4-4.6.4-6.7 1.2-7.2 8.4-6.1zm-10.7 14c-.3.9-.6 3.4-.7 5.7 0 3.3-.2 3.8-.9 2.2-1-2.4-1.3-7.9-.3-8.8 1.2-1.3 2.5-.7 1.9.9zm14 19c-.3.8-1.3 1.4-2.1 1.4-1.5 0-1.5-.2-.1-2.2.9-1.2 1.7-3.2 1.7-4.3.1-1.2.4-.9.6.8.3 1.6.2 3.5-.1 4.3zm-35.2 2.8c-1.8.8-3.5 1.9-3.8 2.5-1.1 1.7-2.6 1.3-1.9-.5.6-1.8 3.8-3.3 6.8-3.3 1.4 0 1.1.4-1.1 1.3zm12.6-.4c1.3.9 1.3 1 0 .9-.8-.1-2.6-.5-4-.9l-2.5-.8 2.5-.1c1.4 0 3.2.4 4 .9zm-34 9.9c-4.1 1-8.6 2.1-10 2.5-2.3.6-2.3.6.3-.9 3.1-1.8 9.5-3.3 14.2-3.3 1.7 0-.4.8-4.5 1.7zm49.4 3.6c.5 2.2.4 2.6-.4 1.5-.5-.8-1-2.4-1-3.4 0-2.6.6-1.8 1.4 1.9zm-68.9 1.2c-1.1.3-2.6 1-3.2 1.5-.8.6-1.3.7-1.3.1 0-1.6 1.2-2.3 3.9-2.2 2.1.1 2.2.2.6.6zm76.9 8c.8 5 .8 38.3 0 45-.5 3.7-1.1 5.3-2.2 5.3-1.2 0-1.2-.2-.1-1.7 1.7-2 2.6-39 1.1-47.1-.5-2.8-.6-5.2-.2-5.2.4 0 1 1.7 1.4 3.7zm-87.9 11.5c-2.3 2.8-2.6 3.8-2.2 7.8l.6 4.5-1.4-3.8c-1.6-4.2-1.2-6.1 1.8-9.5 3.2-3.5 4.2-2.6 1.2 1zM991 1164c-.6 1.1-1.6 2-2.2 2-.6 0-.3-.9.7-2s2-2 2.2-2c.2 0-.1.9-.7 2zm-4.4 4.6c.2 2.8.1 2.8-1.5-.4-.9-1.7-.9-2.2.1-2.2.7 0 1.4 1.2 1.4 2.6zm4.7 13.3c2.2 1.1 2.2 1.1-.3.8-1.9-.1-2.5-.8-2.7-2.7-.1-1.4 0-1.8.3-.9s1.5 2.1 2.7 2.8zm83.3 12.8c-.3 1.1-2.3 3.5-4.3 5.4l-3.6 3.4 3.6-4.9c2.1-2.7 3.7-5.3 3.7-5.9 0-.6.3-.8.6-.4.3.3.3 1.4 0 2.4zm-87 3.6c-1.1.8-1.7 2.3-1.4 3.8.3 2.1.9 2.5 5.8 2.9l5.5.5-5.2.9c-6.2.9-7 .5-7.9-3.9-.7-4.1 0-5.5 2.9-5.5 1.9 0 2 .1.3 1.3zm17.3 11.1c-.3.3-1.1-.5-1.8-1.7-1.3-2.1-1.2-2.1.5-.5 1 1 1.6 2 1.3 2.2zm57.8 3.1c-.4.8-1.1 1.5-1.7 1.5-.6 0-.6-.7.2-2 1.4-2.2 2.4-1.9 1.5.5zm-65.4 7.2c-5.4 2.7-5.5 7.1-.2 9.8 1.5.8 4.1 1.5 5.8 1.5 1.6 0 3.3.5 3.7 1.1.4.7 0 .9-1.2.6-1.1-.3-3.8-.9-6.2-1.2-5.3-.8-7.7-3.9-6.7-8.5.7-3 3.1-4.9 6.5-4.9.8 0 0 .8-1.7 1.6zm62.6 11.4c.1 5.1-.2 5.8-2.6 7.4l-2.8 1.8 2.4-2.6c2.2-2.5 2.3-3.1 1.8-11.4-.4-6.1-.3-7.6.3-4.8.5 2.2.9 6.5.9 9.6zm-50.9 7.4c-.7.8-1.8 1.5-2.6 1.5-2.4 0-4.4 3.1-4.4 7 0 3.3.6 4.4 3.9 7.2 2.1 1.8 6.1 4 8.7 5 4.9 1.7 4.9 1.7.9 1.1-2.2-.3-6.2-2-8.8-3.6-4.9-3-6.9-6-6.2-9.3 1.4-7.1 1.5-7.2 4.5-7.9 1.6-.4 3.2-1.1 3.5-1.6.4-.5.9-.9 1.2-.9.3 0 0 .7-.7 1.5zm46 7.5c0 .5-.5 1-1.1 1-.5 0-.7-.5-.4-1 .3-.6.8-1 1.1-1 .2 0 .4.4.4 1zm-9.9 13.9c-1.2 2.2-2.6 4.3-3.2 4.6-.6.4-.2-1 .9-3.1 1.1-2.2 2.3-5.5 2.8-7.4.8-3.3.9-3.4 1.2-.8.2 1.4-.6 4.5-1.7 6.7zm-12.4 15.1c.9 0 1.3.3 1 .6-1 1.1-6.7-1.7-6.7-3.2 0-1 .6-.8 2 .6 1.1 1.1 2.8 2 3.7 2zm5.9-.5c-.3.8-1.3 1.5-2.3 1.5-1.7-.1-1.7-.1 0-1.1.9-.5 1.7-1.8 1.8-2.7 0-1.1.2-1.2.6-.4.3.7.2 1.9-.1 2.7z"/></g></svg>