<?xml version="1.0" standalone="no"?>
<!DOCTYPE svg PUBLIC "-//W3C//DTD SVG 20010904//EN"
 "http://www.w3.org/TR/2001/REC-SVG-20010904/DTD/svg10.dtd">
<svg version="1.0" xmlns="http://www.w3.org/2000/svg"
 width="1086.000000pt" height="1280.000000pt" viewBox="0 0 1086.000000 1280.000000"
 preserveAspectRatio="xMidYMid meet">
<metadata>
Created by potrace 1.15, written by Peter Selinger 2001-2017
</metadata>
<g transform="translate(0.000000,1280.000000) scale(0.100000,-0.100000)"
fill="#d2ab74" stroke="none">
<path d="M6150 12790 c-96 -13 -218 -56 -272 -95 -85 -62 -131 -169 -193 -454
-40 -179 -67 -264 -108 -333 -62 -107 -183 -187 -342 -226 -61 -15 -128 -21
-275 -25 -237 -6 -290 -19 -470 -114 -215 -112 -238 -135 -247 -243 -6 -67 5
-88 58 -110 47 -20 34 -27 -48 -26 l-78 1 -14 -32 c-19 -43 -57 -57 -132 -49
-74 7 -79 10 -79 45 0 32 -31 69 -63 75 -12 3 -58 7 -102 9 -52 3 -108 14
-160 32 -122 43 -341 150 -354 173 -20 38 -13 141 16 222 24 69 25 78 12 105
-8 16 -34 41 -59 55 -41 23 -55 25 -159 24 l-113 -2 -73 74 c-58 60 -77 74
-102 74 -40 0 -83 -48 -84 -93 -3 -76 6 -103 48 -148 l24 -27 -31 -56 c-40
-70 -37 -97 22 -222 l43 -89 -1 -240 c0 -217 -15 -410 -40 -511 -7 -29 -28
-25 -106 19 -36 20 -71 37 -76 37 -5 0 -12 23 -14 51 -6 59 -17 69 -75 69 -30
0 -50 -7 -70 -24 -24 -21 -28 -31 -27 -73 l2 -48 -13 31 c-21 49 -38 57 -105
52 l-60 -4 0 37 c0 69 -58 108 -163 109 -53 0 -94 -20 -154 -74 l-52 -47 -27
41 c-15 22 -54 111 -86 198 -72 191 -96 234 -145 258 -44 21 -191 32 -219 16
-13 -7 -26 -6 -47 4 -17 10 -49 14 -85 12 l-57 -3 1 -58 1 -59 -71 8 c-39 4
-104 7 -145 7 -71 -1 -75 1 -108 33 l-34 34 -197 0 c-122 -1 -227 -6 -274 -14
-104 -19 -184 -56 -206 -97 -9 -17 -31 -52 -48 -78 -43 -64 -48 -93 -24 -124
27 -34 90 -48 242 -54 131 -6 156 -12 143 -33 -6 -10 -40 -12 -146 -7 -136 6
-172 0 -129 -23 15 -8 20 -21 20 -54 0 -45 10 -56 52 -56 38 0 86 -31 97 -62
15 -42 16 -41 -26 -34 -79 12 -304 27 -322 21 -17 -5 -19 -13 -14 -63 6 -71
32 -98 100 -107 109 -15 120 -21 149 -82 23 -47 29 -74 32 -150 l4 -93 75 0
c87 0 107 8 131 56 l18 36 52 -59 c44 -51 51 -66 54 -108 3 -53 5 -55 88 -85
30 -11 91 -41 135 -67 44 -25 107 -60 140 -77 49 -25 59 -35 57 -53 -4 -24 32
-55 54 -46 9 3 14 -8 16 -43 2 -38 8 -51 31 -68 26 -19 40 -21 174 -19 81 2
143 0 140 -4 -4 -3 -42 -18 -84 -32 l-78 -26 -3 -40 c-5 -66 10 -76 124 -86
54 -5 121 -14 149 -20 l49 -12 -41 -36 c-22 -20 -46 -46 -52 -58 -14 -28 -14
-125 0 -157 11 -23 71 -56 102 -56 20 0 137 -59 137 -69 0 -5 -21 -13 -47 -17
-50 -7 -83 -27 -83 -51 0 -8 9 -31 20 -53 22 -42 60 -60 133 -60 32 0 37 -3
37 -23 0 -13 -7 -46 -15 -73 -13 -45 -20 -52 -72 -79 -46 -24 -62 -39 -82 -78
-29 -57 -28 -59 59 -188 53 -79 81 -146 109 -255 16 -63 66 -129 147 -195 65
-53 74 -64 74 -93 0 -41 23 -62 78 -71 60 -10 176 -70 197 -102 17 -25 16 -28
-9 -90 -31 -75 -33 -121 -7 -171 21 -41 89 -109 163 -161 27 -19 47 -35 45
-37 -1 -1 -42 9 -92 22 -112 30 -116 30 -150 -2 -27 -25 -28 -25 -46 -7 -9 10
-31 58 -49 107 -17 50 -36 96 -42 103 -6 7 -27 13 -48 13 -103 0 -132 -171
-49 -284 27 -37 28 -44 23 -106 -9 -94 16 -138 174 -304 124 -130 165 -189
178 -254 6 -28 4 -32 -14 -32 -31 0 -89 73 -166 208 -65 115 -86 139 -107 127
-4 -3 -22 -52 -39 -108 -18 -56 -67 -210 -110 -342 -132 -407 -154 -483 -140
-500 7 -8 21 -15 32 -15 30 0 58 -19 58 -39 0 -16 -10 -19 -60 -23 -33 -2 -65
-9 -70 -14 -6 -6 -41 -96 -79 -200 -154 -428 -320 -788 -466 -1015 -50 -77
-86 -113 -177 -175 -82 -56 -102 -84 -102 -146 0 -59 17 -79 86 -101 67 -21
112 -49 134 -82 17 -26 16 -28 -24 -106 -55 -105 -45 -134 56 -164 98 -29 110
-36 185 -103 84 -75 109 -88 197 -98 86 -9 99 -17 106 -65 4 -23 17 -53 29
-68 13 -14 28 -46 34 -69 7 -24 21 -48 34 -56 13 -8 78 -18 164 -24 l143 -10
45 -45 c37 -37 45 -52 45 -81 0 -53 28 -76 93 -76 28 0 82 -3 118 -6 60 -6 66
-9 76 -35 14 -36 56 -54 203 -85 63 -13 138 -29 167 -36 47 -11 54 -10 74 8
19 17 21 26 16 92 -4 58 -3 74 9 79 7 3 44 -17 81 -45 85 -62 116 -78 173 -87
77 -11 80 -13 80 -50 0 -44 24 -60 115 -75 39 -6 76 -15 83 -19 7 -4 15 -25
19 -47 11 -73 46 -96 158 -104 l79 -5 18 -79 c19 -83 35 -108 138 -220 104
-113 202 -137 261 -64 29 37 121 19 135 -26 14 -48 58 -77 149 -100 54 -15 58
-14 148 16 179 59 308 72 382 37 25 -12 51 -19 58 -16 22 8 27 80 27 376 l1
276 38 55 c48 70 165 172 269 233 182 108 469 207 598 207 41 0 74 -4 74 -10
0 -5 15 -13 33 -18 27 -7 34 -14 43 -51 14 -60 43 -81 111 -81 69 0 179 -25
220 -50 21 -12 33 -30 38 -52 8 -39 49 -86 90 -103 17 -7 74 -18 128 -25 118
-14 126 -10 128 64 l1 51 10 -45 c17 -86 22 -95 62 -114 36 -18 46 -18 138 -6
54 7 102 10 105 6 3 -3 0 -32 -7 -64 -16 -76 -8 -96 40 -116 21 -8 90 -47 152
-86 201 -126 284 -158 522 -200 78 -13 261 -13 328 1 73 15 144 55 156 88 6
14 13 45 15 69 7 57 49 117 101 141 22 10 73 33 113 51 39 18 86 47 104 66 31
32 36 34 104 34 42 0 78 5 87 12 9 7 24 40 33 73 9 33 22 63 28 67 6 4 40 4
74 1 52 -5 67 -3 83 12 11 10 20 26 20 36 0 21 29 39 63 39 14 0 35 9 48 19
22 18 24 26 22 94 -2 75 -2 76 33 106 19 17 57 42 83 56 82 41 109 97 81 169
-15 40 -50 55 -173 76 -123 21 -190 46 -352 133 -124 66 -135 80 -135 172 0
59 7 93 35 171 19 53 35 111 35 130 0 31 2 33 43 39 24 4 49 10 55 14 15 9 24
271 10 288 -6 8 -36 13 -77 13 -104 0 -106 2 -141 91 -40 105 -54 172 -41 197
9 17 25 20 148 24 160 5 219 24 277 89 54 59 62 100 41 211 -19 103 -36 138
-65 138 -23 0 -35 39 -44 145 -7 71 -27 105 -62 105 -22 0 -46 46 -42 81 3 32
5 33 63 44 105 19 135 55 143 171 6 93 -1 120 -38 139 -17 9 -30 24 -30 33 0
10 -16 41 -35 68 -19 27 -35 61 -35 76 0 15 14 62 30 104 42 103 47 150 21
191 -28 45 -71 53 -211 44 -101 -7 -125 -12 -199 -44 -98 -43 -120 -61 -167
-138 -39 -64 -70 -82 -135 -77 l-44 3 66 33 c102 50 104 53 104 196 0 97 4
128 18 158 24 48 122 155 150 164 12 3 61 24 109 46 101 47 108 58 108 175 0
93 -1 92 195 208 169 102 251 163 313 236 47 57 55 105 26 160 -18 36 -15 68
8 83 14 8 28 -1 82 -52 65 -63 78 -68 151 -63 43 3 124 43 170 84 l40 35 5
114 c5 116 8 127 53 172 16 15 18 27 12 76 -7 57 -7 57 28 77 38 23 47 48 48
142 1 112 13 162 47 192 41 36 44 43 107 228 91 265 80 249 262 386 121 91
166 148 183 232 14 67 3 117 -33 151 -31 29 -222 101 -320 120 -72 14 -82 19
-110 55 -68 84 -102 119 -129 133 -29 15 -39 13 -71 -14 -12 -11 -35 -15 -75
-13 -104 3 -107 5 -127 72 -10 32 -24 64 -31 70 -13 11 -59 15 -141 11 -47 -2
-53 -5 -59 -27 -3 -14 -10 -25 -14 -25 -10 0 -35 83 -59 197 -11 50 -29 109
-40 131 -21 42 -69 72 -116 72 -30 0 -61 14 -92 43 -19 17 -29 19 -70 12 -52
-9 -194 -9 -230 0 -16 4 -25 17 -33 48 -6 23 -14 49 -19 57 -12 22 -61 23
-172 5 -55 -9 -106 -15 -113 -12 -7 3 -16 28 -20 56 -4 28 -9 58 -13 67 -3 9
-54 56 -112 106 -58 50 -137 120 -175 156 -67 63 -69 66 -67 111 1 25 17 112
37 194 41 174 42 227 3 241 -56 19 -75 6 -237 -166 -61 -64 -103 -83 -169 -74
-65 9 -152 53 -164 83 -7 18 -1 58 21 153 35 147 36 169 13 217 -22 48 -65 64
-195 73 -123 8 -164 26 -154 64 11 45 9 156 -4 171 -17 21 -75 35 -142 35
-109 0 -106 -5 -110 175 l-3 157 -28 24 c-41 35 -120 55 -244 61 -155 8 -149
-2 -145 218 2 130 -1 175 -10 182 -41 31 -332 52 -468 33z m335 -40 c30 -4 -9
-5 -95 -2 -288 10 -478 -47 -547 -166 -49 -82 -145 -436 -130 -476 3 -8 38
-31 77 -51 38 -19 70 -37 70 -40 0 -4 -150 64 -163 75 -7 6 48 267 79 370 39
129 91 197 189 241 52 23 82 32 190 53 36 7 279 4 330 -4z m98 -22 c14 -11 15
-24 9 -88 l-7 -75 -5 78 c-4 52 -11 81 -21 88 -7 5 -9 9 -3 9 5 0 18 -6 27
-12z m322 -424 c107 -27 105 -25 103 -172 l-2 -127 -6 130 -5 129 -57 18 c-31
9 -94 21 -140 26 l-83 9 65 2 c36 0 93 -6 125 -15z m-1105 -305 c78 -40 98
-55 140 -105 20 -24 18 -23 -15 7 -54 48 -88 70 -167 107 l-68 31 -15 -27
c-17 -31 -19 -25 -5 13 12 32 21 30 130 -26z m-2971 -85 c18 -14 37 -36 43
-48 9 -16 2 -13 -26 12 -40 35 -70 41 -80 16 -14 -36 -5 -92 20 -130 24 -36
25 -37 4 -19 -26 23 -50 74 -50 107 0 26 35 88 49 88 5 0 23 -12 40 -26z
m3239 -73 c12 -6 50 -18 84 -26 l63 -14 -54 6 c-89 9 -121 25 -170 84 l-46 54
51 -46 c27 -26 60 -52 72 -58z m1186 49 c21 -8 26 -16 25 -42 -1 -18 -5 -44
-10 -58 -6 -19 -7 -16 -3 15 7 58 -10 76 -82 85 l-59 7 52 2 c28 0 63 -3 77
-9z m-1726 -117 l-37 -38 39 -28 c21 -15 53 -46 71 -70 27 -34 19 -29 -42 28
-40 38 -76 71 -79 73 -5 4 70 72 80 72 2 0 -12 -17 -32 -37z m-2563 9 c-3 -3
-11 0 -18 7 -9 10 -8 11 6 5 10 -3 15 -9 12 -12z m262 -15 c37 -19 51 -57 35
-90 -9 -19 -10 -17 -9 17 2 34 -2 42 -30 58 -19 12 -65 23 -115 28 l-83 9 85
-3 c56 -2 96 -8 117 -19z m3036 -19 c19 -10 22 -35 7 -58 -8 -11 -9 -8 -4 11
7 32 -1 38 -75 55 l-56 13 55 -6 c30 -3 63 -9 73 -15z m-738 -99 c92 -88 102
-113 88 -231 l-10 -83 1 101 c1 95 0 102 -28 143 -16 23 -52 61 -79 83 l-49
41 -50 -16 c-28 -9 -47 -13 -44 -10 7 8 78 41 88 42 5 1 42 -31 83 -70z m785
5 c0 -14 -4 -23 -9 -20 -5 3 -7 15 -4 26 7 28 13 25 13 -6z m1000 0 c0 -2 -9
0 -20 6 -11 6 -20 13 -20 16 0 2 9 0 20 -6 11 -6 20 -13 20 -16z m-4526 -45
c-18 -45 -11 -85 28 -162 11 -22 18 -41 15 -43 -8 -8 -67 133 -67 160 0 25 25
86 35 86 3 0 -2 -18 -11 -41z m4823 -14 c27 -31 30 -84 9 -160 -13 -49 -13
-49 -8 45 6 113 3 117 -91 137 l-62 13 65 -4 c55 -4 68 -9 87 -31z m-2724 9
c-125 -10 -176 -19 -230 -39 -86 -33 -280 -137 -317 -171 -51 -48 -62 -119
-23 -154 l22 -22 -27 12 c-31 14 -37 39 -25 97 11 59 44 87 188 165 195 106
267 126 459 126 l115 0 -162 -14z m1505 9 c-10 -2 -26 -2 -35 0 -10 3 -2 5 17
5 19 0 27 -2 18 -5z m-31 -39 c-3 -3 -12 -4 -19 -1 -8 3 -5 6 6 6 11 1 17 -2
13 -5z m86 -16 c23 -12 40 -31 58 -63 6 -11 -6 -3 -27 17 -22 20 -50 41 -64
47 -19 7 -20 10 -7 10 10 1 28 -4 40 -11z m195 -79 l57 -7 -64 2 c-63 1 -64 2
-99 46 l-36 45 42 -40 c36 -34 51 -41 100 -46z m-3421 9 c-2 -13 -4 -3 -4 22
0 25 2 35 4 23 2 -13 2 -33 0 -45z m3533 -8 c11 -8 7 -9 -15 -4 -37 8 -45 14
-19 14 10 0 26 -5 34 -10z m10 -59 c5 -11 10 -26 9 -33 0 -7 -5 -3 -11 9 -8
16 -23 24 -57 28 -70 10 -72 13 -9 14 47 1 59 -3 68 -18z m94 -48 c17 3 42 8
56 11 20 5 19 4 -5 -8 -73 -34 -92 -29 -100 24 l-5 35 12 -33 c10 -30 15 -33
42 -29z m175 -35 c15 -41 4 -51 -11 -10 -14 37 -16 37 -65 17 -20 -8 -38 -13
-41 -11 -6 7 59 34 85 35 15 1 24 -8 32 -31z m113 -1 c66 -2 67 -17 2 -17 -53
0 -84 14 -84 37 0 15 1 15 13 -1 9 -13 28 -18 69 -19z m-3736 -45 c-5 -4 -106
46 -106 53 0 3 25 -7 55 -22 30 -15 53 -29 51 -31z m4776 16 c-2 -20 -12 -69
-22 -110 -20 -74 -20 -69 2 59 6 40 9 75 6 79 -10 10 -50 -17 -113 -75 -48
-46 -53 -49 -26 -16 56 68 104 105 131 103 22 -3 25 -7 22 -40z m-2541 -123
c-6 -137 -7 -145 -15 -88 -7 57 -5 100 10 206 10 67 11 36 5 -118z m-44 113
c-3 -7 -5 -2 -5 12 0 14 2 19 5 13 2 -7 2 -19 0 -25z m1825 -23 c35 -30 81
-64 103 -75 22 -11 35 -20 28 -20 -28 0 -68 23 -117 70 -28 27 -65 56 -81 64
-19 10 -24 16 -13 16 9 0 45 -25 80 -55z m-147 15 c-16 -4 -50 -7 -75 -7 l-45
0 45 7 c25 4 59 7 75 7 l30 1 -30 -8z m122 -56 c40 -39 46 -47 18 -25 -75 58
-100 81 -88 81 7 0 38 -25 70 -56z m-3912 26 c3 -6 -1 -7 -9 -4 -18 7 -21 14
-7 14 6 0 13 -4 16 -10z m-2180 -51 c15 -7 9 -8 -22 -4 -27 3 -43 1 -43 -5 0
-6 -5 -8 -10 -5 -33 20 35 33 75 14z m224 -10 c89 -19 104 -40 187 -259 23
-63 41 -116 40 -118 -2 -1 -27 56 -56 127 -87 218 -109 241 -234 241 -43 0
-57 3 -46 10 20 13 48 12 109 -1z m6076 -27 c-8 -8 -25 10 -25 26 0 13 2 13
14 -4 8 -10 13 -21 11 -22z m-6764 -19 l24 -26 -25 16 c-46 32 -471 18 -557
-18 -21 -9 -53 -30 -70 -47 -36 -35 -46 -26 -13 10 59 63 191 88 481 91 135 1
136 1 160 -26z m3067 -16 c8 -16 11 -31 8 -34 -3 -3 -10 6 -15 20 -7 17 -21
29 -38 33 -47 10 -50 13 -8 11 33 -2 42 -7 53 -30z m4032 -2 c-13 -14 -33 -25
-44 -25 -16 0 -12 6 19 25 51 31 54 31 25 0z m-3661 -11 c2 -2 -9 -4 -25 -4
-16 0 -39 -7 -51 -15 -20 -14 -21 -14 -10 9 10 21 17 23 47 19 19 -3 37 -7 39
-9z m135 -69 c56 -116 71 -333 25 -387 -19 -23 -19 -23 -3 17 24 59 15 249
-15 327 -27 71 -56 108 -84 109 -21 0 -21 1 -2 9 27 10 46 -7 79 -75z m3173
79 c-3 -3 -12 -4 -19 -1 -8 3 -5 6 6 6 11 1 17 -2 13 -5z m48 -36 c-4 -18 -11
-40 -16 -48 -6 -10 -7 -4 -2 15 4 17 7 38 7 48 0 9 4 17 9 17 5 0 5 -15 2 -32z
m85 22 c12 -8 9 -10 -12 -10 -16 0 -28 5 -28 10 0 13 20 13 40 0z m-6677 -17
c-13 -2 -33 -2 -45 0 -13 2 -3 4 22 4 25 0 35 -2 23 -4z m4537 -308 c-7 -33
-20 -76 -30 -96 -22 -42 -90 -114 -140 -148 -23 -16 -8 4 41 55 43 43 84 93
93 110 22 45 36 142 38 274 l2 115 4 -125 c2 -69 -2 -152 -8 -185z m2071 176
c-11 -46 -23 -86 -27 -90 -3 -3 -4 3 -1 14 3 11 8 38 12 60 9 55 28 120 32
108 2 -5 -5 -47 -16 -92z m-3162 4 l0 -20 -9 20 c-5 11 -9 29 -9 40 l0 20 9
-20 c5 -11 9 -29 9 -40z m-4349 -4 c-29 -58 -9 -68 170 -81 l105 -8 -120 2
c-171 4 -207 25 -165 94 27 45 35 40 10 -7z m7455 -33 c-15 -75 -27 -99 -58
-115 l-32 -16 31 29 c21 19 35 46 43 82 14 56 27 73 16 20z m545 -85 c15 -17
10 -14 -13 7 -34 32 -36 38 -30 75 l7 40 6 -47 c4 -29 15 -58 30 -75z m-3643
55 c-3 -7 -5 -2 -5 12 0 14 2 19 5 13 2 -7 2 -19 0 -25z m-4034 -35 c-7 -2
-21 -2 -30 0 -10 3 -4 5 12 5 17 0 24 -2 18 -5z m55 -38 c-3 -3 -9 2 -12 12
-6 14 -5 15 5 6 7 -7 10 -15 7 -18z m7830 -164 c28 -24 52 -47 52 -51 0 -10
-246 -359 -373 -528 l-107 -143 0 -185 0 -184 52 -83 c28 -45 58 -93 66 -107
34 -59 -21 18 -74 102 l-54 88 0 186 0 186 109 147 c59 80 167 229 240 330
l131 184 -108 106 c-60 58 -82 81 -48 51 34 -31 85 -75 114 -99z m-6525 39
c11 -13 10 -13 -6 -1 -18 14 -57 82 -57 98 0 4 12 -12 26 -37 14 -25 31 -52
37 -60z m337 77 c17 -9 26 -22 27 -42 l2 -30 -10 26 c-12 32 -47 49 -103 49
-45 0 -90 -24 -150 -79 -16 -14 -25 -20 -21 -12 11 18 71 72 99 88 28 16 124
16 156 0z m5379 -19 c-46 -43 -88 -115 -111 -192 -17 -58 -18 -59 -13 -16 7
66 72 189 114 217 48 32 51 29 10 -9z m-7257 -9 c-30 -12 -24 -30 15 -43 18
-6 35 -15 40 -20 5 -5 0 -6 -12 -1 -11 4 -32 10 -47 13 -23 3 -28 9 -28 33 0
25 4 29 28 28 27 0 27 0 4 -10z m188 1 c-8 -5 -44 -9 -80 -8 l-65 2 70 6 c39
4 75 7 80 8 6 1 3 -3 -5 -8z m2367 -52 c-2 -13 -4 -5 -4 17 -1 22 1 32 4 23 2
-10 2 -28 0 -40z m1670 10 c-3 -8 -6 -5 -6 6 -1 11 2 17 5 13 3 -3 4 -12 1
-19z m1093 -15 c-11 -17 -11 -17 -6 0 3 10 6 24 7 30 0 9 2 9 5 0 3 -7 0 -20
-6 -30z m-3062 -35 l-1 -53 -6 45 c-6 42 -8 45 -36 45 -29 0 -30 -3 -41 -60
l-12 -60 -1 56 c-1 65 10 79 61 79 l38 0 -2 -52z m1939 -30 c-32 -43 -40 -72
-32 -114 4 -26 14 -38 38 -48 l32 -14 -33 -1 c-38 -1 -52 24 -52 94 0 35 6 52
30 78 17 19 31 43 31 53 1 17 2 17 6 2 2 -10 -7 -32 -20 -50z m1108 15 c0 -32
39 -58 129 -85 l61 -18 -49 5 c-45 5 -98 29 -150 68 -15 11 -17 17 -7 35 15
28 17 28 16 -5z m-3242 5 c9 -7 19 -29 23 -48 l6 -35 -19 35 c-15 30 -24 36
-63 40 -36 5 -40 7 -20 12 42 9 56 8 73 -4z m482 -48 c-4 -28 -9 -49 -12 -47
-2 3 -1 28 3 56 4 28 9 50 11 47 3 -3 2 -28 -2 -56z m-2406 -10 c0 -10 -3 -8
-9 5 -12 27 -12 43 0 25 5 -8 9 -22 9 -30z m2242 -35 c49 -29 79 -54 83 -68
11 -40 5 -42 -14 -5 -15 29 -35 44 -89 70 -39 18 -70 36 -70 41 -1 13 11 8 90
-38z m2935 -3 c-2 -1 -17 5 -34 15 -30 17 -31 17 -59 -7 l-28 -25 29 32 28 32
33 -22 c19 -12 32 -23 31 -25z m2871 -3 c7 -13 13 -40 13 -59 0 -19 7 -48 15
-63 10 -21 11 -27 2 -25 -6 3 -16 22 -20 44 -18 82 -28 114 -38 114 -5 0 -46
-49 -90 -110 -89 -120 -118 -150 -42 -42 133 188 135 190 160 141z m-1096 -36
c-12 -44 -36 -81 -46 -71 -4 4 2 19 14 33 11 15 24 43 27 64 4 20 9 31 11 24
2 -6 -1 -29 -6 -50z m-2984 15 c-3 -7 -5 -2 -5 12 0 14 2 19 5 13 2 -7 2 -19
0 -25z m-4118 6 c2 -2 -44 -4 -102 -4 -98 0 -107 -2 -107 -19 0 -25 15 -36 75
-54 48 -15 48 -16 10 -11 -22 3 -52 10 -67 16 -24 9 -28 16 -28 50 l0 40 108
-7 c59 -4 109 -9 111 -11z m5201 2 c0 -2 -34 -32 -75 -66 -42 -35 -91 -84
-110 -110 -31 -42 -33 -49 -25 -86 5 -21 9 -48 9 -59 -1 -11 -7 7 -14 40 -12
55 -12 63 5 90 32 52 210 214 210 191z m-3065 -24 c-3 -3 -11 0 -18 7 -9 10
-8 11 6 5 10 -3 15 -9 12 -12z m395 -32 c0 -35 25 -101 43 -112 20 -13 66 -9
99 8 16 9 28 12 25 7 -4 -5 -24 -18 -46 -28 -57 -25 -88 -15 -111 38 -25 56
-36 117 -21 117 6 0 11 -14 11 -30z m3090 -7 c94 -27 152 -57 190 -99 24 -26
23 -26 -17 4 -55 43 -116 69 -224 96 -49 13 -92 26 -96 29 -9 10 48 -2 147
-30z m1365 -14 c22 -10 29 -16 16 -13 -37 10 -88 33 -71 33 8 0 33 -9 55 -20z
m-94 -10 c59 -20 52 -27 -11 -10 -85 22 -95 14 -93 -75 1 -68 1 -68 -14 -40
-17 32 -13 97 7 121 15 18 64 19 111 4z m-160 -30 c-5 -13 -10 -19 -10 -12 -1
15 10 45 15 40 3 -2 0 -15 -5 -28z m1798 -16 c6 -20 8 -39 6 -42 -3 -2 -8 10
-11 27 -6 31 -9 32 -58 33 -48 2 -49 2 -16 9 64 14 68 12 79 -27z m-2529 -68
c41 -8 109 -19 150 -24 l75 -9 -80 4 c-110 7 -203 22 -234 38 -14 8 -44 31
-66 51 l-40 36 60 -40 c45 -31 79 -45 135 -56z m-1722 65 c24 -26 42 -86 41
-136 l-1 -39 -10 45 c-21 101 -29 120 -56 134 -19 11 -22 15 -10 16 10 0 26
-9 36 -20z m4119 14 c-3 -3 -12 -4 -19 -1 -8 3 -5 6 6 6 11 1 17 -2 13 -5z
m-8386 -31 c13 -16 12 -17 -3 -4 -17 13 -22 21 -14 21 2 0 10 -8 17 -17z
m2822 -32 c30 -36 51 -119 43 -165 -9 -45 -41 -85 -84 -103 -50 -21 -50 -9 0
18 28 16 50 37 62 63 16 34 17 44 7 91 -7 30 -22 66 -33 80 -21 27 -43 30
-103 10 -11 -3 -4 3 15 14 48 27 64 26 93 -8z m145 -60 c64 -33 163 -61 267
-77 108 -16 131 -24 69 -24 -48 0 -189 32 -264 58 -110 40 -149 62 -166 95
l-17 32 37 -33 c20 -17 53 -40 74 -51z m1928 -18 c-41 -83 -52 -88 -185 -90
-143 -3 -133 5 20 15 l113 7 34 58 c41 69 51 75 18 10z m3981 22 l28 -25 -28
10 c-16 5 -45 10 -65 10 -48 0 -28 19 30 29 4 0 20 -10 35 -24z m-6267 5 c-8
-5 -22 -9 -30 -9 -10 0 -8 3 5 9 27 12 43 12 25 0z m4145 -60 c-3 -6 -16 -15
-28 -21 l-22 -10 21 18 c16 13 20 23 14 38 -14 34 -10 42 6 12 8 -15 12 -32 9
-37z m-2383 -58 c9 -10 26 -13 63 -9 38 5 46 4 32 -4 -11 -6 -35 -11 -54 -12
-46 -1 -73 30 -72 82 l1 36 9 -39 c5 -22 15 -46 21 -54z m-4260 -40 c44 -3 48
-1 63 27 21 41 29 40 12 -1 -13 -32 -15 -33 -80 -36 l-67 -3 1 68 1 68 12 -60
11 -60 47 -3z m2848 96 c11 -6 8 -7 -8 -3 -16 5 -28 1 -37 -12 -13 -17 -14
-16 -15 10 0 25 3 27 23 21 12 -3 29 -11 37 -16z m1998 -93 c0 -11 -6 2 -14
29 l-15 49 -37 -34 c-33 -30 -34 -31 -11 -4 15 17 33 41 40 55 13 25 13 24 25
-25 7 -27 12 -59 12 -70z m1346 99 c9 -8 15 -27 15 -42 -2 -23 -2 -23 -6 -5
-5 28 -25 44 -66 53 l-32 8 37 1 c21 1 43 -6 52 -15z m2739 -15 c28 -21 60
-107 71 -189 5 -43 5 -43 -5 -10 -40 140 -51 168 -71 187 -13 12 -32 23 -43
26 -19 4 -19 5 1 6 12 0 33 -8 47 -20z m-8733 -65 c30 -31 50 -55 45 -53 -11
4 -111 109 -104 109 3 0 29 -25 59 -56z m4687 -6 c-3 -7 -5 -2 -5 12 0 14 2
19 5 13 2 -7 2 -19 0 -25z m2883 28 c0 -2 -8 -10 -17 -17 -16 -13 -17 -12 -4
4 13 16 21 21 21 13z m-1490 -116 c13 -8 13 -10 -1 -10 -22 0 -29 21 -28 78
l2 47 6 -53 c4 -30 13 -57 21 -62z m305 64 c-65 -68 -133 -175 -160 -252 -19
-52 -23 -58 -18 -27 9 60 19 82 79 172 59 89 115 153 133 153 6 0 -9 -21 -34
-46z m-3198 13 c13 -7 37 -37 56 -67 18 -30 36 -61 40 -67 5 -7 6 -13 4 -13
-3 0 -23 29 -46 64 -23 35 -50 67 -59 71 -9 4 -53 11 -97 15 l-80 7 80 1 c47
1 89 -4 102 -11z m1203 -7 c-97 -12 -242 -19 -235 -11 9 9 115 18 215 18 l85
0 -65 -7z m1914 -25 c-14 -19 -29 -35 -31 -35 -5 0 7 18 36 53 26 31 23 18 -5
-18z m-3001 -45 c52 -78 77 -91 126 -66 17 9 31 14 31 11 0 -2 -19 -14 -42
-26 l-42 -22 -41 45 c-36 40 -92 128 -82 128 2 0 25 -31 50 -70z m769 -13 c3
-151 -8 -233 -35 -255 -7 -5 -28 -13 -47 -16 -35 -7 -35 -7 8 13 26 12 46 30
52 46 6 15 10 77 10 138 0 88 -4 118 -16 136 -16 22 -16 23 5 12 18 -10 21
-22 23 -74z m625 61 c-3 -8 -6 -5 -6 6 -1 11 2 17 5 13 3 -3 4 -12 1 -19z
m-2132 -21 c-9 -14 -23 -28 -32 -31 -8 -4 -2 9 13 27 33 39 43 41 19 4z m1555
-4 c0 -22 -2 -25 -10 -13 -13 20 -13 40 0 40 6 0 10 -12 10 -27z m569 -158
c-1 -11 -9 18 -20 65 -10 47 -18 94 -18 105 1 11 9 -18 20 -65 10 -47 18 -94
18 -105z m1464 118 c-7 -2 -21 -2 -30 0 -10 3 -4 5 12 5 17 0 24 -2 18 -5z
m-3704 -32 l-23 -18 16 -89 c8 -49 14 -91 12 -92 -6 -7 -25 74 -31 130 -7 68
-1 88 28 88 21 0 21 0 -2 -19z m3785 -6 c-15 -23 -34 -26 -34 -4 0 6 4 8 9 5
5 -3 14 1 21 9 20 24 22 17 4 -10z m-6113 -35 c7 0 10 -2 7 -5 -11 -12 -68 18
-68 36 0 16 3 15 25 -6 13 -14 30 -25 36 -25z m6043 18 c27 -38 19 -109 -25
-246 -35 -107 -91 -232 -104 -232 -2 0 12 33 30 73 46 99 82 210 97 295 10 61
10 73 -5 95 -11 17 -28 27 -49 30 l-33 4 37 1 c28 2 41 -3 52 -20z m-2545 -36
c33 -24 36 -48 17 -109 l-16 -48 7 45 c9 65 6 83 -17 102 -37 30 -101 33 -151
8 -47 -24 -47 -19 -2 12 36 23 125 18 162 -10z m70 -16 c-3 -3 -11 5 -18 17
-13 21 -12 21 5 5 10 -10 16 -20 13 -22z m3692 -28 c-3 -21 -6 -26 -9 -15 -3
17 3 47 11 47 2 0 1 -15 -2 -32z m-2602 -146 c7 -13 27 -30 44 -38 l32 -15
-34 6 c-51 8 -73 49 -85 160 -6 45 -4 44 12 -20 10 -38 24 -80 31 -93z m-82
116 c-3 -8 -6 -5 -6 6 -1 11 2 17 5 13 3 -3 4 -12 1 -19z m4242 -16 c-6 -18
-15 -32 -20 -32 -5 0 -5 7 0 18 5 9 12 26 16 36 3 10 8 17 10 14 3 -3 0 -19
-6 -36z m140 24 c12 -15 33 -76 25 -76 -2 0 -10 15 -18 34 -12 29 -22 36 -58
44 l-43 10 41 1 c25 1 46 -5 53 -13z m-8622 -92 c-8 -8 -177 80 -177 92 0 2
41 -16 91 -42 50 -25 89 -48 86 -50z m1970 -60 c5 -54 3 -63 -14 -72 -12 -7
-25 -7 -34 -1 -11 7 -9 9 9 9 32 0 37 22 23 99 -21 114 -21 117 -5 71 8 -25
18 -73 21 -106z m4950 -96 c-1 -46 -3 -11 -3 77 0 88 2 125 3 83 2 -42 2 -114
0 -160z m-3707 142 c-7 -28 -15 -49 -17 -46 -3 3 0 28 7 56 7 28 15 49 17 46
3 -3 0 -28 -7 -56z m5771 -47 c56 -61 79 -106 79 -156 0 -91 -26 -105 -117
-62 -72 33 -67 39 7 9 75 -30 88 -30 96 2 21 83 -77 251 -133 230 -13 -5 -14
-4 -3 9 15 18 33 9 71 -32z m-8881 -41 c0 -3 -9 3 -20 13 -10 9 -26 15 -35 12
-11 -5 -15 0 -15 17 0 24 0 24 35 -7 19 -17 35 -33 35 -35z m3420 30 c-36 -18
-41 -32 -26 -82 6 -23 6 -23 -9 3 -23 40 -16 80 15 88 46 13 55 9 20 -9z
m5323 11 c-7 -2 -21 -2 -30 0 -10 3 -4 5 12 5 17 0 24 -2 18 -5z m-4555 -28
c-3 -3 -9 2 -12 12 -6 14 -5 15 5 6 7 -7 10 -15 7 -18z m-923 -112 c33 -22 68
-43 79 -47 16 -6 18 -2 13 26 -3 18 -8 42 -11 53 -4 11 3 0 15 -23 23 -48 20
-72 -9 -72 -23 0 -139 81 -202 140 l-45 42 50 -40 c28 -21 77 -57 110 -79z
m62 95 c-3 -8 -6 -5 -6 6 -1 11 2 17 5 13 3 -3 4 -12 1 -19z m-1431 -46 c-15
-15 -15 -15 -4 10 7 15 15 23 17 17 2 -6 -4 -18 -13 -27z m2430 14 c7 -6 15
-27 19 -46 4 -26 3 -31 -4 -20 -6 8 -11 25 -11 38 0 12 -6 24 -12 26 -7 2 -29
9 -48 14 l-35 11 40 -6 c22 -3 45 -10 51 -17z m-4280 -62 c15 -4 77 -4 138 -2
72 4 93 3 61 -2 -72 -12 -189 -12 -219 0 -18 6 -26 17 -25 32 l0 23 9 -22 c5
-12 21 -25 36 -29z m1749 20 c-6 -1 -22 -5 -36 -8 -17 -4 -38 -23 -58 -53 -38
-58 -41 -49 -5 14 28 47 55 64 88 55 11 -3 16 -7 11 -8z m1418 -42 c31 -25 57
-47 57 -49 0 -6 -80 51 -115 82 -44 39 -9 18 58 -33z m-1564 -19 c-39 -70 -58
-93 -76 -93 -7 0 -13 2 -13 4 0 2 -3 13 -6 23 -5 17 -5 17 6 0 15 -24 30 -12
76 64 46 76 55 77 13 2z m7061 27 c18 -12 2 -12 -25 0 -13 6 -15 9 -5 9 8 0
22 -4 30 -9z m413 -6 c102 -26 241 -85 266 -112 21 -23 23 -32 17 -84 -3 -32
-12 -71 -20 -86 -19 -36 -107 -120 -181 -171 l-60 -42 50 42 c28 24 80 73 116
109 60 58 68 71 79 122 20 100 -4 123 -199 188 -52 17 -112 32 -134 33 -37 2
-41 -1 -54 -33 -8 -21 -11 -25 -8 -10 2 14 5 33 5 43 0 22 40 23 123 1z m-441
-30 c63 -22 171 -72 157 -74 -3 0 -50 18 -105 40 -123 51 -177 60 -204 35 -20
-18 -27 -69 -12 -91 4 -7 23 -19 42 -28 34 -15 34 -15 5 -9 -72 13 -92 51 -59
114 27 54 55 56 176 13z m-7199 19 c-7 -2 -19 -2 -25 0 -7 3 -2 5 12 5 14 0
19 -2 13 -5z m2939 -56 c13 -8 42 -18 66 -22 24 -4 41 -9 39 -12 -3 -2 -31 0
-64 6 -60 11 -83 30 -82 65 0 20 1 20 9 -1 5 -12 19 -28 32 -36z m1092 -29
c-43 -89 -40 -115 19 -177 l42 -45 -45 39 c-57 49 -60 53 -60 94 0 29 61 161
75 161 2 0 -12 -33 -31 -72z m-4262 24 c64 34 72 31 16 -5 -49 -31 -79 -34
-100 -9 -31 35 -30 46 1 17 l32 -30 51 27z m237 19 c17 -11 61 -101 49 -101
-4 0 -18 20 -30 45 -12 25 -30 47 -39 50 -26 8 -95 -12 -158 -46 -72 -38 -75
-32 -6 10 74 45 151 63 184 42z m-381 -17 c35 -25 25 -34 -15 -13 -21 10 -48
19 -61 19 -44 0 -90 -29 -106 -68 -13 -33 -15 -34 -15 -12 -1 36 24 68 62 79
50 14 110 12 135 -5z m2211 -32 c0 -15 -5 -36 -10 -47 -7 -15 -8 -10 -3 19 4
28 1 43 -13 58 -18 21 -18 21 5 9 15 -8 22 -20 21 -39z m73 22 c-12 -8 -26
-29 -32 -47 l-10 -32 5 35 c5 31 42 76 54 64 3 -2 -5 -11 -17 -20z m5065 4
c-3 -8 -6 -5 -6 6 -1 11 2 17 5 13 3 -3 4 -12 1 -19z m-8229 -35 c-59 -24 -51
-37 36 -59 45 -12 46 -13 11 -9 -22 3 -52 5 -67 5 -24 0 -28 4 -28 29 0 23 6
32 28 39 44 17 61 12 20 -5z m8742 2 c-7 -8 -17 -15 -23 -15 -6 0 -2 7 9 15
25 19 30 19 14 0z m-4461 -31 c9 -8 -65 -2 -84 6 -13 6 -2 7 30 3 28 -3 52 -7
54 -9z m2475 -117 c33 -43 103 -123 156 -176 103 -103 108 -112 126 -243 11
-81 -3 -53 -21 45 l-18 92 -117 120 c-79 80 -137 150 -174 210 -58 93 -52 87
48 -48z m-6123 49 c-7 -16 -25 -33 -46 -41 -37 -16 -146 -19 -210 -6 -30 7
-11 9 80 10 138 1 158 9 171 68 5 27 9 32 11 17 2 -11 -1 -33 -6 -48z m3737
41 c20 -21 50 -123 39 -133 -3 -3 -8 12 -12 34 -8 49 -39 100 -68 112 -21 8
-21 9 -1 9 11 1 30 -9 42 -22z m-1257 -72 l-9 -40 -1 35 c0 19 2 46 6 60 12
41 16 -7 4 -55z m2086 43 c-3 -8 -6 -5 -6 6 -1 11 2 17 5 13 3 -3 4 -12 1 -19z
m3201 -18 c10 0 32 -76 32 -112 0 -84 -17 -119 -86 -183 -61 -56 -66 -64 -74
-115 l-8 -55 -1 54 -1 54 64 59 c89 82 116 159 85 246 -9 28 -58 62 -87 62 -6
0 -13 4 -17 10 -3 5 16 3 42 -5 26 -8 49 -15 51 -15z m-8098 -20 c13 -9 13
-10 0 -10 -8 0 -22 5 -30 10 -13 9 -13 10 0 10 8 0 22 -5 30 -10z m4193 -148
c19 -18 66 -21 162 -10 43 5 53 4 36 -3 -41 -17 -165 -23 -190 -10 -28 15 -47
59 -55 126 -6 47 -5 46 12 -18 10 -37 26 -75 35 -85z m3977 104 c0 -26 -6 -18
-14 19 -5 22 -4 26 4 15 5 -8 10 -24 10 -34z m-5427 -109 c-35 -65 -145 -175
-205 -204 -48 -24 -125 -29 -203 -14 -29 6 -12 8 65 7 97 -1 109 1 150 26 50
29 132 111 174 174 18 28 30 62 34 100 l7 59 3 -48 c2 -37 -3 -59 -25 -100z
m-2708 102 c25 -7 22 -8 -17 -5 -37 3 -55 -2 -82 -20 -44 -30 -56 -52 -56
-103 0 -57 8 -71 54 -92 23 -10 30 -16 16 -13 -68 17 -75 25 -78 95 l-3 67 43
41 c44 42 64 47 123 30z m4980 -74 c3 -11 1 -33 -4 -50 -9 -30 -9 -30 -10 11
-1 26 -10 52 -26 74 -14 19 -25 36 -25 39 0 13 61 -56 65 -74z m-4748 59 c-3
-3 -12 -4 -19 -1 -8 3 -5 6 6 6 11 1 17 -2 13 -5z m7900 -91 c-3 -10 -5 -4 -5
12 0 17 2 24 5 18 2 -7 2 -21 0 -30z m-1482 -273 c28 -125 56 -297 54 -332 -1
-13 -7 15 -15 62 -52 324 -62 356 -148 448 -113 122 -118 135 -13 32 l97 -95
25 -115z m-2070 270 c3 -6 -1 -7 -9 -4 -18 7 -21 14 -7 14 6 0 13 -4 16 -10z
m-22 -41 c30 -23 58 -102 56 -158 -1 -28 -5 -20 -15 33 -25 125 -52 144 -182
126 -95 -12 -122 -7 -40 8 94 17 152 14 181 -9z m-1834 -11 c-17 -31 -128
-142 -159 -158 -29 -15 -23 -8 43 44 27 21 65 61 85 87 39 53 50 62 31 27z
m2287 -46 c-11 -10 -14 3 -8 33 l7 30 3 -28 c2 -16 1 -31 -2 -35z m3017 -64
c-39 -40 -42 -47 -46 -108 l-3 -65 -2 72 -2 71 42 36 c56 49 61 45 11 -6z
m-2951 -27 c47 -37 120 -205 117 -270 -1 -14 -9 6 -18 44 -23 95 -56 160 -104
207 -41 40 -38 52 5 19z m-2762 -61 c33 -6 20 -7 -45 -3 -148 7 -175 -17 -232
-212 -38 -131 -44 -120 -8 15 30 108 64 173 103 194 30 17 112 19 182 6z
m2280 -41 c-7 -16 -19 -29 -27 -29 -12 0 -12 3 1 16 9 8 19 27 23 42 3 15 8
21 11 14 2 -7 -1 -26 -8 -43z m-2173 25 c-3 -3 -12 -4 -19 -1 -8 3 -5 6 6 6
11 1 17 -2 13 -5z m-2377 -14 c-8 -5 -24 -10 -35 -10 -11 0 -27 -4 -35 -10
-21 -13 11 -46 58 -58 30 -8 32 -10 12 -11 -42 -1 -64 9 -77 36 -16 33 -3 50
40 56 18 2 37 4 42 5 6 1 3 -3 -5 -8z m8401 -17 c-12 -20 -14 -14 -5 12 4 9 9
14 11 11 3 -2 0 -13 -6 -23z m-500 -69 c1 -79 -24 -156 -102 -322 -84 -180
-169 -278 -262 -303 -44 -12 -53 -7 -62 36 l-6 30 15 -32 c14 -30 17 -31 47
-23 91 26 169 118 255 295 71 149 96 225 102 318 6 94 12 95 13 1z m-1234 4
c-3 -8 -6 -5 -6 6 -1 11 2 17 5 13 3 -3 4 -12 1 -19z m-2177 -11 c-13 -7 -27
-23 -31 -37 l-7 -25 -1 26 c-1 30 16 49 44 49 18 0 18 -1 -5 -13z m3841 -127
c-24 -69 -50 -124 -66 -139 -23 -24 -23 -21 9 39 19 36 46 100 61 143 15 43
30 76 32 74 2 -2 -14 -55 -36 -117z m-3933 35 c-7 -7 -33 -16 -58 -19 -48 -6
-47 -5 38 20 8 2 17 14 20 27 5 19 7 20 10 3 2 -10 -2 -24 -10 -31z m824 -31
c28 -28 199 -19 388 21 14 3 7 -2 -15 -10 -22 -9 -98 -23 -170 -32 -182 -23
-228 -11 -239 62 l-6 40 12 -32 c7 -18 21 -40 30 -49z m-3297 -51 c-44 -168
-81 -219 -165 -230 -37 -5 -197 24 -187 34 3 2 24 -1 47 -7 23 -6 71 -11 107
-11 108 0 132 28 184 207 18 62 35 112 37 110 2 -2 -8 -48 -23 -103z m-1830
48 c-4 -17 -10 -33 -14 -36 -5 -2 -3 13 2 35 13 46 22 46 12 1z m5792 13 c15
-15 21 -22 12 -16 -8 7 -31 18 -50 26 -27 12 -29 15 -12 16 12 0 35 -12 50
-26z m800 -6 c-3 -7 -5 -2 -5 12 0 14 2 19 5 13 2 -7 2 -19 0 -25z m1214 -74
c-25 -63 -63 -140 -49 -99 17 50 72 184 75 181 2 -2 -10 -39 -26 -82z m-2053
52 c18 -9 36 -30 45 -54 18 -46 37 -174 36 -240 -1 -28 -7 1 -15 71 -15 135
-40 202 -79 217 -38 15 -142 12 -205 -5 -30 -8 -62 -14 -70 -14 -8 1 23 12 70
25 94 26 168 26 218 0z m-1515 -18 c-24 -5 -43 -13 -43 -17 0 -4 9 -34 20 -66
26 -77 19 -82 -9 -7 -33 91 -29 101 39 100 35 0 35 0 -7 -10z m863 -16 c-4 -3
-14 2 -24 12 -16 18 -16 18 6 6 13 -6 21 -14 18 -18z m1501 -24 c-3 -7 -5 -2
-5 12 0 14 2 19 5 13 2 -7 2 -19 0 -25z m-2416 -95 c12 -38 24 -74 27 -80 3
-9 -6 -13 -29 -12 -24 1 -27 3 -11 6 27 5 28 18 2 85 -20 53 -24 68 -16 68 2
0 14 -30 27 -67z m2426 20 c-3 -10 -5 -2 -5 17 0 19 2 27 5 18 2 -10 2 -26 0
-35z m-6735 1 c-51 -43 -54 -71 -14 -135 40 -62 47 -76 35 -64 -18 18 -83 117
-83 127 0 19 31 67 56 87 45 36 50 23 6 -15z m1969 -1 c-12 -20 -14 -14 -5 12
4 9 9 14 11 11 3 -2 0 -13 -6 -23z m4748 -160 c1 -13 -5 -23 -11 -23 -10 0
-13 28 -14 103 l-1 102 13 -80 c7 -44 13 -90 13 -102z m174 140 c-7 -2 -21 -2
-30 0 -10 3 -4 5 12 5 17 0 24 -2 18 -5z m-127 -103 c5 -11 10 -7 20 15 l14
30 -6 -35 c-3 -19 -11 -41 -17 -48 -16 -20 -24 1 -30 78 -5 58 -5 60 3 20 6
-25 13 -52 16 -60z m1085 24 c-16 -33 -36 -68 -45 -79 -9 -11 3 17 27 62 23
45 43 80 45 78 2 -2 -10 -29 -27 -61z m-6408 39 c-7 -2 -19 -2 -25 0 -7 3 -2
5 12 5 14 0 19 -2 13 -5z m5511 -19 c19 -9 39 -29 46 -43 l12 -26 -29 26 c-68
64 -141 66 -144 5 0 -12 -3 -15 -6 -8 -3 7 -2 24 1 37 5 21 12 25 46 25 22 0
55 -7 74 -16z m-5024 -13 c-7 -15 -6 -23 6 -35 18 -19 11 -21 -15 -4 -17 11
-18 14 -4 35 18 28 28 31 13 4z m-850 2 c-8 -3 -22 -11 -30 -17 -13 -10 -13
-9 -1 7 7 9 21 17 30 16 13 0 14 -1 1 -6z m103 0 c-7 -2 -19 -2 -25 0 -7 3 -2
5 12 5 14 0 19 -2 13 -5z m257 -8 c86 -15 188 -43 160 -44 -8 0 -64 10 -124
23 -60 13 -115 22 -123 19 -7 -3 -13 0 -13 6 0 14 -2 14 100 -4z m5656 -42
c-8 -8 -56 18 -65 36 -10 17 -6 17 29 -6 22 -15 38 -28 36 -30z m-5796 35 c0
-10 -46 -9 -80 2 -18 5 -10 7 27 6 29 -1 53 -4 53 -8z m4729 -145 c17 -33 39
-45 104 -59 l62 -13 -65 6 c-97 8 -128 45 -135 161 l-5 67 14 -72 c8 -39 19
-80 25 -90z m-4824 112 l40 -13 -45 4 c-25 3 -55 7 -66 10 -38 7 -48 -18 -30
-78 8 -29 14 -54 12 -56 -7 -6 -36 92 -36 120 0 26 2 28 43 27 23 0 60 -7 82
-14z m702 -29 c0 0 -29 -2 -65 -2 -53 -1 -59 0 -29 6 20 4 40 10 43 13 5 5 34
-5 51 -17z m2396 4 c-18 -7 -23 -18 -24 -47 l-1 -38 -9 35 c-11 47 -5 60 28
59 27 0 27 -1 6 -9z m3049 -56 c25 5 28 4 13 -3 -41 -19 -62 -12 -90 32 l-27
42 35 -38 c32 -34 40 -38 69 -33z m874 -15 c-9 -89 -11 -94 -44 -108 l-27 -12
23 19 c19 15 26 35 35 95 6 42 13 77 15 77 3 0 1 -32 -2 -71z m-6232 -44 c10
-42 16 -78 14 -81 -3 -2 -11 22 -18 53 -15 69 -25 92 -54 116 -21 18 -20 18 9
3 27 -13 33 -23 49 -91z m5227 93 c8 -7 28 -31 43 -53 l27 -40 -40 45 c-40 44
-43 45 -113 51 l-73 6 71 1 c44 1 76 -3 85 -10z m249 -18 c8 -5 11 -10 5 -10
-5 0 -17 5 -25 10 -8 5 -10 10 -5 10 6 0 17 -5 25 -10z m-3230 -51 c0 -9 -9
-27 -21 -40 -19 -23 -20 -23 -10 -2 6 12 11 37 11 55 0 25 3 29 10 18 5 -8 10
-22 10 -31z m2480 29 c-43 -12 -64 -30 -80 -69 -7 -16 -15 -28 -17 -26 -2 3 4
23 13 46 16 41 46 59 99 59 11 0 4 -4 -15 -10z m-4651 -141 c6 -6 55 -14 108
-17 l98 -7 -109 1 -110 1 -18 70 c-9 39 -17 77 -17 85 1 8 9 -16 19 -54 10
-37 23 -73 29 -79z m5381 113 c0 -5 -19 -10 -42 -9 -37 1 -39 2 -18 9 36 12
60 12 60 0z m-6324 -179 c29 -112 32 -226 8 -277 -9 -19 -18 -33 -19 -32 -2 2
4 31 13 65 14 53 14 73 4 145 -6 46 -23 119 -37 163 -14 44 -24 85 -24 90 1
22 33 -65 55 -154z m6341 107 c-3 -7 -5 -2 -5 12 0 14 2 19 5 13 2 -7 2 -19 0
-25z m-3213 -20 c-19 -52 -14 -110 21 -267 14 -62 24 -116 21 -118 -2 -2 -17
49 -32 114 -32 133 -39 268 -15 296 21 26 22 21 5 -25z m2326 23 c0 -24 -33
-42 -64 -35 -53 11 -65 24 -16 18 35 -5 49 -2 59 10 15 18 21 20 21 7z m1058
-42 c-16 -11 -28 -27 -28 -35 0 -18 98 -270 139 -356 20 -42 48 -81 74 -104
36 -31 37 -34 12 -21 -53 27 -72 59 -154 258 -103 251 -100 241 -59 261 44 22
48 21 16 -3z m-1423 -20 c20 -18 41 -41 47 -53 6 -11 -8 -2 -31 21 -26 27 -53
44 -73 47 -18 3 -44 7 -58 9 -14 3 -2 5 27 6 45 1 57 -3 88 -30z m-4198 -11
c-3 -8 -6 -5 -6 6 -1 11 2 17 5 13 3 -3 4 -12 1 -19z m4332 -27 c5 13 10 19
10 12 2 -21 -11 -43 -24 -43 -7 0 -28 19 -46 43 l-33 42 42 -39 41 -39 10 24z
m126 38 c15 -7 13 -8 -12 -3 l-31 5 -7 -68 c-9 -98 -13 -99 -14 -5 -1 79 0 82
22 81 12 0 31 -5 42 -10z m-6299 -142 c9 -12 45 -48 78 -81 34 -32 47 -49 29
-37 -91 61 -152 146 -167 231 -4 23 2 13 18 -28 13 -35 32 -73 42 -85z m7434
-14 c35 -87 70 -174 78 -193 8 -19 10 -30 4 -25 -5 6 -21 42 -36 80 -63 160
-118 273 -139 283 -22 10 -21 11 4 11 23 1 30 -10 89 -156z m-5270 103 c0 -26
-6 -18 -14 19 -5 22 -4 26 4 15 5 -8 10 -24 10 -34z m5794 -65 c-16 -15 -16
-15 -10 4 4 11 10 34 14 50 l7 30 3 -34 c2 -22 -2 -39 -14 -50z m-5837 47 c-3
-8 -6 -5 -6 6 -1 11 2 17 5 13 3 -3 4 -12 1 -19z m113 -183 c41 -59 38 -68 -5
-14 -35 44 -49 79 -59 154 -4 26 1 16 14 -29 11 -37 34 -88 50 -111z m3959 74
c-6 -65 -15 -97 -48 -165 -40 -83 -67 -119 -35 -46 55 124 68 163 72 215 3 44
1 57 -9 57 -11 0 -11 2 1 10 8 5 17 10 20 10 3 0 3 -36 -1 -81z m-4062 49 c-3
-8 -6 -5 -6 6 -1 11 2 17 5 13 3 -3 4 -12 1 -19z m-1120 -35 c-3 -10 -5 -4 -5
12 0 17 2 24 5 18 2 -7 2 -21 0 -30z m1130 -5 c-3 -8 -6 -5 -6 6 -1 11 2 17 5
13 3 -3 4 -12 1 -19z m71 -132 l32 -44 0 -133 c0 -73 -3 -129 -7 -125 -5 4
-10 67 -13 139 -4 116 -8 136 -27 164 -21 29 -28 43 -20 43 2 0 18 -20 35 -44z
m5693 -77 c-13 -43 -70 -89 -142 -114 -64 -23 -60 -17 16 21 99 49 108 61 114
141 4 67 5 67 14 29 7 -26 6 -50 -2 -77z m-3797 -154 c1 -73 -3 -96 -18 -122
-11 -18 -26 -35 -34 -38 -8 -3 -5 5 7 21 37 46 46 121 28 221 -27 143 -28 163
-6 83 14 -48 22 -108 23 -165z m-1786 -46 c20 -1 48 -5 62 -9 22 -7 23 -8 4
-9 -12 -1 -42 2 -68 5 l-46 7 2 121 2 121 3 -117 4 -118 37 -1z m-2114 198
c25 -10 13 -21 -13 -12 -12 3 -21 14 -21 23 0 10 3 13 8 6 4 -6 16 -14 26 -17z
m766 -12 c-7 -19 -6 -36 5 -61 8 -19 11 -32 6 -30 -20 13 -34 67 -23 91 15 33
24 32 12 0z m5125 -149 c-111 -233 -119 -259 -111 -386 4 -58 8 -121 11 -140
2 -19 -2 -6 -11 30 -25 111 -21 213 11 300 30 82 165 363 171 357 2 -2 -30
-75 -71 -161z m-5435 120 c0 -2 -11 -6 -25 -8 -13 -3 -22 -1 -19 3 5 9 44 13
44 5z m14 -62 c9 -23 1 -28 -14 -9 -19 23 -43 18 -106 -24 -64 -42 -94 -77
-118 -136 -35 -82 -18 -124 86 -220 64 -59 67 -63 24 -34 -62 43 -122 111
-136 154 -10 29 -7 43 15 102 29 74 59 107 140 154 56 32 100 37 109 13z m107
-49 c31 -16 116 -20 138 -6 9 6 12 20 9 40 -6 39 -3 39 17 1 14 -28 14 -30 -7
-44 -35 -22 -93 -29 -133 -16 -45 15 -95 56 -95 78 1 12 6 9 21 -11 12 -15 34
-34 50 -42z m-302 32 l26 15 -24 -21 c-29 -27 -38 -26 -52 2 -11 21 -10 21 6
5 16 -15 20 -15 44 -1z m6987 -92 c-9 -37 -156 -165 -262 -231 -160 -98 -174
-106 -174 -101 0 3 48 36 108 73 137 86 244 166 283 212 27 33 30 42 26 87
l-5 50 15 -34 c8 -19 12 -44 9 -56z m-6480 37 c-17 -16 -18 -16 -5 5 7 12 15
20 18 17 3 -2 -3 -12 -13 -22z m5047 -7 c-3 -9 -8 -14 -10 -11 -3 3 -2 9 2 15
9 16 15 13 8 -4z m-5253 -31 c0 -2 -9 0 -20 6 -11 6 -20 13 -20 16 0 2 9 0 20
-6 11 -6 20 -13 20 -16z m93 -15 c-19 -6 -40 -5 -55 0 -18 8 -12 10 32 9 50 0
52 -1 23 -9z m1521 -27 c3 -5 8 -29 11 -53 5 -44 5 -44 -6 -9 -14 45 -20 52
-66 60 l-38 8 47 1 c26 0 49 -3 52 -7z m1621 -42 l20 -9 -20 1 c-11 0 -31 4
-45 8 l-25 8 25 0 c14 0 34 -3 45 -8z m105 -4 c0 -2 -8 -10 -17 -17 -16 -13
-17 -12 -4 4 13 16 21 21 21 13z m-286 -37 l-31 -31 -39 21 c-22 11 -35 20
-31 21 4 0 20 -6 36 -14 25 -14 30 -13 57 9 41 34 44 31 8 -6z m2127 -6 c-12
-20 -14 -14 -5 12 4 9 9 14 11 11 3 -2 0 -13 -6 -23z m-3488 -83 l13 -85 125
1 c81 0 112 -2 89 -7 -61 -14 -174 -20 -203 -12 -26 8 -29 13 -32 63 -1 30 -6
75 -9 100 -3 25 -4 41 -1 35 3 -5 11 -48 18 -95z m1512 89 l44 -11 -6 -43 c-8
-62 3 -93 40 -115 17 -11 26 -20 19 -20 -8 0 -27 13 -43 29 -25 25 -29 37 -29
85 0 31 -5 58 -12 62 -25 16 -95 7 -129 -15 l-34 -23 35 31 c38 34 50 36 115
20z m92 -56 l-2 -58 40 1 c22 0 54 3 70 7 28 7 28 6 -5 -9 -19 -9 -53 -17 -75
-18 l-40 -1 -3 44 c-3 43 4 91 13 91 2 0 3 -26 2 -57z m-357 27 c51 -26 52
-35 3 -14 -21 9 -44 18 -52 21 -11 5 -13 -6 -9 -56 5 -67 -5 -63 -16 7 -10 68
5 77 74 42z m-1288 -122 c-3 -12 -14 -18 -31 -17 l-26 0 24 10 c23 9 23 13 18
77 l-5 67 12 -60 c7 -33 10 -68 8 -77z m1186 4 c-3 -36 -4 -37 -50 -40 -26 -2
-55 1 -64 6 -10 6 4 7 40 4 l56 -4 1 68 c1 62 2 65 10 36 6 -19 9 -50 7 -70z
m-3399 6 c26 -76 21 -88 -6 -16 -24 63 -45 80 -70 55 -26 -25 -22 -121 7 -178
17 -31 18 -40 7 -31 -28 24 -50 97 -45 151 6 60 21 81 58 81 26 0 30 -6 49
-62z m4084 55 c-7 -2 -19 -2 -25 0 -7 3 -2 5 12 5 14 0 19 -2 13 -5z m207 -24
c-14 -6 -37 -22 -52 -36 l-27 -26 -41 28 c-22 15 -40 30 -40 32 0 5 15 -3 50
-28 25 -17 26 -16 65 12 21 16 46 29 54 28 9 0 5 -5 -9 -10z m-270 -35 c-56
-17 -64 -17 -25 1 17 8 39 14 50 14 11 0 0 -7 -25 -15z m105 -9 c39 -32 24
-32 -23 0 -20 14 -30 25 -22 25 8 -1 29 -12 45 -25z m-1382 8 c-13 -2 -33 -2
-45 0 -13 2 -3 4 22 4 25 0 35 -2 23 -4z m-106 -9 c-3 -3 -12 -4 -19 -1 -8 3
-5 6 6 6 11 1 17 -2 13 -5z m1677 -12 c3 -9 2 -37 -3 -62 l-9 -45 -1 53 c-1
28 -4 52 -9 52 -4 0 -19 -8 -32 -17 l-25 -16 24 26 c28 31 47 34 55 9z m-1761
1 c-7 -2 -19 -2 -25 0 -7 3 -2 5 12 5 14 0 19 -2 13 -5z m624 -24 c-10 -6 -31
-29 -47 -51 -17 -23 -30 -37 -30 -31 0 15 70 93 83 93 7 0 4 -5 -6 -11z m1182
-81 l-4 -91 52 -37 c71 -49 78 -59 18 -25 -91 52 -95 59 -79 193 10 82 17 61
13 -40z m-1549 67 c20 -10 30 -23 29 -38 l0 -22 -9 22 c-16 39 -46 46 -154 40
-56 -4 -119 -9 -141 -11 -23 -3 -14 1 20 8 86 20 219 20 255 1z m624 1 c-3 -8
-13 -17 -22 -21 -13 -5 -13 -2 3 15 21 24 26 25 19 6z m-1249 -5 c20 -5 -11
-9 -90 -13 -200 -9 -264 -43 -266 -143 0 -22 -4 -58 -9 -80 -7 -32 -9 -23 -6
46 2 47 9 96 16 108 30 58 246 107 355 82z m1124 -17 c2 -2 -21 -4 -52 -4 -52
0 -57 -2 -87 -37 -44 -55 -46 -72 -11 -142 17 -33 29 -61 27 -61 -3 0 -21 27
-41 60 -36 59 -36 59 -19 92 28 54 55 89 78 98 19 7 94 3 105 -6z m-368 -34
c12 0 20 -3 16 -6 -9 -10 -77 5 -77 17 0 6 7 6 19 -1 11 -5 30 -10 42 -10z
m2802 -215 c2 -95 0 -104 -32 -173 -19 -40 -36 -71 -38 -69 -2 2 9 30 24 63
24 51 27 72 28 159 0 55 -3 134 -6 175 l-7 75 14 -65 c8 -36 16 -110 17 -165z
m-5468 186 c80 -22 68 -27 -15 -7 -31 7 -64 10 -75 5 -31 -12 -39 -10 -25 6
16 19 30 19 115 -4z m2599 -10 c-2 -3 -12 3 -22 13 -16 17 -16 18 5 5 12 -7
20 -15 17 -18z m218 -3 c-9 -9 -15 -9 -24 0 -9 9 -7 12 12 12 19 0 21 -3 12
-12z m-165 -4 c-3 -3 -12 -4 -19 -1 -8 3 -5 6 6 6 11 1 17 -2 13 -5z m133 -42
c14 -17 33 -45 43 -64 l18 -33 -23 30 c-42 55 -79 84 -121 94 l-42 10 50 -3
c41 -3 54 -10 75 -34z m-3066 -191 c9 -16 42 -58 73 -93 99 -110 110 -125 40
-58 -96 91 -147 171 -146 224 l1 41 8 -42 c5 -23 16 -55 24 -72z m4484 28 c20
-37 10 -164 -17 -220 -26 -56 -56 -75 -91 -59 -24 10 -23 10 7 6 40 -6 66 23
88 97 32 108 13 182 -55 217 -21 11 -42 25 -46 32 -4 7 17 -2 47 -19 30 -16
60 -41 67 -54z m2208 35 c-5 -19 -24 -34 -82 -61 -41 -20 -77 -33 -80 -31 -2
3 20 15 50 28 63 25 106 63 107 94 0 11 3 15 6 8 3 -7 2 -24 -1 -38z m-4920
-182 c-11 -21 -33 -35 -88 -56 -40 -16 -88 -37 -107 -48 -22 -12 -30 -14 -23
-5 7 8 53 31 102 52 49 21 95 44 101 51 6 8 14 62 18 121 l6 108 3 -97 c2 -71
-1 -105 -12 -126z m1419 113 c43 -76 75 -192 75 -271 0 -70 -9 -82 -102 -134
-82 -45 -72 -31 12 19 l70 42 0 82 c0 103 -10 137 -71 262 -51 104 -42 104 16
0z m1345 21 c0 -26 -6 -18 -14 19 -5 22 -4 26 4 15 5 -8 10 -24 10 -34z m1201
-189 c-40 -92 -49 -139 -32 -165 4 -7 30 -20 57 -27 l49 -15 -45 6 c-64 9 -76
18 -84 61 -5 32 1 54 41 140 27 55 49 100 51 98 2 -1 -15 -45 -37 -98z m-553
-62 c-81 -120 -116 -149 -150 -118 -11 10 -29 32 -41 48 -18 27 -17 27 19 -7
22 -21 47 -38 56 -38 18 0 56 44 132 153 74 106 63 78 -16 -38z m257 90 c116
-31 206 -98 204 -153 l-1 -27 -10 30 c-15 43 -52 79 -111 108 -58 28 -144 47
-182 40 -23 -5 -65 -45 -128 -123 l-28 -35 18 34 c10 18 37 55 61 82 55 61 82
68 177 44z m-3661 -35 c-14 -14 -196 -91 -202 -85 -5 5 27 20 143 68 72 30 72
30 59 17z m3886 -15 c6 3 7 -1 4 -9 -9 -22 -17 -20 -45 11 l-24 27 28 -17 c15
-10 32 -15 37 -12z m-5624 -43 c11 -20 35 -63 53 -94 18 -32 30 -58 28 -58 -3
0 -26 36 -51 79 -25 44 -50 82 -56 86 -12 7 -14 25 -2 25 4 0 16 -17 28 -38z
m4208 -1 c-10 -10 -21 -17 -23 -15 -6 6 20 34 32 34 6 0 2 -8 -9 -19z m239 -9
c-4 -15 15 -27 104 -66 59 -27 127 -51 150 -53 38 -5 45 -2 78 33 l37 39 -27
-43 c-16 -23 -38 -45 -49 -48 -26 -6 -93 15 -196 63 -107 49 -124 61 -109 79
15 19 18 18 12 -4z m-178 -23 c17 -8 16 -9 -9 -5 l-28 4 6 -57 c4 -37 3 -49
-3 -36 -11 24 -14 89 -4 98 8 9 13 8 38 -4z m-88 -36 c-3 -10 -5 -4 -5 12 0
17 2 24 5 18 2 -7 2 -21 0 -30z m-2577 -140 c26 -34 54 -53 99 -69 23 -9 29
-13 16 -14 -12 0 -41 10 -65 23 -38 19 -51 34 -86 102 -23 44 -45 91 -48 105
-4 14 9 -8 28 -48 19 -40 44 -85 56 -99z m4662 115 c-7 -29 -19 -38 -96 -77
-110 -55 -155 -61 -224 -31 -68 29 -61 35 11 10 65 -23 94 -20 187 22 78 35
107 60 116 102 4 17 9 26 11 19 2 -6 0 -26 -5 -45z m-1792 1 c85 -45 84 -45
-22 -4 -43 17 -78 33 -78 38 0 14 26 5 100 -34z m451 -1 c30 -40 31 -41 5 -18
-26 24 -52 60 -42 60 2 0 19 -19 37 -42z m-3475 -6 c-20 -38 -146 -155 -188
-175 -18 -8 -46 -17 -63 -21 -18 -3 -6 6 31 23 62 29 182 132 211 182 22 37
29 30 9 -9z m3390 -7 c-37 -47 -43 -44 -10 5 15 22 29 38 32 35 3 -2 -7 -20
-22 -40z m304 31 c0 -2 -8 -10 -17 -17 -16 -13 -17 -12 -4 4 13 16 21 21 21
13z m-3623 -76 c27 -63 23 -64 -11 -4 -28 51 -30 54 -18 54 4 0 17 -23 29 -50z
m2698 -87 c-5 -22 -34 -42 -90 -63 -42 -16 -28 -2 20 21 60 28 67 44 50 110
-21 77 -17 85 6 14 11 -33 17 -70 14 -82z m-2769 64 c-14 -18 -40 -43 -58 -56
-23 -17 -17 -7 22 33 30 31 56 56 58 56 2 0 -8 -15 -22 -33z m3154 23 c8 -5
11 -10 5 -10 -5 0 -17 5 -25 10 -8 5 -10 10 -5 10 6 0 17 -5 25 -10z m-4320
-43 c0 -10 21 -30 50 -48 64 -39 66 -50 3 -14 -60 35 -59 33 -67 75 -4 25 -3
31 4 20 5 -8 10 -23 10 -33z m2936 36 c-4 -5 -38 -26 -74 -49 -64 -38 -67 -43
-73 -85 -5 -42 -6 -43 -13 -16 -13 43 2 63 84 111 75 45 90 52 76 39z m-3106
-34 c15 -28 5 -23 -15 7 -9 15 -12 23 -6 20 6 -4 16 -16 21 -27z m4540 21 c8
-5 11 -10 5 -10 -5 0 -17 5 -25 10 -8 5 -10 10 -5 10 6 0 17 -5 25 -10z m1604
-8 c-11 -10 -132 -62 -142 -62 -4 1 27 18 68 38 70 34 97 43 74 24z m596 -2
c24 -24 25 -61 4 -124 -23 -68 -28 -50 -8 29 l17 68 -24 20 c-22 17 -34 19
-118 13 -116 -8 -168 -20 -248 -57 -57 -27 -81 -48 -126 -109 -11 -15 -9 -8 5
19 28 53 63 81 148 116 79 33 129 42 243 44 75 1 90 -2 107 -19z m-970 -32
c60 -31 58 -32 -10 -6 -25 9 -67 24 -95 32 l-50 15 50 -6 c28 -3 75 -19 105
-35z m385 -53 c-12 -19 -90 -65 -110 -64 -5 0 8 9 30 21 61 31 75 47 76 87 l1
36 8 -30 c4 -18 2 -38 -5 -50z m-3225 50 c-7 -9 -15 -13 -19 -10 -3 3 1 10 9
15 21 14 24 12 10 -5z m-3169 -62 c-12 -20 -14 -14 -5 12 4 9 9 14 11 11 3 -2
0 -13 -6 -23z m468 -22 c82 -48 104 -73 125 -135 19 -60 14 -56 -22 15 -21 42
-41 63 -90 97 -35 23 -73 42 -83 42 -11 0 -17 5 -14 10 9 15 13 13 84 -29z
m1477 14 c-22 -17 -76 -20 -76 -6 0 6 17 12 38 14 20 2 42 4 47 5 6 1 1 -5 -9
-13z m2419 -5 c-4 -6 -28 -22 -55 -35 -27 -14 -54 -35 -61 -46 -11 -21 -8 -83
6 -139 4 -15 0 -12 -10 10 -21 45 -30 113 -18 135 8 14 34 29 141 83 2 1 0 -3
-3 -8z m-3116 -33 c-13 -13 -26 -21 -29 -19 -5 4 38 42 48 42 3 0 -6 -10 -19
-23z m720 -47 c-12 -28 -24 -49 -26 -46 -2 2 3 20 11 40 14 33 14 36 -2 36
-13 0 -12 5 8 20 33 25 36 12 9 -50z m-614 41 c-6 -5 -26 -14 -47 -20 -30 -10
-38 -19 -46 -49 -10 -36 -10 -36 -11 -7 -1 42 9 54 60 70 54 17 55 17 44 6z
m1802 -128 c-3 -65 -11 -131 -17 -148 l-10 -30 5 34 c3 19 8 85 12 147 3 63 8
114 11 114 3 0 2 -53 -1 -117z m-3252 -129 c-36 -115 -68 -217 -71 -226 -4
-13 0 -18 13 -18 11 0 28 -7 39 -14 17 -13 15 -14 -18 -2 -21 7 -40 15 -43 18
-3 3 26 104 65 226 38 122 70 225 70 228 0 4 3 5 6 2 3 -3 -24 -100 -61 -214z
m4278 196 c-3 -12 -8 -19 -11 -16 -5 6 5 36 12 36 2 0 2 -9 -1 -20z m-2193
-41 c-11 -24 -20 -39 -20 -32 0 15 32 84 37 79 2 -1 -6 -23 -17 -47z m4425 21
c-3 -5 -12 -10 -18 -10 -7 0 -6 4 3 10 19 12 23 12 15 0z m-5690 -148 c65 -57
102 -62 210 -28 11 3 2 -3 -20 -14 -22 -11 -57 -20 -78 -20 -71 0 -159 65
-191 142 -25 58 -18 69 8 13 13 -29 43 -68 71 -93z m491 82 c-7 -27 -44 -47
-106 -57 -40 -7 -14 8 33 18 37 8 67 39 68 73 1 18 3 21 6 9 3 -10 2 -30 -1
-43z m5716 -10 c4 -30 2 -33 -8 -20 -6 10 -10 26 -7 36 7 28 10 25 15 -16z
m-4919 -1 c-7 -2 -21 -2 -30 0 -10 3 -4 5 12 5 17 0 24 -2 18 -5z m2216 -75
c11 -35 23 -88 25 -118 6 -59 4 -56 -25 65 -11 44 -22 88 -25 98 -3 9 -3 17 0
17 2 0 14 -28 25 -62z m-2158 15 c14 -37 5 -102 -22 -147 -30 -52 -32 -44 -4
17 40 85 29 137 -28 137 -24 0 -28 3 -17 10 29 19 60 11 71 -17z m46 -50 c-2
-16 -4 -5 -4 22 0 28 2 40 4 28 2 -13 2 -35 0 -50z m4878 0 c9 -19 14 -37 11
-40 -3 -3 -10 7 -16 22 -6 15 -20 42 -32 59 -22 31 -22 31 -1 13 12 -11 29
-35 38 -54z m-5789 48 c-3 -5 -38 -17 -78 -27 -40 -9 -99 -28 -131 -41 -33
-13 -61 -22 -63 -20 -8 8 101 50 186 72 47 12 86 23 88 24 2 0 1 -3 -2 -8z
m1981 -53 c-3 -8 -6 -5 -6 6 -1 11 2 17 5 13 3 -3 4 -12 1 -19z m-2486 -5 c13
-16 12 -17 -3 -4 -10 7 -18 15 -18 17 0 8 8 3 21 -13z m44 -31 c-3 -3 -11 0
-18 7 -9 10 -8 11 6 5 10 -3 15 -9 12 -12z m2430 -22 c-4 -17 -9 -30 -11 -27
-2 2 -1 18 2 36 4 17 9 30 11 27 3 -2 2 -19 -2 -36z m-56 -33 c-15 -39 -55
-84 -91 -103 -18 -9 -10 3 27 39 33 34 55 66 60 88 5 19 10 28 13 21 2 -7 -2
-27 -9 -45z m1178 1 c-3 -8 -6 -5 -6 6 -1 11 2 17 5 13 3 -3 4 -12 1 -19z
m2763 7 c6 -8 10 -19 8 -24 -1 -5 -11 2 -21 15 -19 26 -8 34 13 9z m-4990 -67
c-11 -24 -20 -60 -20 -80 0 -31 5 -40 28 -52 32 -18 14 -21 -23 -4 -28 13 -33
43 -13 99 11 33 37 79 44 79 2 0 -6 -19 -16 -42z m2237 5 c-3 -10 -5 -4 -5 12
0 17 2 24 5 18 2 -7 2 -21 0 -30z m-19 -168 l0 -30 -8 32 c-4 18 -10 65 -13
105 l-5 73 13 -75 c8 -41 14 -88 13 -105z m-2281 133 c-3 -8 -6 -5 -6 6 -1 11
2 17 5 13 3 -3 4 -12 1 -19z m5053 -68 c-17 -41 -42 -60 -86 -66 l-39 -4 40
15 c51 19 73 46 82 99 7 36 8 38 11 12 2 -15 -2 -41 -8 -56z m-2743 33 c-3
-10 -5 -4 -5 12 0 17 2 24 5 18 2 -7 2 -21 0 -30z m-2320 -5 c-3 -8 -6 -5 -6
6 -1 11 2 17 5 13 3 -3 4 -12 1 -19z m991 -68 c-120 -110 -249 -278 -270 -350
-3 -10 -6 -8 -10 7 -9 35 217 320 305 384 64 46 56 34 -25 -41z m-3061 -32
c-3 -8 -6 -5 -6 6 -1 11 2 17 5 13 3 -3 4 -12 1 -19z m2147 -12 c41 -17 58
-68 33 -93 -14 -14 -15 -11 -10 26 5 40 4 41 -31 56 -20 8 -36 17 -36 20 0 8
8 6 44 -9z m2279 -83 c9 -9 47 -23 84 -30 l68 -13 -70 4 c-60 4 -72 8 -92 31
-17 19 -23 38 -22 68 l2 42 6 -43 c4 -23 15 -50 24 -59z m-1489 75 c-12 -19
-155 -202 -167 -213 -20 -19 37 61 102 142 61 77 83 101 65 71z m-663 -75 c14
-8 16 -12 6 -9 -10 3 -27 6 -38 6 -15 0 -19 7 -19 33 1 32 1 32 14 8 7 -13 24
-30 37 -38z m-2369 37 c-51 -8 -52 -9 -93 -118 -18 -45 -34 -81 -36 -79 -4 5
50 156 67 188 9 15 21 19 58 18 l47 -2 -43 -7z m7035 -62 c-3 -8 -6 -5 -6 6
-1 11 2 17 5 13 3 -3 4 -12 1 -19z m-4633 -36 c16 -10 35 -28 43 -42 11 -17
11 -20 2 -9 -33 38 -115 74 -137 60 -6 -4 -15 -18 -21 -31 l-10 -25 0 27 c-2
49 55 58 123 20z m-188 -103 c-36 -53 -41 -49 -11 7 14 26 26 56 26 68 2 14 3
12 6 -7 3 -19 -4 -42 -21 -68z m2581 55 c77 -57 116 -233 74 -328 -28 -65 -91
-137 -151 -176 -60 -38 -188 -88 -321 -124 -90 -25 -98 -25 -132 -11 -34 14
-76 60 -65 70 3 3 10 -6 18 -19 21 -40 62 -52 134 -37 103 21 293 88 348 124
142 91 205 229 163 358 -37 115 -72 148 -168 160 l-62 8 67 -3 c50 -1 75 -7
95 -22z m-2222 -40 c52 -22 248 -32 270 -14 13 11 14 10 10 -3 -4 -8 -21 -17
-38 -20 -43 -6 -203 9 -247 24 -37 13 -80 46 -80 62 0 6 10 1 23 -11 12 -11
40 -29 62 -38z m4560 29 c8 -23 3 -22 -23 3 -22 21 -22 22 -3 17 11 -3 22 -12
26 -20z m-4916 -120 c-31 -52 -45 -66 -24 -23 19 37 35 60 42 60 3 0 -5 -17
-18 -37z m618 11 c-3 -3 -12 -4 -19 -1 -8 3 -5 6 6 6 11 1 17 -2 13 -5z m4310
-41 c-3 -10 -5 -2 -5 17 0 19 2 27 5 18 2 -10 2 -26 0 -35z m-4993 5 c-31 -62
-64 -98 -90 -98 -13 0 -24 5 -24 10 0 6 8 10 18 10 19 0 58 37 87 83 24 37 29
34 9 -5z m691 -43 c-3 -26 -9 -45 -12 -42 -2 3 -1 26 2 52 4 25 10 44 12 41 3
-3 2 -26 -2 -51z m53 -268 c19 -23 94 -57 124 -57 34 0 69 29 119 100 23 33
44 60 46 60 9 0 -45 -85 -80 -126 -34 -39 -43 -44 -80 -44 -54 1 -128 38 -145
74 -19 38 -26 125 -16 182 8 45 9 39 14 -62 3 -71 10 -117 18 -127z m4345 148
c10 -42 17 -93 17 -114 0 -52 -48 -117 -104 -142 -51 -22 -215 -43 -247 -31
-16 6 8 11 81 16 57 3 122 12 143 18 80 24 126 104 112 197 -8 54 -31 112 -48
123 -8 5 -5 8 9 8 18 0 23 -11 37 -75z m-3920 48 c-7 -2 -19 -2 -25 0 -7 3 -2
5 12 5 14 0 19 -2 13 -5z m-1280 -20 c-21 -4 -39 -22 -70 -69 -11 -16 -11 -15
-3 9 20 57 29 67 63 66 23 -1 26 -3 10 -6z m1334 -43 c24 -19 83 -88 83 -98 0
-2 -24 21 -54 52 -82 85 -104 79 -204 -50 l-23 -29 23 43 c13 24 40 59 61 78
43 39 69 40 114 4z m430 -24 c-32 -33 -79 -67 -124 -90 -40 -20 -73 -34 -73
-32 0 3 34 23 75 46 41 23 84 53 95 68 17 21 67 62 77 62 1 0 -22 -24 -50 -54z
m-1884 -4 c-11 -15 -27 -28 -36 -30 -9 -2 -3 10 16 31 37 40 50 39 20 -1z
m1975 -17 c17 -37 14 -55 -4 -22 -16 30 -35 35 -54 12 -7 -9 -15 -13 -18 -10
-9 8 30 45 48 45 9 0 22 -11 28 -25z m-408 -15 c6 -11 8 -20 6 -20 -3 0 -10 9
-16 20 -6 11 -8 20 -6 20 3 0 10 -9 16 -20z m539 -154 c6 -4 11 -13 11 -19 0
-7 -8 -3 -16 8 -22 29 -84 152 -84 167 0 7 18 -24 39 -68 21 -45 44 -84 50
-88z m-2194 144 c-28 -12 -37 -12 -30 0 3 6 16 10 28 9 21 0 21 -1 2 -9z
m3034 -17 c-25 -33 -84 -95 -99 -103 -9 -5 11 20 45 55 60 64 79 81 54 48z
m-2969 -13 c-8 -5 -26 -9 -40 -9 -23 1 -23 2 5 9 43 11 52 11 35 0z m-78 -22
c-7 -7 -12 -32 -13 -57 -1 -46 -1 -46 -9 -12 -9 38 3 81 22 81 9 0 9 -3 0 -12z
m1651 -110 l-10 -73 -1 95 c0 74 2 90 10 73 8 -16 8 -45 1 -95z m237 88 c0 -2
-19 -15 -43 -29 -66 -39 -72 -59 -69 -216 3 -177 13 -231 73 -380 28 -68 48
-125 46 -127 -2 -3 -13 19 -25 48 -11 29 -39 96 -61 148 l-40 96 -5 175 c-6
205 0 226 74 265 47 25 50 26 50 20z m-595 -66 c-16 -16 -32 -30 -37 -30 -8 0
53 59 61 60 3 0 -8 -13 -24 -30z m963 -10 c-7 -11 -17 -20 -22 -20 -5 0 -1 9
9 20 10 11 20 20 22 20 2 0 -2 -9 -9 -20z m-2300 -70 c0 -32 -1 -33 -8 -10 -4
14 -8 41 -8 60 0 32 1 33 8 10 4 -14 8 -41 8 -60z m2382 59 c7 -11 9 -23 7
-26 -3 -2 -8 5 -12 16 -8 27 -17 26 -33 0 -7 -12 -16 -18 -19 -15 -7 7 26 46
38 46 5 0 13 -9 19 -21z m-2343 -31 c-3 -7 -5 -2 -5 12 0 14 2 19 5 13 2 -7 2
-19 0 -25z m1718 -108 l13 35 1 -56 c1 -31 3 -72 6 -90 l5 -34 -19 41 c-28 60
-42 139 -34 187 7 38 8 34 12 -38 3 -79 3 -79 16 -45z m-1729 24 c-9 -8 -11
-9 -6 -2 6 7 11 21 11 33 1 18 2 18 6 1 3 -10 -2 -25 -11 -32z m4683 9 l22
-38 -27 29 -26 30 5 -55 6 -54 -13 50 c-21 81 -3 101 33 38z m137 -24 c27 7
73 23 103 37 53 24 73 27 49 6 -17 -14 -126 -50 -175 -58 -36 -5 -42 -3 -60
22 -35 52 -36 60 -1 20 l35 -39 49 12z m-2208 28 c-41 -13 -68 -27 -70 -36 -3
-14 -5 -14 -10 1 -6 14 4 21 55 37 34 10 69 19 77 19 8 0 -15 -10 -52 -21z
m-2678 3 c-14 -4 -38 -8 -55 -8 -25 -1 -27 1 -10 8 11 5 36 8 55 8 32 0 33 -1
10 -8z m2519 -10 c47 -23 62 -59 60 -144 l-2 -61 -6 70 c-8 84 -16 99 -67 130
-47 29 -38 33 15 5z m2521 -47 c0 -24 -1 -25 -13 -9 -10 14 -17 15 -40 7 -16
-6 -34 -11 -40 -10 -9 0 53 27 91 38 1 1 2 -11 2 -26z m-5067 5 c-35 -7 -44
-14 -49 -36 -13 -62 -22 -76 -17 -27 7 65 17 75 67 74 l41 -1 -42 -10z m4717
-117 c-12 -29 -73 -75 -110 -84 -14 -3 -50 3 -80 13 l-55 18 45 -6 c88 -12
115 -8 155 22 l38 29 -6 71 -5 71 15 -54 c11 -41 11 -60 3 -80z m237 93 c-3
-3 -12 -4 -19 -1 -8 3 -5 6 6 6 11 1 17 -2 13 -5z m-5067 -104 c-8 -15 -20
-20 -48 -19 -36 1 -36 2 -7 8 33 7 54 39 57 86 1 22 3 18 5 -12 2 -23 -1 -51
-7 -63z m1920 -15 c0 -5 -5 -3 -10 5 -5 8 -10 20 -10 25 0 6 5 3 10 -5 5 -8
10 -19 10 -25z m-4005 -25 c-14 -27 -28 -50 -30 -50 -3 0 6 23 20 50 14 28 28
50 30 50 3 0 -6 -22 -20 -50z m4875 -209 c30 -61 86 -118 127 -132 19 -6 72
-17 116 -25 l82 -13 -75 5 c-112 7 -146 19 -195 70 -79 80 -103 153 -95 284 2
45 4 37 11 -46 5 -72 14 -114 29 -143z m2060 209 c-11 -21 -78 -70 -95 -70 -5
0 10 13 34 29 25 17 48 37 53 45 13 23 21 19 8 -4z m-2910 -25 c0 -5 -5 -3
-10 5 -5 8 -10 20 -10 25 0 6 5 3 10 -5 5 -8 10 -19 10 -25z m-2477 15 c149
-22 204 -39 245 -78 21 -20 29 -30 18 -21 -77 61 -220 93 -416 93 -165 1 -238
-17 -303 -75 -69 -60 -147 -237 -147 -331 0 -31 25 -86 72 -158 28 -42 28 -43
3 -15 -49 56 -85 128 -85 170 0 57 26 157 57 223 50 106 131 169 246 192 60
11 230 11 310 0z m3244 -97 c-2 -21 -4 -4 -4 37 0 41 2 58 4 38 2 -21 2 -55 0
-75z m-2866 66 c-9 -22 -10 -22 -10 -3 -1 11 2 24 6 27 12 12 14 0 4 -24z m94
14 c-11 -2 -33 -19 -48 -36 l-28 -32 11 29 c16 44 19 46 53 45 20 -1 25 -3 12
-6z m-945 -6 c0 -2 -19 -21 -42 -42 -23 -22 -36 -31 -28 -20 18 27 70 72 70
62z m5631 -22 c25 -11 27 -14 9 -10 -93 21 -99 20 -147 -26 -40 -38 -43 -40
-24 -12 50 74 85 84 162 48z m-4812 -30 c12 7 15 -7 5 -18 -9 -9 -55 17 -79
43 -18 20 -15 20 22 -4 23 -16 47 -25 52 -21z m2151 10 c0 -5 -5 -3 -10 5 -5
8 -10 20 -10 25 0 6 5 3 10 -5 5 -8 10 -19 10 -25z m2481 8 c-21 -39 -106
-104 -163 -126 -30 -11 -20 0 25 26 23 14 65 46 92 71 57 51 59 53 46 29z
m-6588 -43 c-15 -28 -36 -60 -47 -73 l-18 -22 14 25 c8 14 27 46 42 73 15 26
30 47 33 47 2 0 -8 -23 -24 -50z m4127 -15 c0 -5 -5 -3 -10 5 -5 8 -10 20 -10
25 0 6 5 3 10 -5 5 -8 10 -19 10 -25z m3466 17 c7 -4 8 -24 4 -57 l-7 -50 -2
52 -1 52 -72 4 -73 3 70 2 c39 1 75 -2 81 -6z m-6546 -32 c-6 -11 -13 -20 -16
-20 -2 0 0 9 6 20 6 11 13 20 16 20 2 0 0 -9 -6 -20z m3140 -124 c56 -131 80
-218 79 -286 -1 -38 -3 -32 -14 35 -13 82 -40 164 -94 294 -17 41 -31 76 -31
79 0 14 13 -13 60 -122z m2320 70 c0 -3 -36 -26 -81 -53 -44 -26 -115 -75
-158 -109 -68 -53 -80 -68 -89 -106 -14 -54 -5 -92 33 -145 l28 -38 -36 37
c-43 44 -52 72 -42 134 5 36 16 55 49 88 47 48 131 106 226 160 69 38 70 38
70 32z m-160 -40 c0 -2 -18 -15 -40 -30 -22 -14 -40 -24 -40 -22 0 5 71 56 77
56 2 0 3 -2 3 -4z m1236 -108 c-6 -4 -22 -7 -36 -7 l-25 1 28 10 c22 8 27 16
28 46 l1 37 8 -40 c5 -27 4 -42 -4 -47z m-2630 25 c15 -20 23 -33 16 -29 -13
8 -56 66 -49 66 3 0 17 -17 33 -37z m1304 23 c0 -2 -8 -10 -17 -17 -16 -13
-17 -12 -4 4 13 16 21 21 21 13z m-6502 -87 c-49 -43 -58 -56 -58 -85 0 -28 6
-38 33 -54 34 -21 21 -28 -16 -9 -29 15 -37 28 -37 59 0 34 22 64 79 105 66
49 65 43 -1 -16z m7716 -89 c-6 -25 -17 -57 -23 -72 -19 -50 -20 -29 0 35 10
34 19 78 20 97 1 31 2 32 8 10 4 -14 2 -45 -5 -70z m-2367 64 c-3 -3 -12 -4
-19 -1 -8 3 -5 6 6 6 11 1 17 -2 13 -5z m246 -23 c47 -11 87 -46 87 -76 0 -25
-30 -129 -35 -123 -2 2 3 32 12 66 13 53 13 64 2 79 -24 28 -81 46 -194 59
l-110 13 100 -5 c55 -2 117 -8 138 -13z m197 -39 c3 -2 -13 -1 -35 2 -22 4
-47 14 -55 22 -12 12 -5 11 35 -2 28 -9 52 -19 55 -22z m578 -87 l1 -20 -9 20
c-5 11 -8 31 -8 45 l0 25 8 -25 c4 -14 8 -34 8 -45z m-5140 30 c-3 -3 -9 2
-12 12 -6 14 -5 15 5 6 7 -7 10 -15 7 -18z m4591 9 c36 -9 92 -29 123 -45 53
-26 308 -196 308 -204 0 -2 -69 40 -152 94 -161 103 -199 121 -313 151 -38 11
-61 19 -51 19 11 1 49 -6 85 -15z m-4478 -169 c58 -100 35 -153 -124 -288
-118 -100 -118 -97 1 17 62 60 120 122 128 139 23 43 13 85 -41 169 -25 40
-34 60 -20 43 15 -16 39 -52 56 -80z m4864 10 c186 -127 197 -131 246 -79 17
18 21 29 14 39 -6 8 -25 36 -43 62 l-33 48 40 -45 c23 -25 44 -55 47 -68 7
-27 -14 -55 -57 -72 -25 -11 -35 -9 -74 11 -50 27 -285 187 -285 195 0 7 9 1
145 -91z m-517 11 c-12 -56 -12 -58 12 -77 27 -20 21 -25 -11 -9 -22 12 -25
53 -7 111 16 56 20 42 6 -25z m-1198 -26 c-6 -23 -22 -53 -35 -65 -27 -28 -88
-42 -118 -27 -19 9 -14 11 31 11 42 1 58 6 77 25 21 21 43 76 46 116 1 11 2
11 6 -2 2 -9 -1 -35 -7 -58z m-4359 -79 c-17 -33 -31 -67 -31 -75 0 -8 21 -22
47 -32 25 -10 41 -20 35 -22 -16 -5 -102 35 -102 48 0 13 74 150 78 145 2 -2
-10 -30 -27 -64z m4369 -4 c0 -2 -10 -12 -22 -23 l-23 -19 19 23 c18 21 26 27
26 19z m-330 -21 c0 -2 -8 -10 -17 -17 -16 -13 -17 -12 -4 4 13 16 21 21 21
13z m1562 -15 c4 -3 9 -19 13 -36 5 -26 5 -28 -5 -10 -7 11 -24 30 -39 43
l-26 24 25 -7 c14 -4 28 -10 32 -14z m735 -6 c-16 -14 -40 -25 -55 -25 -24 1
-23 2 12 15 21 7 43 18 49 24 6 6 13 11 17 11 3 0 -8 -12 -23 -25z m-2222 -12
c-48 -5 -63 -16 -68 -51 -4 -26 -4 -26 -6 4 -2 41 15 54 69 52 l45 -1 -40 -4z
m1542 -15 c-3 -8 -6 -5 -6 6 -1 11 2 17 5 13 3 -3 4 -12 1 -19z m10 -60 c-3
-7 -5 -2 -5 12 0 14 2 19 5 13 2 -7 2 -19 0 -25z m-52 -27 c-7 -13 -59 -13
-95 0 -19 7 -15 8 22 5 25 -2 52 0 59 5 16 10 23 4 14 -10z m-1608 -28 c-3
-10 -5 -4 -5 12 0 17 2 24 5 18 2 -7 2 -21 0 -30z m3733 -8 c0 -3 -18 4 -40
15 -22 11 -40 23 -40 25 0 3 18 -4 40 -15 22 -11 40 -23 40 -25z m-7515 -25
c14 -23 103 -75 150 -87 l50 -13 -48 5 c-26 2 -60 11 -75 20 -34 19 -135 110
-105 96 12 -6 25 -16 28 -21z m5310 19 c28 -8 27 -8 -8 -4 -50 5 -67 -2 -67
-30 0 -13 -4 -27 -10 -30 -11 -7 -14 34 -4 59 7 17 40 19 89 5z m-1555 -9 c18
-12 -39 -12 -85 0 -26 7 -24 8 20 9 28 0 57 -4 65 -9z m-2921 -79 c-47 -44
-103 -104 -124 -135 -21 -31 -40 -54 -43 -52 -12 13 83 129 158 193 46 40 87
73 89 73 3 0 -33 -36 -80 -79z m6781 49 c19 -11 31 -19 25 -19 -5 0 -26 8 -45
19 -19 11 -30 19 -25 19 6 0 26 -8 45 -19z m-3975 0 c19 -5 -14 -8 -92 -9
-120 -1 -123 -2 -124 -23 -1 -18 -2 -19 -6 -5 -10 37 14 47 106 46 47 -1 100
-5 116 -9z m1535 -115 c-11 -13 -111 -48 -118 -41 -1 2 20 12 49 22 54 20 67
38 71 97 1 20 3 14 5 -16 3 -27 -1 -55 -7 -62z m2515 85 c13 -6 15 -9 5 -9 -8
0 -22 4 -30 9 -18 12 -2 12 25 0z m-4898 -16 c-3 -3 -12 -4 -19 -1 -8 3 -5 6
6 6 11 1 17 -2 13 -5z m4950 0 c-3 -3 -12 -4 -19 -1 -8 3 -5 6 6 6 11 1 17 -2
13 -5z m-4882 -14 c13 -5 14 -9 5 -9 -8 0 -24 4 -35 9 -13 5 -14 9 -5 9 8 0
24 -4 35 -9z m5040 -12 c56 -14 65 -24 65 -73 0 -46 -12 -61 -70 -90 l-35 -17
42 36 c46 40 64 89 41 112 -7 8 -54 23 -103 34 -71 15 -78 18 -35 14 30 -3 73
-10 95 -16z m-5335 -55 c-57 -63 -57 -63 -36 -28 16 26 64 74 75 75 2 0 -16
-21 -39 -47z m307 18 c60 -19 163 -67 163 -75 0 -3 -35 11 -79 30 -110 47
-194 67 -249 59 -36 -5 -56 -17 -96 -55 -44 -42 -51 -54 -51 -87 0 -43 42
-136 82 -184 14 -16 23 -32 20 -35 -3 -3 -21 16 -41 43 -38 52 -76 141 -76
177 0 33 38 84 90 124 43 33 47 34 110 29 36 -4 93 -15 127 -26z m512 -27
c-25 -31 -83 -46 -174 -48 -81 -1 -96 2 -148 28 -74 38 -68 45 9 9 49 -23 71
-28 134 -27 99 2 151 20 170 61 12 26 16 28 18 12 2 -11 -2 -27 -9 -35z
m-3043 -101 c-6 -6 -36 52 -36 69 1 7 10 -4 21 -25 11 -22 18 -41 15 -44z
m3054 53 c0 -2 -7 -7 -16 -10 -8 -3 -12 -2 -9 4 6 10 25 14 25 6z m1680 -19
c-33 -13 -72 -39 -99 -67 l-44 -45 33 47 c25 36 45 52 84 67 28 11 58 20 66
20 8 0 -10 -10 -40 -22z m-142 -47 c-53 -75 -68 -90 -142 -134 -66 -40 -76
-43 -76 -22 0 9 7 12 18 9 27 -7 131 74 187 146 26 33 50 61 52 61 2 0 -15
-27 -39 -60z m-4342 -59 l-26 -51 -63 2 -62 2 61 3 61 4 23 49 c13 28 25 48
27 46 3 -2 -7 -27 -21 -55z m-173 -31 c21 -8 20 -9 -6 -9 -21 -1 -30 5 -37 25
-15 39 -11 53 6 21 8 -15 25 -32 37 -37z m4135 53 c-10 -2 -28 -2 -40 0 -13 2
-5 4 17 4 22 1 32 -1 23 -4z m3252 -7 c0 -2 -8 -10 -17 -17 -16 -13 -17 -12
-4 4 13 16 21 21 21 13z m-3102 -36 c3 0 3 -3 0 -6 -7 -6 -78 22 -78 31 0 3
16 -2 36 -10 20 -8 39 -15 42 -15z m-4064 -39 c-2 -2 -10 -1 -19 2 -12 5 -13
11 -2 34 l12 27 6 -30 c3 -16 4 -31 3 -33z m1932 -33 c8 -16 13 -28 10 -28 -6
0 -46 66 -46 76 0 10 14 -8 36 -48z m-1815 -24 c13 -14 17 -23 9 -19 -13 5
-46 45 -37 45 2 0 14 -11 28 -26z m7005 -50 c-5 -17 -13 -24 -29 -24 -13 0
-40 -9 -60 -19 -25 -13 -34 -15 -26 -5 6 8 30 19 53 26 48 14 55 22 57 63 1
25 2 26 6 6 3 -12 2 -34 -1 -47z m-2960 47 c-3 -5 13 -11 36 -15 59 -10 42
-17 -22 -9 -47 5 -51 8 -35 20 22 15 28 17 21 4z m-2116 -141 c-1 -19 -10 -51
-21 -70 -11 -19 -17 -26 -14 -15 32 102 33 99 -20 162 l-48 58 51 -50 c44 -41
52 -55 52 -85z m1280 95 c0 -2 -13 -11 -30 -20 -38 -19 -40 -11 -2 9 31 17 32
18 32 11z m-3152 -76 c-3 -20 -5 -19 -9 9 -3 20 -2 29 4 23 5 -5 7 -19 5 -32z
m3082 37 c0 -2 -18 -15 -40 -30 -22 -14 -40 -24 -40 -22 0 5 71 56 77 56 2 0
3 -2 3 -4z m3734 -60 c-4 -12 -17 -16 -48 -14 -35 1 -37 2 -9 5 17 2 37 11 44
19 15 18 22 13 13 -10z m-6671 -3 c-24 -2 -62 -2 -85 0 -24 2 -5 4 42 4 47 0
66 -2 43 -4z m2764 -75 c-46 -46 -91 -94 -101 -108 -14 -21 -14 -19 1 9 16 29
166 181 180 181 2 0 -33 -37 -80 -82z m1433 9 c23 -15 55 -22 111 -25 l79 -5
1 29 c0 16 4 38 9 49 6 14 9 3 9 -39 l1 -59 -72 7 c-40 4 -91 12 -112 17 -44
12 -96 58 -96 86 0 14 5 11 19 -11 11 -16 34 -38 51 -49z m-3485 17 c14 -9 51
-27 82 -41 53 -22 55 -24 21 -19 -34 4 -178 87 -178 102 0 3 11 -1 25 -10 14
-9 36 -23 50 -32z m-193 -101 c-5 -17 -37 -16 -92 2 l-45 15 49 -7 c87 -11 81
-16 79 62 l-1 70 7 -65 c4 -36 5 -71 3 -77z m-382 102 c0 -20 14 -26 110 -51
47 -12 74 -23 60 -23 -14 0 -58 10 -99 22 -65 19 -76 26 -82 50 -4 16 -3 25 2
21 5 -3 9 -11 9 -19z m4379 -88 c8 -8 41 -12 94 -11 51 1 73 -2 57 -6 -42 -13
-135 -11 -154 3 -12 9 -19 30 -22 63 l-3 49 8 -43 c4 -23 13 -48 20 -55z
m-2794 -3 c-19 -43 -35 -71 -35 -62 0 17 61 150 67 145 1 -2 -13 -39 -32 -83z
m4736 3 c-12 -30 -50 -44 -78 -28 -15 9 -12 10 20 11 34 0 40 4 50 30 7 17 13
27 15 22 1 -5 -2 -21 -7 -35z m-5458 -88 c18 0 41 -5 52 -10 15 -7 9 -8 -20
-4 -77 11 -95 17 -95 32 0 12 2 12 16 -1 8 -9 30 -16 47 -17z m642 -16 c-3
-21 -16 -51 -27 -68 -11 -16 -17 -23 -14 -15 2 8 13 39 22 68 21 61 29 68 19
15z m4615 33 c0 -10 -62 -48 -115 -71 -72 -32 -71 -23 3 14 31 16 66 36 77 45
20 15 35 20 35 12z m-5145 -46 c3 -6 -1 -7 -9 -4 -18 7 -21 14 -7 14 6 0 13
-4 16 -10z m3672 -32 c-3 -8 -6 -5 -6 6 -1 11 2 17 5 13 3 -3 4 -12 1 -19z
m13 -33 c7 -8 8 -15 2 -15 -5 0 -15 7 -22 15 -7 8 -8 15 -2 15 5 0 15 -7 22
-15z m-3603 -60 c10 -4 45 -11 78 -15 l60 -7 -66 -2 c-76 -1 -105 15 -114 64
l-5 30 14 -31 c8 -17 23 -35 33 -39z m459 40 c-4 -11 1 -15 17 -15 20 -1 20
-2 -6 -16 -16 -9 -31 -14 -33 -11 -6 6 14 57 22 57 3 0 4 -7 0 -15z m974 -255
c0 -219 -2 -260 -14 -260 -12 0 -13 7 -5 32 5 18 9 135 9 260 0 126 2 228 5
228 3 0 5 -117 5 -260z m-850 196 c0 -12 -5 -7 -19 24 -11 24 -11 24 3 6 9
-11 16 -24 16 -30z m3218 -35 c191 -112 238 -129 507 -179 36 -7 42 -10 20
-11 -51 -1 -267 46 -333 72 -58 24 -332 184 -332 194 0 5 -12 12 138 -76z
m968 41 c-17 -16 -18 -16 -5 5 7 12 15 20 18 17 3 -2 -3 -12 -13 -22z m-4232
-8 c11 -28 6 -38 -9 -18 -8 10 -15 22 -15 27 0 13 18 7 24 -9z m-34 1 c0 -2
-10 -9 -22 -15 -22 -11 -22 -10 -4 4 21 17 26 19 26 11z m-267 -75 c21 -8 20
-9 -5 -9 -16 -1 -28 3 -28 8 0 5 -3 18 -6 28 -5 17 -5 17 6 0 6 -10 21 -22 33
-27z m307 20 c0 -13 -11 -13 -30 0 -12 8 -11 10 8 10 12 0 22 -4 22 -10z
m-145 -14 c-40 -18 -92 -30 -82 -19 8 8 83 31 102 31 6 0 -3 -5 -20 -12z m105
-26 c0 -5 -15 -10 -32 -10 -18 0 -44 -3 -58 -6 -22 -4 -21 -3 5 10 35 17 85
20 85 6z m4222 -30 c-9 -61 -92 -96 -245 -104 l-92 -5 104 14 c161 22 194 36
218 93 17 40 21 41 15 2z m-4423 -4 c-10 -8 -89 -13 -89 -5 0 5 21 9 47 9 25
0 44 -2 42 -4z m57 -193 c86 -85 112 -95 169 -65 l40 22 -33 -30 c-40 -37 -56
-37 -113 -2 -58 37 -199 197 -199 226 0 5 14 -11 32 -35 17 -24 64 -76 104
-116z m458 -154 c49 -22 93 -24 166 -5 78 20 74 12 -7 -14 -66 -22 -71 -22
-124 -6 -63 18 -109 49 -109 74 0 13 4 11 16 -7 9 -13 35 -32 58 -42z"/>
<path d="M1587 8752 c-48 -53 11 -125 73 -92 42 23 45 76 6 102 -20 14 -63 8
-79 -10z"/>
<path d="M10667 2072 c-10 -11 -17 -35 -17 -59 0 -32 -4 -42 -20 -46 -19 -5
-20 -14 -20 -120 l0 -116 -32 10 c-80 22 -185 2 -207 -40 -16 -30 -37 -38
-124 -50 -43 -6 -95 -20 -117 -31 -22 -11 -57 -20 -78 -20 -25 0 -49 -8 -67
-21 -23 -19 -26 -27 -20 -56 10 -56 -2 -88 -40 -106 -47 -23 -69 -68 -60 -126
15 -100 13 -106 -23 -109 -44 -4 -49 -22 -23 -82 11 -27 21 -65 21 -85 0 -50
14 -71 50 -79 25 -5 31 -10 28 -27 -3 -23 -14 -31 -63 -45 -45 -14 -62 -52
-47 -103 19 -61 46 -75 122 -61 42 8 66 8 73 1 17 -17 -1 -40 -42 -51 -22 -6
-47 -20 -56 -33 -15 -22 -20 -91 -9 -122 9 -22 57 -45 94 -45 36 0 37 -6 9
-29 -17 -14 -22 -31 -26 -87 -2 -47 0 -74 9 -85 25 -31 116 -79 168 -89 65
-12 80 -24 80 -62 0 -16 4 -37 10 -47 11 -22 79 -51 119 -51 36 0 71 40 71 79
0 15 12 43 26 62 33 44 54 94 54 128 0 25 3 27 29 23 34 -5 57 25 45 60 -4 15
1 26 22 43 29 23 29 23 26 129 -2 85 0 108 12 112 8 3 19 24 25 47 7 28 25 57
55 86 44 43 74 101 62 120 -10 16 5 41 25 41 39 0 43 32 44 316 0 296 -1 304
-57 304 l-29 0 3 58 c3 50 6 57 25 60 43 6 48 25 51 212 4 176 3 178 -19 194
-34 23 -140 22 -162 -2z m106 -18 l37 -7 -2 -71 -2 -71 -3 66 -4 67 -37 5
c-48 6 -62 -7 -62 -54 0 -21 -3 -40 -7 -42 -5 -3 -6 18 -4 46 4 67 12 72 84
61z m-107 -140 c-3 -9 -6 -34 -7 -57 0 -33 -2 -38 -9 -22 -10 24 -13 79 -3 88
12 13 25 7 19 -9z m140 -190 c-3 -8 -13 -14 -21 -14 -15 0 -15 2 -1 22 9 12
17 32 17 43 1 12 4 9 6 -8 3 -16 2 -35 -1 -43z m-352 -28 c-18 -8 -35 -19 -38
-25 -11 -17 -26 -13 -19 5 6 18 38 33 68 33 14 0 11 -4 -11 -13z m126 4 c13
-9 13 -10 0 -9 -8 1 -26 5 -40 9 l-25 8 25 1 c14 0 32 -4 40 -9z m-340 -99
c-41 -10 -86 -21 -100 -25 -23 -6 -23 -6 3 9 31 18 95 33 142 33 17 0 -4 -8
-45 -17z m494 -36 c5 -22 4 -26 -4 -15 -5 8 -10 24 -10 34 0 26 6 18 14 -19z
m-689 -12 c-11 -3 -26 -10 -32 -15 -8 -6 -13 -7 -13 -1 0 16 12 23 39 22 21
-1 22 -2 6 -6z m769 -80 c8 -50 8 -383 0 -450 -5 -37 -11 -53 -22 -53 -12 0
-12 2 -1 17 17 20 26 390 11 471 -5 28 -6 52 -2 52 4 0 10 -17 14 -37z m-879
-115 c-23 -28 -26 -38 -22 -78 l6 -45 -14 38 c-16 42 -12 61 18 95 32 35 42
26 12 -10z m-25 -198 c-6 -11 -16 -20 -22 -20 -6 0 -3 9 7 20 10 11 20 20 22
20 2 0 -1 -9 -7 -20z m-44 -46 c2 -28 1 -28 -15 4 -9 17 -9 22 1 22 7 0 14
-12 14 -26z m47 -133 c22 -11 22 -11 -3 -8 -19 1 -25 8 -27 27 -1 14 0 18 3 9
3 -9 15 -21 27 -28z m833 -128 c-3 -11 -23 -35 -43 -54 l-36 -34 36 49 c21 27
37 53 37 59 0 6 3 8 6 4 3 -3 3 -14 0 -24z m-870 -36 c-11 -8 -17 -23 -14 -38
3 -21 9 -25 58 -29 l55 -5 -52 -9 c-62 -9 -70 -5 -79 39 -7 41 0 55 29 55 19
0 20 -1 3 -13z m173 -111 c-3 -3 -11 5 -18 17 -13 21 -12 21 5 5 10 -10 16
-20 13 -22z m578 -31 c-4 -8 -11 -15 -17 -15 -6 0 -6 7 2 20 14 22 24 19 15
-5z m-654 -72 c-54 -27 -55 -71 -2 -98 15 -8 41 -15 58 -15 16 0 33 -5 37 -11
4 -7 0 -9 -12 -6 -11 3 -38 9 -62 12 -53 8 -77 39 -67 85 7 30 31 49 65 49 8
0 0 -8 -17 -16z m626 -114 c1 -51 -2 -58 -26 -74 l-28 -18 24 26 c22 25 23 31
18 114 -4 61 -3 76 3 48 5 -22 9 -65 9 -96z m-509 -74 c-7 -8 -18 -15 -26 -15
-24 0 -44 -31 -44 -70 0 -33 6 -44 39 -72 21 -18 61 -40 87 -50 49 -17 49 -17
9 -11 -22 3 -62 20 -88 36 -49 30 -69 60 -62 93 14 71 15 72 45 79 16 4 32 11
35 16 4 5 9 9 12 9 3 0 0 -7 -7 -15z m460 -75 c0 -5 -5 -10 -11 -10 -5 0 -7 5
-4 10 3 6 8 10 11 10 2 0 4 -4 4 -10z m-99 -139 c-12 -22 -26 -43 -32 -46 -6
-4 -2 10 9 31 11 22 23 55 28 74 8 33 9 34 12 8 2 -14 -6 -45 -17 -67z m-124
-151 c9 0 13 -3 10 -6 -10 -11 -67 17 -67 32 0 10 6 8 20 -6 11 -11 28 -20 37
-20z m59 5 c-3 -8 -13 -15 -23 -15 -17 1 -17 1 0 11 9 5 17 18 18 27 0 11 2
12 6 4 3 -7 2 -19 -1 -27z"/>
</g>
</svg>
